<?xml version="1.0" encoding="utf-8" standalone="no"?>
<!DOCTYPE svg PUBLIC "-//W3C//DTD SVG 1.1//EN"
  "http://www.w3.org/Graphics/SVG/1.1/DTD/svg11.dtd">
<svg xmlns:xlink="http://www.w3.org/1999/xlink" width="720pt" height="288pt" viewBox="0 0 720 288" xmlns="http://www.w3.org/2000/svg" version="1.1">
 <metadata>
  <rdf:RDF xmlns:dc="http://purl.org/dc/elements/1.1/" xmlns:cc="http://creativecommons.org/ns#" xmlns:rdf="http://www.w3.org/1999/02/22-rdf-syntax-ns#">
   <cc:Work>
    <dc:type rdf:resource="http://purl.org/dc/dcmitype/StillImage"/>
    <dc:date>2025-04-28T12:13:27.929122</dc:date>
    <dc:format>image/svg+xml</dc:format>
    <dc:creator>
     <cc:Agent>
      <dc:title>Matplotlib v3.9.2, https://matplotlib.org/</dc:title>
     </cc:Agent>
    </dc:creator>
   </cc:Work>
  </rdf:RDF>
 </metadata>
 <defs>
  <style type="text/css">*{stroke-linejoin: round; stroke-linecap: butt}</style>
 </defs>
 <g id="figure_1">
  <g id="patch_1">
   <path d="M 0 288 
L 720 288 
L 720 0 
L 0 0 
z
" style="fill: #ffffff"/>
  </g>
  <g id="axes_1">
   <g id="patch_2">
    <path d="M 47.81 246.04 
L 709.2 246.04 
L 709.2 25.44 
L 47.81 25.44 
z
" style="fill: #ffffff"/>
   </g>
   <g id="matplotlib.axis_1">
    <g id="xtick_1">
     <g id="line2d_1">
      <path d="M 137.999545 246.04 
L 137.999545 25.44 
" clip-path="url(#p62c593ac7f)" style="fill: none; stroke: #b0b0b0; stroke-width: 0.8; stroke-linecap: square"/>
     </g>
     <g id="line2d_2">
      <defs>
       <path id="mf95e5b6a0f" d="M 0 0 
L 0 3.5 
" style="stroke: #000000; stroke-width: 0.8"/>
      </defs>
      <g>
       <use xlink:href="#mf95e5b6a0f" x="137.999545" y="246.04" style="stroke: #000000; stroke-width: 0.8"/>
      </g>
     </g>
     <g id="text_1">
      <!-- −20000 -->
      <g transform="translate(117.903452 260.638438) scale(0.1 -0.1)">
       <defs>
        <path id="DejaVuSans-2212" d="M 678 2272 
L 4684 2272 
L 4684 1741 
L 678 1741 
L 678 2272 
z
" transform="scale(0.015625)"/>
        <path id="DejaVuSans-32" d="M 1228 531 
L 3431 531 
L 3431 0 
L 469 0 
L 469 531 
Q 828 903 1448 1529 
Q 2069 2156 2228 2338 
Q 2531 2678 2651 2914 
Q 2772 3150 2772 3378 
Q 2772 3750 2511 3984 
Q 2250 4219 1831 4219 
Q 1534 4219 1204 4116 
Q 875 4013 500 3803 
L 500 4441 
Q 881 4594 1212 4672 
Q 1544 4750 1819 4750 
Q 2544 4750 2975 4387 
Q 3406 4025 3406 3419 
Q 3406 3131 3298 2873 
Q 3191 2616 2906 2266 
Q 2828 2175 2409 1742 
Q 1991 1309 1228 531 
z
" transform="scale(0.015625)"/>
        <path id="DejaVuSans-30" d="M 2034 4250 
Q 1547 4250 1301 3770 
Q 1056 3291 1056 2328 
Q 1056 1369 1301 889 
Q 1547 409 2034 409 
Q 2525 409 2770 889 
Q 3016 1369 3016 2328 
Q 3016 3291 2770 3770 
Q 2525 4250 2034 4250 
z
M 2034 4750 
Q 2819 4750 3233 4129 
Q 3647 3509 3647 2328 
Q 3647 1150 3233 529 
Q 2819 -91 2034 -91 
Q 1250 -91 836 529 
Q 422 1150 422 2328 
Q 422 3509 836 4129 
Q 1250 4750 2034 4750 
z
" transform="scale(0.015625)"/>
       </defs>
       <use xlink:href="#DejaVuSans-2212"/>
       <use xlink:href="#DejaVuSans-32" x="83.789062"/>
       <use xlink:href="#DejaVuSans-30" x="147.412109"/>
       <use xlink:href="#DejaVuSans-30" x="211.035156"/>
       <use xlink:href="#DejaVuSans-30" x="274.658203"/>
       <use xlink:href="#DejaVuSans-30" x="338.28125"/>
      </g>
     </g>
    </g>
    <g id="xtick_2">
     <g id="line2d_3">
      <path d="M 258.252273 246.04 
L 258.252273 25.44 
" clip-path="url(#p62c593ac7f)" style="fill: none; stroke: #b0b0b0; stroke-width: 0.8; stroke-linecap: square"/>
     </g>
     <g id="line2d_4">
      <g>
       <use xlink:href="#mf95e5b6a0f" x="258.252273" y="246.04" style="stroke: #000000; stroke-width: 0.8"/>
      </g>
     </g>
     <g id="text_2">
      <!-- −10000 -->
      <g transform="translate(238.156179 260.638438) scale(0.1 -0.1)">
       <defs>
        <path id="DejaVuSans-31" d="M 794 531 
L 1825 531 
L 1825 4091 
L 703 3866 
L 703 4441 
L 1819 4666 
L 2450 4666 
L 2450 531 
L 3481 531 
L 3481 0 
L 794 0 
L 794 531 
z
" transform="scale(0.015625)"/>
       </defs>
       <use xlink:href="#DejaVuSans-2212"/>
       <use xlink:href="#DejaVuSans-31" x="83.789062"/>
       <use xlink:href="#DejaVuSans-30" x="147.412109"/>
       <use xlink:href="#DejaVuSans-30" x="211.035156"/>
       <use xlink:href="#DejaVuSans-30" x="274.658203"/>
       <use xlink:href="#DejaVuSans-30" x="338.28125"/>
      </g>
     </g>
    </g>
    <g id="xtick_3">
     <g id="line2d_5">
      <path d="M 378.505 246.04 
L 378.505 25.44 
" clip-path="url(#p62c593ac7f)" style="fill: none; stroke: #b0b0b0; stroke-width: 0.8; stroke-linecap: square"/>
     </g>
     <g id="line2d_6">
      <g>
       <use xlink:href="#mf95e5b6a0f" x="378.505" y="246.04" style="stroke: #000000; stroke-width: 0.8"/>
      </g>
     </g>
     <g id="text_3">
      <!-- 0 -->
      <g transform="translate(375.32375 260.638438) scale(0.1 -0.1)">
       <use xlink:href="#DejaVuSans-30"/>
      </g>
     </g>
    </g>
    <g id="xtick_4">
     <g id="line2d_7">
      <path d="M 498.757727 246.04 
L 498.757727 25.44 
" clip-path="url(#p62c593ac7f)" style="fill: none; stroke: #b0b0b0; stroke-width: 0.8; stroke-linecap: square"/>
     </g>
     <g id="line2d_8">
      <g>
       <use xlink:href="#mf95e5b6a0f" x="498.757727" y="246.04" style="stroke: #000000; stroke-width: 0.8"/>
      </g>
     </g>
     <g id="text_4">
      <!-- 10000 -->
      <g transform="translate(482.851477 260.638438) scale(0.1 -0.1)">
       <use xlink:href="#DejaVuSans-31"/>
       <use xlink:href="#DejaVuSans-30" x="63.623047"/>
       <use xlink:href="#DejaVuSans-30" x="127.246094"/>
       <use xlink:href="#DejaVuSans-30" x="190.869141"/>
       <use xlink:href="#DejaVuSans-30" x="254.492188"/>
      </g>
     </g>
    </g>
    <g id="xtick_5">
     <g id="line2d_9">
      <path d="M 619.010455 246.04 
L 619.010455 25.44 
" clip-path="url(#p62c593ac7f)" style="fill: none; stroke: #b0b0b0; stroke-width: 0.8; stroke-linecap: square"/>
     </g>
     <g id="line2d_10">
      <g>
       <use xlink:href="#mf95e5b6a0f" x="619.010455" y="246.04" style="stroke: #000000; stroke-width: 0.8"/>
      </g>
     </g>
     <g id="text_5">
      <!-- 20000 -->
      <g transform="translate(603.104205 260.638438) scale(0.1 -0.1)">
       <use xlink:href="#DejaVuSans-32"/>
       <use xlink:href="#DejaVuSans-30" x="63.623047"/>
       <use xlink:href="#DejaVuSans-30" x="127.246094"/>
       <use xlink:href="#DejaVuSans-30" x="190.869141"/>
       <use xlink:href="#DejaVuSans-30" x="254.492188"/>
      </g>
     </g>
    </g>
    <g id="text_6">
     <!-- Frequency [Hz] -->
     <g transform="translate(340.800313 274.316562) scale(0.1 -0.1)">
      <defs>
       <path id="DejaVuSans-46" d="M 628 4666 
L 3309 4666 
L 3309 4134 
L 1259 4134 
L 1259 2759 
L 3109 2759 
L 3109 2228 
L 1259 2228 
L 1259 0 
L 628 0 
L 628 4666 
z
" transform="scale(0.015625)"/>
       <path id="DejaVuSans-72" d="M 2631 2963 
Q 2534 3019 2420 3045 
Q 2306 3072 2169 3072 
Q 1681 3072 1420 2755 
Q 1159 2438 1159 1844 
L 1159 0 
L 581 0 
L 581 3500 
L 1159 3500 
L 1159 2956 
Q 1341 3275 1631 3429 
Q 1922 3584 2338 3584 
Q 2397 3584 2469 3576 
Q 2541 3569 2628 3553 
L 2631 2963 
z
" transform="scale(0.015625)"/>
       <path id="DejaVuSans-65" d="M 3597 1894 
L 3597 1613 
L 953 1613 
Q 991 1019 1311 708 
Q 1631 397 2203 397 
Q 2534 397 2845 478 
Q 3156 559 3463 722 
L 3463 178 
Q 3153 47 2828 -22 
Q 2503 -91 2169 -91 
Q 1331 -91 842 396 
Q 353 884 353 1716 
Q 353 2575 817 3079 
Q 1281 3584 2069 3584 
Q 2775 3584 3186 3129 
Q 3597 2675 3597 1894 
z
M 3022 2063 
Q 3016 2534 2758 2815 
Q 2500 3097 2075 3097 
Q 1594 3097 1305 2825 
Q 1016 2553 972 2059 
L 3022 2063 
z
" transform="scale(0.015625)"/>
       <path id="DejaVuSans-71" d="M 947 1747 
Q 947 1113 1208 752 
Q 1469 391 1925 391 
Q 2381 391 2643 752 
Q 2906 1113 2906 1747 
Q 2906 2381 2643 2742 
Q 2381 3103 1925 3103 
Q 1469 3103 1208 2742 
Q 947 2381 947 1747 
z
M 2906 525 
Q 2725 213 2448 61 
Q 2172 -91 1784 -91 
Q 1150 -91 751 415 
Q 353 922 353 1747 
Q 353 2572 751 3078 
Q 1150 3584 1784 3584 
Q 2172 3584 2448 3432 
Q 2725 3281 2906 2969 
L 2906 3500 
L 3481 3500 
L 3481 -1331 
L 2906 -1331 
L 2906 525 
z
" transform="scale(0.015625)"/>
       <path id="DejaVuSans-75" d="M 544 1381 
L 544 3500 
L 1119 3500 
L 1119 1403 
Q 1119 906 1312 657 
Q 1506 409 1894 409 
Q 2359 409 2629 706 
Q 2900 1003 2900 1516 
L 2900 3500 
L 3475 3500 
L 3475 0 
L 2900 0 
L 2900 538 
Q 2691 219 2414 64 
Q 2138 -91 1772 -91 
Q 1169 -91 856 284 
Q 544 659 544 1381 
z
M 1991 3584 
L 1991 3584 
z
" transform="scale(0.015625)"/>
       <path id="DejaVuSans-6e" d="M 3513 2113 
L 3513 0 
L 2938 0 
L 2938 2094 
Q 2938 2591 2744 2837 
Q 2550 3084 2163 3084 
Q 1697 3084 1428 2787 
Q 1159 2491 1159 1978 
L 1159 0 
L 581 0 
L 581 3500 
L 1159 3500 
L 1159 2956 
Q 1366 3272 1645 3428 
Q 1925 3584 2291 3584 
Q 2894 3584 3203 3211 
Q 3513 2838 3513 2113 
z
" transform="scale(0.015625)"/>
       <path id="DejaVuSans-63" d="M 3122 3366 
L 3122 2828 
Q 2878 2963 2633 3030 
Q 2388 3097 2138 3097 
Q 1578 3097 1268 2742 
Q 959 2388 959 1747 
Q 959 1106 1268 751 
Q 1578 397 2138 397 
Q 2388 397 2633 464 
Q 2878 531 3122 666 
L 3122 134 
Q 2881 22 2623 -34 
Q 2366 -91 2075 -91 
Q 1284 -91 818 406 
Q 353 903 353 1747 
Q 353 2603 823 3093 
Q 1294 3584 2113 3584 
Q 2378 3584 2631 3529 
Q 2884 3475 3122 3366 
z
" transform="scale(0.015625)"/>
       <path id="DejaVuSans-79" d="M 2059 -325 
Q 1816 -950 1584 -1140 
Q 1353 -1331 966 -1331 
L 506 -1331 
L 506 -850 
L 844 -850 
Q 1081 -850 1212 -737 
Q 1344 -625 1503 -206 
L 1606 56 
L 191 3500 
L 800 3500 
L 1894 763 
L 2988 3500 
L 3597 3500 
L 2059 -325 
z
" transform="scale(0.015625)"/>
       <path id="DejaVuSans-20" transform="scale(0.015625)"/>
       <path id="DejaVuSans-5b" d="M 550 4863 
L 1875 4863 
L 1875 4416 
L 1125 4416 
L 1125 -397 
L 1875 -397 
L 1875 -844 
L 550 -844 
L 550 4863 
z
" transform="scale(0.015625)"/>
       <path id="DejaVuSans-48" d="M 628 4666 
L 1259 4666 
L 1259 2753 
L 3553 2753 
L 3553 4666 
L 4184 4666 
L 4184 0 
L 3553 0 
L 3553 2222 
L 1259 2222 
L 1259 0 
L 628 0 
L 628 4666 
z
" transform="scale(0.015625)"/>
       <path id="DejaVuSans-7a" d="M 353 3500 
L 3084 3500 
L 3084 2975 
L 922 459 
L 3084 459 
L 3084 0 
L 275 0 
L 275 525 
L 2438 3041 
L 353 3041 
L 353 3500 
z
" transform="scale(0.015625)"/>
       <path id="DejaVuSans-5d" d="M 1947 4863 
L 1947 -844 
L 622 -844 
L 622 -397 
L 1369 -397 
L 1369 4416 
L 622 4416 
L 622 4863 
L 1947 4863 
z
" transform="scale(0.015625)"/>
      </defs>
      <use xlink:href="#DejaVuSans-46"/>
      <use xlink:href="#DejaVuSans-72" x="50.269531"/>
      <use xlink:href="#DejaVuSans-65" x="89.132812"/>
      <use xlink:href="#DejaVuSans-71" x="150.65625"/>
      <use xlink:href="#DejaVuSans-75" x="214.132812"/>
      <use xlink:href="#DejaVuSans-65" x="277.511719"/>
      <use xlink:href="#DejaVuSans-6e" x="339.035156"/>
      <use xlink:href="#DejaVuSans-63" x="402.414062"/>
      <use xlink:href="#DejaVuSans-79" x="457.394531"/>
      <use xlink:href="#DejaVuSans-20" x="516.574219"/>
      <use xlink:href="#DejaVuSans-5b" x="548.361328"/>
      <use xlink:href="#DejaVuSans-48" x="587.375"/>
      <use xlink:href="#DejaVuSans-7a" x="662.570312"/>
      <use xlink:href="#DejaVuSans-5d" x="715.060547"/>
     </g>
    </g>
   </g>
   <g id="matplotlib.axis_2">
    <g id="ytick_1">
     <g id="line2d_11">
      <path d="M 47.81 236.012752 
L 709.2 236.012752 
" clip-path="url(#p62c593ac7f)" style="fill: none; stroke: #b0b0b0; stroke-width: 0.8; stroke-linecap: square"/>
     </g>
     <g id="line2d_12">
      <defs>
       <path id="m9f151eef31" d="M 0 0 
L -3.5 0 
" style="stroke: #000000; stroke-width: 0.8"/>
      </defs>
      <g>
       <use xlink:href="#m9f151eef31" x="47.81" y="236.012752" style="stroke: #000000; stroke-width: 0.8"/>
      </g>
     </g>
     <g id="text_7">
      <!-- 0.0 -->
      <g transform="translate(24.906875 239.81197) scale(0.1 -0.1)">
       <defs>
        <path id="DejaVuSans-2e" d="M 684 794 
L 1344 794 
L 1344 0 
L 684 0 
L 684 794 
z
" transform="scale(0.015625)"/>
       </defs>
       <use xlink:href="#DejaVuSans-30"/>
       <use xlink:href="#DejaVuSans-2e" x="63.623047"/>
       <use xlink:href="#DejaVuSans-30" x="95.410156"/>
      </g>
     </g>
    </g>
    <g id="ytick_2">
     <g id="line2d_13">
      <path d="M 47.81 203.54493 
L 709.2 203.54493 
" clip-path="url(#p62c593ac7f)" style="fill: none; stroke: #b0b0b0; stroke-width: 0.8; stroke-linecap: square"/>
     </g>
     <g id="line2d_14">
      <g>
       <use xlink:href="#m9f151eef31" x="47.81" y="203.54493" style="stroke: #000000; stroke-width: 0.8"/>
      </g>
     </g>
     <g id="text_8">
      <!-- 0.2 -->
      <g transform="translate(24.906875 207.344149) scale(0.1 -0.1)">
       <use xlink:href="#DejaVuSans-30"/>
       <use xlink:href="#DejaVuSans-2e" x="63.623047"/>
       <use xlink:href="#DejaVuSans-32" x="95.410156"/>
      </g>
     </g>
    </g>
    <g id="ytick_3">
     <g id="line2d_15">
      <path d="M 47.81 171.077108 
L 709.2 171.077108 
" clip-path="url(#p62c593ac7f)" style="fill: none; stroke: #b0b0b0; stroke-width: 0.8; stroke-linecap: square"/>
     </g>
     <g id="line2d_16">
      <g>
       <use xlink:href="#m9f151eef31" x="47.81" y="171.077108" style="stroke: #000000; stroke-width: 0.8"/>
      </g>
     </g>
     <g id="text_9">
      <!-- 0.4 -->
      <g transform="translate(24.906875 174.876327) scale(0.1 -0.1)">
       <defs>
        <path id="DejaVuSans-34" d="M 2419 4116 
L 825 1625 
L 2419 1625 
L 2419 4116 
z
M 2253 4666 
L 3047 4666 
L 3047 1625 
L 3713 1625 
L 3713 1100 
L 3047 1100 
L 3047 0 
L 2419 0 
L 2419 1100 
L 313 1100 
L 313 1709 
L 2253 4666 
z
" transform="scale(0.015625)"/>
       </defs>
       <use xlink:href="#DejaVuSans-30"/>
       <use xlink:href="#DejaVuSans-2e" x="63.623047"/>
       <use xlink:href="#DejaVuSans-34" x="95.410156"/>
      </g>
     </g>
    </g>
    <g id="ytick_4">
     <g id="line2d_17">
      <path d="M 47.81 138.609286 
L 709.2 138.609286 
" clip-path="url(#p62c593ac7f)" style="fill: none; stroke: #b0b0b0; stroke-width: 0.8; stroke-linecap: square"/>
     </g>
     <g id="line2d_18">
      <g>
       <use xlink:href="#m9f151eef31" x="47.81" y="138.609286" style="stroke: #000000; stroke-width: 0.8"/>
      </g>
     </g>
     <g id="text_10">
      <!-- 0.6 -->
      <g transform="translate(24.906875 142.408505) scale(0.1 -0.1)">
       <defs>
        <path id="DejaVuSans-36" d="M 2113 2584 
Q 1688 2584 1439 2293 
Q 1191 2003 1191 1497 
Q 1191 994 1439 701 
Q 1688 409 2113 409 
Q 2538 409 2786 701 
Q 3034 994 3034 1497 
Q 3034 2003 2786 2293 
Q 2538 2584 2113 2584 
z
M 3366 4563 
L 3366 3988 
Q 3128 4100 2886 4159 
Q 2644 4219 2406 4219 
Q 1781 4219 1451 3797 
Q 1122 3375 1075 2522 
Q 1259 2794 1537 2939 
Q 1816 3084 2150 3084 
Q 2853 3084 3261 2657 
Q 3669 2231 3669 1497 
Q 3669 778 3244 343 
Q 2819 -91 2113 -91 
Q 1303 -91 875 529 
Q 447 1150 447 2328 
Q 447 3434 972 4092 
Q 1497 4750 2381 4750 
Q 2619 4750 2861 4703 
Q 3103 4656 3366 4563 
z
" transform="scale(0.015625)"/>
       </defs>
       <use xlink:href="#DejaVuSans-30"/>
       <use xlink:href="#DejaVuSans-2e" x="63.623047"/>
       <use xlink:href="#DejaVuSans-36" x="95.410156"/>
      </g>
     </g>
    </g>
    <g id="ytick_5">
     <g id="line2d_19">
      <path d="M 47.81 106.141465 
L 709.2 106.141465 
" clip-path="url(#p62c593ac7f)" style="fill: none; stroke: #b0b0b0; stroke-width: 0.8; stroke-linecap: square"/>
     </g>
     <g id="line2d_20">
      <g>
       <use xlink:href="#m9f151eef31" x="47.81" y="106.141465" style="stroke: #000000; stroke-width: 0.8"/>
      </g>
     </g>
     <g id="text_11">
      <!-- 0.8 -->
      <g transform="translate(24.906875 109.940684) scale(0.1 -0.1)">
       <defs>
        <path id="DejaVuSans-38" d="M 2034 2216 
Q 1584 2216 1326 1975 
Q 1069 1734 1069 1313 
Q 1069 891 1326 650 
Q 1584 409 2034 409 
Q 2484 409 2743 651 
Q 3003 894 3003 1313 
Q 3003 1734 2745 1975 
Q 2488 2216 2034 2216 
z
M 1403 2484 
Q 997 2584 770 2862 
Q 544 3141 544 3541 
Q 544 4100 942 4425 
Q 1341 4750 2034 4750 
Q 2731 4750 3128 4425 
Q 3525 4100 3525 3541 
Q 3525 3141 3298 2862 
Q 3072 2584 2669 2484 
Q 3125 2378 3379 2068 
Q 3634 1759 3634 1313 
Q 3634 634 3220 271 
Q 2806 -91 2034 -91 
Q 1263 -91 848 271 
Q 434 634 434 1313 
Q 434 1759 690 2068 
Q 947 2378 1403 2484 
z
M 1172 3481 
Q 1172 3119 1398 2916 
Q 1625 2713 2034 2713 
Q 2441 2713 2670 2916 
Q 2900 3119 2900 3481 
Q 2900 3844 2670 4047 
Q 2441 4250 2034 4250 
Q 1625 4250 1398 4047 
Q 1172 3844 1172 3481 
z
" transform="scale(0.015625)"/>
       </defs>
       <use xlink:href="#DejaVuSans-30"/>
       <use xlink:href="#DejaVuSans-2e" x="63.623047"/>
       <use xlink:href="#DejaVuSans-38" x="95.410156"/>
      </g>
     </g>
    </g>
    <g id="ytick_6">
     <g id="line2d_21">
      <path d="M 47.81 73.673643 
L 709.2 73.673643 
" clip-path="url(#p62c593ac7f)" style="fill: none; stroke: #b0b0b0; stroke-width: 0.8; stroke-linecap: square"/>
     </g>
     <g id="line2d_22">
      <g>
       <use xlink:href="#m9f151eef31" x="47.81" y="73.673643" style="stroke: #000000; stroke-width: 0.8"/>
      </g>
     </g>
     <g id="text_12">
      <!-- 1.0 -->
      <g transform="translate(24.906875 77.472862) scale(0.1 -0.1)">
       <use xlink:href="#DejaVuSans-31"/>
       <use xlink:href="#DejaVuSans-2e" x="63.623047"/>
       <use xlink:href="#DejaVuSans-30" x="95.410156"/>
      </g>
     </g>
    </g>
    <g id="ytick_7">
     <g id="line2d_23">
      <path d="M 47.81 41.205821 
L 709.2 41.205821 
" clip-path="url(#p62c593ac7f)" style="fill: none; stroke: #b0b0b0; stroke-width: 0.8; stroke-linecap: square"/>
     </g>
     <g id="line2d_24">
      <g>
       <use xlink:href="#m9f151eef31" x="47.81" y="41.205821" style="stroke: #000000; stroke-width: 0.8"/>
      </g>
     </g>
     <g id="text_13">
      <!-- 1.2 -->
      <g transform="translate(24.906875 45.00504) scale(0.1 -0.1)">
       <use xlink:href="#DejaVuSans-31"/>
       <use xlink:href="#DejaVuSans-2e" x="63.623047"/>
       <use xlink:href="#DejaVuSans-32" x="95.410156"/>
      </g>
     </g>
    </g>
    <g id="text_14">
     <!-- Magnitude -->
     <g transform="translate(18.827187 162.229844) rotate(-90) scale(0.1 -0.1)">
      <defs>
       <path id="DejaVuSans-4d" d="M 628 4666 
L 1569 4666 
L 2759 1491 
L 3956 4666 
L 4897 4666 
L 4897 0 
L 4281 0 
L 4281 4097 
L 3078 897 
L 2444 897 
L 1241 4097 
L 1241 0 
L 628 0 
L 628 4666 
z
" transform="scale(0.015625)"/>
       <path id="DejaVuSans-61" d="M 2194 1759 
Q 1497 1759 1228 1600 
Q 959 1441 959 1056 
Q 959 750 1161 570 
Q 1363 391 1709 391 
Q 2188 391 2477 730 
Q 2766 1069 2766 1631 
L 2766 1759 
L 2194 1759 
z
M 3341 1997 
L 3341 0 
L 2766 0 
L 2766 531 
Q 2569 213 2275 61 
Q 1981 -91 1556 -91 
Q 1019 -91 701 211 
Q 384 513 384 1019 
Q 384 1609 779 1909 
Q 1175 2209 1959 2209 
L 2766 2209 
L 2766 2266 
Q 2766 2663 2505 2880 
Q 2244 3097 1772 3097 
Q 1472 3097 1187 3025 
Q 903 2953 641 2809 
L 641 3341 
Q 956 3463 1253 3523 
Q 1550 3584 1831 3584 
Q 2591 3584 2966 3190 
Q 3341 2797 3341 1997 
z
" transform="scale(0.015625)"/>
       <path id="DejaVuSans-67" d="M 2906 1791 
Q 2906 2416 2648 2759 
Q 2391 3103 1925 3103 
Q 1463 3103 1205 2759 
Q 947 2416 947 1791 
Q 947 1169 1205 825 
Q 1463 481 1925 481 
Q 2391 481 2648 825 
Q 2906 1169 2906 1791 
z
M 3481 434 
Q 3481 -459 3084 -895 
Q 2688 -1331 1869 -1331 
Q 1566 -1331 1297 -1286 
Q 1028 -1241 775 -1147 
L 775 -588 
Q 1028 -725 1275 -790 
Q 1522 -856 1778 -856 
Q 2344 -856 2625 -561 
Q 2906 -266 2906 331 
L 2906 616 
Q 2728 306 2450 153 
Q 2172 0 1784 0 
Q 1141 0 747 490 
Q 353 981 353 1791 
Q 353 2603 747 3093 
Q 1141 3584 1784 3584 
Q 2172 3584 2450 3431 
Q 2728 3278 2906 2969 
L 2906 3500 
L 3481 3500 
L 3481 434 
z
" transform="scale(0.015625)"/>
       <path id="DejaVuSans-69" d="M 603 3500 
L 1178 3500 
L 1178 0 
L 603 0 
L 603 3500 
z
M 603 4863 
L 1178 4863 
L 1178 4134 
L 603 4134 
L 603 4863 
z
" transform="scale(0.015625)"/>
       <path id="DejaVuSans-74" d="M 1172 4494 
L 1172 3500 
L 2356 3500 
L 2356 3053 
L 1172 3053 
L 1172 1153 
Q 1172 725 1289 603 
Q 1406 481 1766 481 
L 2356 481 
L 2356 0 
L 1766 0 
Q 1100 0 847 248 
Q 594 497 594 1153 
L 594 3053 
L 172 3053 
L 172 3500 
L 594 3500 
L 594 4494 
L 1172 4494 
z
" transform="scale(0.015625)"/>
       <path id="DejaVuSans-64" d="M 2906 2969 
L 2906 4863 
L 3481 4863 
L 3481 0 
L 2906 0 
L 2906 525 
Q 2725 213 2448 61 
Q 2172 -91 1784 -91 
Q 1150 -91 751 415 
Q 353 922 353 1747 
Q 353 2572 751 3078 
Q 1150 3584 1784 3584 
Q 2172 3584 2448 3432 
Q 2725 3281 2906 2969 
z
M 947 1747 
Q 947 1113 1208 752 
Q 1469 391 1925 391 
Q 2381 391 2643 752 
Q 2906 1113 2906 1747 
Q 2906 2381 2643 2742 
Q 2381 3103 1925 3103 
Q 1469 3103 1208 2742 
Q 947 2381 947 1747 
z
" transform="scale(0.015625)"/>
      </defs>
      <use xlink:href="#DejaVuSans-4d"/>
      <use xlink:href="#DejaVuSans-61" x="86.279297"/>
      <use xlink:href="#DejaVuSans-67" x="147.558594"/>
      <use xlink:href="#DejaVuSans-6e" x="211.035156"/>
      <use xlink:href="#DejaVuSans-69" x="274.414062"/>
      <use xlink:href="#DejaVuSans-74" x="302.197266"/>
      <use xlink:href="#DejaVuSans-75" x="341.40625"/>
      <use xlink:href="#DejaVuSans-64" x="404.785156"/>
      <use xlink:href="#DejaVuSans-65" x="468.261719"/>
     </g>
    </g>
    <g id="text_15">
     <!-- 1e9 -->
     <g transform="translate(47.81 22.44) scale(0.1 -0.1)">
      <defs>
       <path id="DejaVuSans-39" d="M 703 97 
L 703 672 
Q 941 559 1184 500 
Q 1428 441 1663 441 
Q 2288 441 2617 861 
Q 2947 1281 2994 2138 
Q 2813 1869 2534 1725 
Q 2256 1581 1919 1581 
Q 1219 1581 811 2004 
Q 403 2428 403 3163 
Q 403 3881 828 4315 
Q 1253 4750 1959 4750 
Q 2769 4750 3195 4129 
Q 3622 3509 3622 2328 
Q 3622 1225 3098 567 
Q 2575 -91 1691 -91 
Q 1453 -91 1209 -44 
Q 966 3 703 97 
z
M 1959 2075 
Q 2384 2075 2632 2365 
Q 2881 2656 2881 3163 
Q 2881 3666 2632 3958 
Q 2384 4250 1959 4250 
Q 1534 4250 1286 3958 
Q 1038 3666 1038 3163 
Q 1038 2656 1286 2365 
Q 1534 2075 1959 2075 
z
" transform="scale(0.015625)"/>
      </defs>
      <use xlink:href="#DejaVuSans-31"/>
      <use xlink:href="#DejaVuSans-65" x="63.623047"/>
      <use xlink:href="#DejaVuSans-39" x="125.146484"/>
     </g>
    </g>
   </g>
   <g id="line2d_25">
    <path d="M 77.873182 236.010188 
L 78.046936 236.010681 
L 78.224298 236.010054 
L 78.63734 236.010281 
L 78.799671 236.009005 
L 78.800272 236.010141 
L 79.022725 236.010037 
L 79.174836 236.010179 
L 79.301093 236.010546 
L 79.478455 236.010249 
L 79.896306 236.010329 
L 80.058036 236.010916 
L 80.199324 236.00888 
L 80.319569 236.010657 
L 80.667078 236.010515 
L 80.858869 236.01133 
L 80.85947 236.009765 
L 88.264768 236.009864 
L 88.26597 236.011053 
L 88.412068 236.00998 
L 88.60446 236.010196 
L 88.906877 236.010875 
L 88.909883 236.009563 
L 89.025318 236.011605 
L 89.15338 236.00986 
L 89.153981 236.011018 
L 89.155183 236.009527 
L 89.321121 236.010342 
L 89.454594 236.008599 
L 89.455195 236.009762 
L 89.573636 236.011144 
L 89.574238 236.009913 
L 90.023353 236.009551 
L 90.149611 236.011375 
L 90.150813 236.010414 
L 90.292702 236.009239 
L 90.413549 236.010509 
L 90.569867 236.009513 
L 90.687708 236.011455 
L 90.809155 236.009505 
L 90.810358 236.010552 
L 91.848675 236.009618 
L 91.958699 236.011398 
L 91.962306 236.009756 
L 93.341518 236.0109 
L 93.458757 236.009007 
L 93.726904 236.009846 
L 94.217504 236.009364 
L 94.336547 236.01078 
L 94.641969 236.010293 
L 94.815122 236.009893 
L 94.938975 236.011369 
L 94.939576 236.010305 
L 95.139784 236.010231 
L 95.258827 236.011053 
L 95.394704 236.00888 
L 95.395907 236.010699 
L 95.628581 236.010615 
L 95.751832 236.009627 
L 95.890114 236.011666 
L 95.890715 236.010255 
L 96.032003 236.009478 
L 96.14804 236.011742 
L 96.278506 236.0087 
L 96.279708 236.009648 
L 96.401156 236.011525 
L 96.401757 236.010264 
L 96.561082 236.010019 
L 96.765499 236.010511 
L 96.892357 236.008502 
L 97.010198 236.010897 
L 97.012001 236.01002 
L 98.249324 236.009164 
L 98.250526 236.010657 
L 98.386403 236.010137 
L 98.607053 236.010496 
L 98.733311 236.008682 
L 98.734513 236.010207 
L 98.916685 236.010475 
L 99.037531 236.010182 
L 99.255776 236.010504 
L 99.380831 236.009063 
L 99.381432 236.009541 
L 99.510094 236.010625 
L 100.625969 236.011059 
L 100.738399 236.008486 
L 100.739601 236.011034 
L 100.870067 236.009633 
L 100.991515 236.01047 
L 101.109956 236.008868 
L 101.225392 236.010522 
L 101.225993 236.009008 
L 101.400348 236.009759 
L 101.524201 236.011364 
L 101.643243 236.010117 
L 102.020813 236.010055 
L 102.154285 236.010376 
L 102.285954 236.009433 
L 102.397782 236.011659 
L 102.400187 236.009691 
L 102.516223 236.010344 
L 102.516824 236.009875 
L 102.674947 236.010126 
L 102.840284 236.009263 
L 102.958725 236.01016 
L 103.138492 236.010286 
L 103.293608 236.009981 
L 103.635104 236.010251 
L 103.749337 236.00981 
L 103.749938 236.010279 
L 103.90746 236.008928 
L 104.033717 236.010348 
L 104.03492 236.011733 
L 104.150956 236.009175 
L 104.297054 236.010565 
L 104.451569 236.010158 
L 104.732943 236.011428 
L 104.842967 236.008442 
L 104.847777 236.01056 
L 105.36423 236.009933 
L 105.490487 236.010404 
L 105.492892 236.012193 
L 105.619149 236.00854 
L 105.733382 236.010725 
L 105.733983 236.010179 
L 105.912548 236.011203 
L 106.030989 236.009119 
L 106.581111 236.011685 
L 106.69354 236.008822 
L 106.694141 236.010825 
L 106.814386 236.008827 
L 106.932226 236.010852 
L 106.933429 236.010374 
L 107.050668 236.008911 
L 106.934631 236.010944 
L 107.051269 236.009383 
L 107.403587 236.010064 
L 107.405391 236.008539 
L 107.531649 236.009619 
L 107.533452 236.011442 
L 107.658507 236.008807 
L 107.776949 236.010108 
L 107.948899 236.010913 
L 108.088384 236.010953 
L 108.089586 236.009965 
L 108.254923 236.010541 
L 108.377573 236.009657 
L 108.533892 236.010317 
L 108.670971 236.009959 
L 109.489841 236.009818 
L 109.60708 236.009392 
L 109.491043 236.010323 
L 109.608884 236.010669 
L 109.741153 236.00947 
L 110.098281 236.010359 
L 112.609601 236.010278 
L 112.744276 236.0111 
L 112.85911 236.009586 
L 113.005809 236.010912 
L 113.134471 236.009939 
L 113.135073 236.01057 
L 113.136275 236.009399 
L 113.269747 236.010334 
L 113.408029 236.009952 
L 113.721268 236.009658 
L 113.861955 236.010794 
L 113.981598 236.009098 
L 113.9822 236.009554 
L 113.983402 236.008612 
L 114.101242 236.010733 
L 114.410272 236.009912 
L 114.531119 236.00931 
L 114.532922 236.010268 
L 114.721106 236.009733 
L 114.839548 236.010457 
L 114.980836 236.011027 
L 114.982038 236.009961 
L 114.983842 236.011576 
L 115.11551 236.008885 
L 115.238762 236.010419 
L 115.368025 236.010286 
L 115.546589 236.010426 
L 115.672847 236.008335 
L 115.790086 236.011176 
L 115.913337 236.008864 
L 116.036588 236.009982 
L 116.195312 236.008088 
L 116.195913 236.009776 
L 116.335999 236.010855 
L 116.3366 236.009018 
L 120.085844 236.010661 
L 120.206089 236.010907 
L 120.207291 236.010257 
L 120.328138 236.009496 
L 120.469426 236.010687 
L 120.592677 236.008783 
L 120.593879 236.010022 
L 120.759216 236.009447 
L 120.980468 236.010051 
L 121.168651 236.010703 
L 121.170455 236.011895 
L 121.288295 236.009402 
L 121.407338 236.010779 
L 121.410344 236.009157 
L 121.578086 236.010668 
L 121.698932 236.009536 
L 121.699534 236.010003 
L 122.156465 236.011057 
L 123.779775 236.009529 
L 123.959541 236.009271 
L 123.960142 236.010211 
L 124.087001 236.010352 
L 127.996772 236.011174 
L 128.111005 236.009723 
L 128.236661 236.010654 
L 128.365925 236.008822 
L 128.366526 236.009407 
L 128.482563 236.010649 
L 128.657519 236.011157 
L 128.484366 236.008286 
L 128.65812 236.010401 
L 128.878169 236.009075 
L 128.991801 236.011746 
L 128.996611 236.00915 
L 129.189003 236.010797 
L 129.317064 236.008219 
L 129.319469 236.010876 
L 129.320671 236.009584 
L 129.463162 236.010439 
L 129.587615 236.009358 
L 129.701848 236.011567 
L 129.59002 236.008154 
L 129.70245 236.011087 
L 129.85456 236.00949 
L 129.974204 236.010666 
L 130.098056 236.010012 
L 130.259786 236.010265 
L 130.797883 236.009841 
L 130.922337 236.010461 
L 130.922938 236.009537 
L 131.049797 236.009694 
L 131.173048 236.010666 
L 131.299906 236.009443 
L 131.300508 236.010284 
L 131.55663 236.01085 
L 139.170553 236.01025 
L 139.288994 236.008326 
L 139.402025 236.011286 
L 139.403227 236.009996 
L 140.281017 236.010684 
L 140.39525 236.008391 
L 140.397655 236.009973 
L 140.53774 236.010352 
L 140.651372 236.009629 
L 140.651973 236.01113 
L 140.776427 236.009241 
L 140.893666 236.011209 
L 141.009702 236.009712 
L 141.010304 236.010113 
L 142.513969 236.009468 
L 142.516374 236.011581 
L 142.649245 236.010215 
L 142.863281 236.011067 
L 142.863883 236.009806 
L 143.297366 236.010133 
L 143.71582 236.010781 
L 143.839672 236.008971 
L 143.840273 236.009808 
L 144.416248 236.009866 
L 144.532284 236.010898 
L 145.043927 236.010595 
L 145.165375 236.008302 
L 145.165976 236.009982 
L 145.297645 236.011217 
L 145.422098 236.0089 
L 145.423301 236.011004 
L 145.569399 236.008395 
L 145.68303 236.011325 
L 145.684233 236.009173 
L 145.815901 236.009852 
L 146.042563 236.009372 
L 146.197078 236.010588 
L 146.320931 236.008941 
L 146.322133 236.010585 
L 146.799507 236.010082 
L 146.924561 236.009201 
L 147.04661 236.010892 
L 147.686916 236.008573 
L 147.797541 236.011251 
L 147.801149 236.009785 
L 147.929811 236.009551 
L 148.128817 236.009903 
L 148.493159 236.010577 
L 148.615208 236.009408 
L 148.743871 236.011284 
L 148.745073 236.009393 
L 148.902594 236.010078 
L 149.074545 236.010694 
L 149.193587 236.008687 
L 149.194189 236.010121 
L 149.321047 236.012198 
L 149.324655 236.009754 
L 149.975181 236.01014 
L 150.117671 236.008514 
L 150.23972 236.010826 
L 150.441732 236.00848 
L 150.442333 236.010455 
L 150.66118 236.010451 
L 150.792247 236.009366 
L 150.922713 236.010135 
L 151.113301 236.008802 
L 151.23535 236.010865 
L 151.235951 236.010588 
L 151.424736 236.009351 
L 151.79449 236.009625 
L 151.911128 236.010959 
L 151.912932 236.009682 
L 151.914134 236.008814 
L 152.041594 236.010836 
L 152.163042 236.009708 
L 152.282084 236.011707 
L 152.282685 236.010093 
L 152.41736 236.00878 
L 152.538808 236.010416 
L 152.539409 236.01013 
L 152.668071 236.008076 
L 152.669875 236.009223 
L 152.891126 236.009746 
L 153.643259 236.010182 
L 153.767112 236.01128 
L 153.887958 236.008549 
L 154.002191 236.010321 
L 154.002792 236.008854 
L 154.167528 236.010283 
L 154.314829 236.00918 
L 154.456718 236.011605 
L 154.572153 236.009546 
L 154.691797 236.009781 
L 154.692398 236.009319 
L 154.694202 236.008271 
L 154.817453 236.011164 
L 154.934091 236.009352 
L 155.048324 236.010713 
L 155.048925 236.009607 
L 155.181796 236.011024 
L 155.050128 236.008528 
L 155.182999 236.009063 
L 155.620691 236.010386 
L 155.742138 236.009824 
L 155.88523 236.010487 
L 156.015696 236.009103 
L 156.016297 236.009596 
L 156.806909 236.0101 
L 156.971044 236.010656 
L 157.088884 236.009761 
L 159.826866 236.011004 
L 159.940498 236.009607 
L 159.9417 236.00999 
L 160.126878 236.009248 
L 160.242914 236.010668 
L 160.370374 236.008925 
L 160.244117 236.011489 
L 160.371577 236.009947 
L 160.724496 236.009908 
L 160.850153 236.010621 
L 163.099939 236.009666 
L 163.220184 236.010976 
L 163.345841 236.00895 
L 163.347043 236.010054 
L 163.770306 236.008921 
L 163.888748 236.010455 
L 164.019213 236.008846 
L 164.019815 236.010379 
L 164.212808 236.009871 
L 164.399789 236.008271 
L 164.400391 236.009385 
L 164.515225 236.010286 
L 164.515826 236.009912 
L 165.045506 236.010644 
L 165.212647 236.009582 
L 165.668977 236.009092 
L 165.875799 236.009213 
L 165.993038 236.010801 
L 165.995443 236.009264 
L 166.294853 236.009735 
L 166.945379 236.010361 
L 167.069232 236.009097 
L 167.069833 236.010402 
L 167.954837 236.009631 
L 168.106947 236.009022 
L 170.210035 236.010138 
L 170.324268 236.010687 
L 170.21244 236.009352 
L 170.326072 236.009692 
L 170.453532 236.00971 
L 170.597225 236.008739 
L 170.599028 236.010358 
L 170.724083 236.010226 
L 170.877997 236.009754 
L 171.464192 236.009278 
L 171.587443 236.01063 
L 171.854388 236.009058 
L 171.978841 236.010939 
L 172.1057 236.008466 
L 172.106902 236.010169 
L 172.475454 236.009654 
L 172.599306 236.011165 
L 172.715343 236.009667 
L 173.645439 236.009791 
L 173.772899 236.009916 
L 173.774101 236.010725 
L 173.90577 236.009399 
L 174.026015 236.010561 
L 174.026616 236.009587 
L 174.200972 236.009009 
L 174.327229 236.01114 
L 174.438456 236.008836 
L 174.442063 236.009803 
L 174.635658 236.00876 
L 174.636259 236.009771 
L 230.417384 236.008617 
L 230.530414 236.009523 
L 230.531016 236.009106 
L 230.532218 236.0113 
L 230.698156 236.008378 
L 230.819003 236.009415 
L 230.820205 236.008163 
L 230.960892 236.010013 
L 231.098573 236.009357 
L 231.099775 236.010553 
L 231.36191 236.010867 
L 231.475541 236.006541 
L 231.476744 236.008804 
L 231.907221 236.009161 
L 232.026264 236.008813 
L 232.028669 236.010337 
L 232.31365 236.008651 
L 232.437502 236.009448 
L 232.718876 236.008331 
L 232.845133 236.010146 
L 232.845735 236.009319 
L 233.268998 236.008892 
L 233.270801 236.007537 
L 233.398261 236.009566 
L 233.537144 236.007875 
L 233.676629 236.010622 
L 233.677831 236.008164 
L 233.846776 236.010065 
L 234.212321 236.008592 
L 234.328357 236.01 
L 234.330762 236.008972 
L 234.47686 236.008624 
L 234.595903 236.01032 
L 234.713142 236.00857 
L 234.713743 236.009356 
L 234.832786 236.010306 
L 234.716148 236.007927 
L 234.833387 236.010014 
L 235.034196 236.008712 
L 235.161055 236.00976 
L 235.162258 236.008142 
L 235.331202 236.009661 
L 235.448441 236.008719 
L 235.449643 236.009265 
L 235.718391 236.009596 
L 235.85006 236.008219 
L 235.964293 236.009728 
L 235.964894 236.00897 
L 236.082133 236.006864 
L 236.086342 236.009283 
L 236.393568 236.009657 
L 236.516819 236.008728 
L 236.668328 236.011489 
L 236.786168 236.007905 
L 236.901604 236.010992 
L 236.904009 236.009184 
L 237.074155 236.007382 
L 237.074757 236.009829 
L 237.315247 236.009024 
L 237.456535 236.010135 
L 237.567762 236.007958 
L 237.570167 236.008893 
L 237.57197 236.008019 
L 237.692817 236.01035 
L 237.807651 236.008555 
L 237.939921 236.008845 
L 238.642753 236.009876 
L 238.760594 236.007992 
L 238.761796 236.009704 
L 238.89106 236.009716 
L 238.762999 236.00853 
L 238.891661 236.009104 
L 239.039562 236.00777 
L 239.040164 236.009263 
L 239.780273 236.009291 
L 239.90653 236.009177 
L 239.907732 236.010613 
L 240.046014 236.008829 
L 240.047217 236.007902 
L 240.167462 236.009256 
L 240.341817 236.009622 
L 240.736823 236.008594 
L 240.849853 236.009959 
L 240.738025 236.00808 
L 240.852859 236.008628 
L 241.02 236.009126 
L 241.225018 236.009238 
L 241.226822 236.007041 
L 241.350674 236.010033 
L 241.467913 236.007822 
L 241.592367 236.010373 
L 241.70179 236.007191 
L 241.705999 236.008746 
L 241.987372 236.009316 
L 242.139483 236.00953 
L 242.257924 236.008835 
L 242.407028 236.01024 
L 242.40823 236.008707 
L 242.60423 236.010105 
L 242.721469 236.008086 
L 242.835702 236.009862 
L 242.836303 236.00916 
L 244.642385 236.008472 
L 244.756618 236.010074 
L 244.757219 236.008798 
L 245.648236 236.008576 
L 245.76788 236.010103 
L 245.65004 236.007765 
L 245.768481 236.009037 
L 246.293351 236.00888 
L 246.296959 236.007132 
L 246.409388 236.010369 
L 246.52302 236.008008 
L 246.523621 236.008425 
L 246.855497 236.00984 
L 246.96973 236.008635 
L 246.970331 236.009219 
L 247.671361 236.008655 
L 247.813851 236.006556 
L 247.928084 236.009358 
L 247.928685 236.008677 
L 247.929888 236.009754 
L 248.062759 236.007982 
L 248.17639 236.008961 
L 248.176992 236.008152 
L 248.326096 236.008171 
L 248.178194 236.009363 
L 248.326697 236.009153 
L 248.470991 236.009557 
L 248.586426 236.008627 
L 248.707874 236.009525 
L 248.858782 236.008471 
L 248.979628 236.009569 
L 249.217713 236.007881 
L 249.335554 236.00991 
L 249.336155 236.009144 
L 249.461811 236.00964 
L 251.829438 236.010654 
L 251.94307 236.00807 
L 252.062714 236.009412 
L 252.063916 236.008531 
L 252.204603 236.01101 
L 252.316431 236.007548 
L 252.32064 236.008772 
L 252.468541 236.011114 
L 252.469743 236.009184 
L 252.657326 236.00846 
L 252.989804 236.009155 
L 253.11065 236.007836 
L 253.112454 236.00906 
L 253.237509 236.00952 
L 253.238711 236.007242 
L 253.450944 236.008874 
L 253.648747 236.007894 
L 253.769594 236.010035 
L 253.770195 236.009737 
L 253.940342 236.0076 
L 254.053372 236.010397 
L 254.055777 236.009267 
L 254.384648 236.009451 
L 254.505494 236.008177 
L 254.637162 236.008924 
L 254.781457 236.008839 
L 255.045996 236.00872 
L 255.168045 236.008305 
L 255.297909 236.009965 
L 255.298511 236.009572 
L 255.415148 236.007381 
L 255.418756 236.009666 
L 255.42056 236.007453 
L 255.575075 236.010284 
L 255.69051 236.008554 
L 255.691712 236.009822 
L 255.993528 236.008891 
L 256.173895 236.00923 
L 256.39695 236.008647 
L 257.208605 236.008025 
L 257.329451 236.010074 
L 257.446089 236.008005 
L 257.44669 236.0084 
L 257.696199 236.009275 
L 257.81945 236.007846 
L 257.820052 236.00867 
L 258.812074 236.008955 
L 258.935325 236.009727 
L 258.936528 236.008562 
L 259.088638 236.009033 
L 259.524527 236.008764 
L 259.52633 236.007162 
L 259.671827 236.009322 
L 259.841974 236.007574 
L 259.961016 236.009875 
L 260.08066 236.007694 
L 260.081262 236.008088 
L 260.196697 236.009527 
L 260.197298 236.009193 
L 260.337985 236.00731 
L 260.338586 236.009315 
L 260.550819 236.009125 
L 262.400189 236.008138 
L 262.512619 236.009829 
L 262.629858 236.008322 
L 262.823452 236.007781 
L 262.948507 236.010017 
L 262.950311 236.008405 
L 263.393414 236.009377 
L 263.514261 236.008268 
L 263.71507 236.008822 
L 263.845536 236.006533 
L 263.956162 236.009668 
L 263.958567 236.008156 
L 264.085425 236.008493 
L 264.268799 236.008064 
L 264.381228 236.009956 
L 264.383633 236.008682 
L 264.508087 236.00732 
L 264.38724 236.010789 
L 264.509289 236.008746 
L 264.826737 236.008578 
L 264.953595 236.007786 
L 265.066626 236.010265 
L 265.069031 236.009168 
L 265.187472 236.007648 
L 265.189276 236.00922 
L 265.335374 236.008003 
L 265.472453 236.009919 
L 265.58849 236.008683 
L 265.825974 236.009377 
L 265.826575 236.008123 
L 266.197531 236.008721 
L 266.317776 236.007152 
L 266.439224 236.00863 
L 266.439825 236.007939 
L 266.955076 236.007632 
L 267.082536 236.00978 
L 267.197971 236.007909 
L 267.326633 236.009593 
L 267.199173 236.007061 
L 267.327234 236.008717 
L 267.448081 236.007333 
L 267.449283 236.008724 
L 267.597185 236.009608 
L 267.597786 236.009024 
L 267.716829 236.007331 
L 267.892988 236.007928 
L 269.162175 236.007977 
L 269.292641 236.009133 
L 269.420101 236.007837 
L 269.54696 236.010082 
L 269.670211 236.008235 
L 269.794665 236.006942 
L 269.79707 236.008737 
L 269.943168 236.009799 
L 270.053793 236.007609 
L 270.056799 236.009065 
L 270.058002 236.007634 
L 270.214922 236.009656 
L 270.334566 236.007961 
L 270.677264 236.008244 
L 270.8907 236.010345 
L 271.003129 236.007539 
L 271.00373 236.008729 
L 271.005534 236.007353 
L 271.122773 236.00891 
L 271.241214 236.006932 
L 271.242417 236.008638 
L 271.243619 236.007708 
L 271.364465 236.008416 
L 271.619385 236.008209 
L 271.738428 236.008187 
L 271.857471 236.010407 
L 271.858673 236.007692 
L 272.008378 236.008397 
L 272.287347 236.007837 
L 272.423224 236.009422 
L 272.564512 236.007558 
L 272.695579 236.00865 
L 272.811616 236.007549 
L 272.812818 236.007982 
L 272.928254 236.008805 
L 272.929456 236.007853 
L 273.091787 236.008437 
L 273.252916 236.008092 
L 273.377369 236.009016 
L 273.37797 236.007661 
L 273.503025 236.007509 
L 273.380375 236.01008 
L 273.503627 236.008104 
L 273.720669 236.009554 
L 273.72127 236.008503 
L 273.848129 236.007664 
L 273.84873 236.008317 
L 274.004448 236.008512 
L 274.161969 236.008605 
L 276.731608 236.009093 
L 276.847043 236.007156 
L 276.847644 236.007565 
L 276.995546 236.008687 
L 277.184932 236.008628 
L 277.324416 236.008444 
L 277.631643 236.008022 
L 277.633446 236.009011 
L 277.754894 236.007623 
L 277.911814 236.008425 
L 278.210623 236.007813 
L 278.90564 236.009508 
L 279.019873 236.007792 
L 280.563821 236.007734 
L 280.566827 236.006535 
L 280.679256 236.008911 
L 280.799501 236.007058 
L 280.800102 236.007806 
L 281.320764 236.006881 
L 281.437402 236.010578 
L 281.439807 236.007961 
L 283.215828 236.007537 
L 283.361925 236.006609 
L 283.21703 236.008616 
L 283.363128 236.008427 
L 283.483974 236.008241 
L 283.61444 236.00775 
L 283.786391 236.009765 
L 283.786992 236.007655 
L 283.904832 236.00753 
L 284.026881 236.00797 
L 284.151335 236.00652 
L 284.307052 236.009114 
L 284.4285 236.007657 
L 284.577003 236.008895 
L 284.577604 236.007705 
L 292.263674 236.007834 
L 292.266079 236.00602 
L 292.375502 236.007787 
L 292.51679 236.007572 
L 292.517391 236.008236 
L 292.734434 236.007513 
L 292.882937 236.007473 
L 293.028433 236.006595 
L 293.19377 236.007639 
L 293.317022 236.006606 
L 293.461316 236.007988 
L 293.318224 236.00452 
L 293.462518 236.006405 
L 293.464322 236.008659 
L 293.623045 236.005539 
L 293.737278 236.008837 
L 293.73788 236.008237 
L 293.889388 236.007298 
L 294.070959 236.008322 
L 294.191204 236.006111 
L 294.192406 236.007211 
L 294.557952 236.00729 
L 294.686614 236.00695 
L 294.559154 236.008234 
L 294.687215 236.008177 
L 295.114085 236.007711 
L 295.228919 236.005947 
L 295.231926 236.007964 
L 295.233729 236.009039 
L 295.358183 236.007076 
L 295.471815 236.008228 
L 295.36179 236.005947 
L 295.473618 236.007634 
L 295.593262 236.006869 
L 295.475422 236.008477 
L 295.593864 236.007363 
L 295.794673 236.008226 
L 295.934157 236.004862 
L 295.934759 236.007343 
L 296.054402 236.008333 
L 296.055605 236.006874 
L 344.212586 236.00171 
L 344.323813 236.003632 
L 344.213788 236.000845 
L 344.325015 236.003068 
L 344.437444 236.000949 
L 344.439248 236.002737 
L 350.381162 236.00089 
L 350.496597 236.000223 
L 350.384168 236.002484 
L 350.497199 236.000776 
L 350.884388 236.000636 
L 350.886793 235.999203 
L 351.003431 236.000563 
L 351.352142 235.999263 
L 351.352743 236.001208 
L 351.617282 236.001837 
L 351.731515 235.999022 
L 351.732718 235.99942 
L 351.855368 236.001968 
L 351.85657 236.000493 
L 351.98403 235.998983 
L 352.182434 236.000914 
L 352.453587 235.998672 
L 352.454188 236.000208 
L 353.204518 236.000632 
L 353.318751 235.998093 
L 353.440199 236.001362 
L 353.441401 236.000761 
L 353.55864 235.999119 
L 353.559241 236.000032 
L 353.786505 236.000621 
L 353.903744 235.997664 
L 353.904946 235.999478 
L 354.19113 235.999187 
L 354.314982 236.000652 
L 354.315583 235.999081 
L 355.166919 235.996939 
L 355.278747 235.999784 
L 355.27995 235.998921 
L 357.416105 235.996984 
L 357.527933 235.998907 
L 357.529135 235.997533 
L 357.656595 236.00053 
L 357.657797 235.99663 
L 357.874239 235.998266 
L 361.295814 235.995155 
L 361.405839 235.997883 
L 361.407642 235.996691 
L 361.408845 235.998061 
L 361.551937 235.995434 
L 361.689016 235.997391 
L 361.80866 235.995059 
L 361.933715 235.996993 
L 361.934316 235.996473 
L 362.054561 235.994257 
L 362.056966 235.99613 
L 362.231322 235.994933 
L 362.231923 235.996043 
L 362.356377 235.995248 
L 362.356978 235.99492 
L 363.652619 235.994715 
L 363.654423 235.996622 
L 363.772263 235.993688 
L 363.891907 235.996663 
L 364.016962 235.993072 
L 364.018766 235.994923 
L 364.02057 235.993472 
L 364.134201 235.995895 
L 364.252643 235.993547 
L 364.389722 235.995339 
L 364.505158 235.993185 
L 364.50636 235.995066 
L 364.508164 235.993309 
L 364.648249 235.995763 
L 364.758274 235.990815 
L 364.764286 235.994464 
L 364.88393 235.99373 
L 365.042653 235.992259 
L 365.043255 235.993726 
L 365.044457 235.992352 
L 365.161095 235.995573 
L 365.279536 235.991778 
L 365.164101 235.997087 
L 365.283745 235.994657 
L 365.402788 235.995189 
L 365.286751 235.993072 
L 365.404591 235.994164 
L 366.747128 235.991356 
L 367.006257 235.989401 
L 367.006858 235.991164 
L 367.008662 235.989943 
L 367.124698 235.993194 
L 367.238931 235.990656 
L 367.128306 235.995082 
L 367.239532 235.992337 
L 367.389238 235.993566 
L 367.50347 235.991387 
L 367.945371 235.991952 
L 368.075837 235.990623 
L 368.188868 235.990701 
L 368.07704 235.992774 
L 368.19007 235.991232 
L 368.296487 235.993222 
L 368.303702 235.991466 
L 368.425751 235.98916 
L 368.542389 235.994005 
L 368.545395 235.992025 
L 368.880879 235.989912 
L 368.996314 235.990842 
L 368.882682 235.989138 
L 368.996915 235.989968 
L 369.111148 235.98877 
L 368.998719 235.991677 
L 369.114154 235.991148 
L 369.115357 235.989403 
L 369.275884 235.990751 
L 369.387712 235.989131 
L 369.280694 235.991815 
L 369.388313 235.9908 
L 369.540423 235.987145 
L 369.640227 235.992287 
L 369.652251 235.988121 
L 369.653454 235.991627 
L 369.795944 235.988032 
L 369.900558 235.993131 
L 369.909576 235.989352 
L 370.09776 235.988113 
L 370.218005 235.991606 
L 370.331035 235.987483 
L 370.445869 235.990736 
L 370.561906 235.986789 
L 370.719427 235.990108 
L 370.720028 235.988495 
L 370.834261 235.987368 
L 370.722433 235.99096 
L 370.834862 235.987849 
L 370.95631 235.992077 
L 370.836666 235.986358 
L 370.957512 235.990066 
L 371.080162 235.986151 
L 371.081365 235.986969 
L 371.211831 235.988939 
L 371.212432 235.987462 
L 371.32426 235.985287 
L 371.213635 235.990821 
L 371.327868 235.986924 
L 371.4421 235.989738 
L 371.553327 235.986114 
L 371.555131 235.9882 
L 371.668161 235.990032 
L 371.557536 235.985999 
L 371.669364 235.988047 
L 371.798627 235.98695 
L 371.965768 235.985463 
L 371.967572 235.988372 
L 372.585632 235.985539 
L 372.709484 235.982646 
L 372.817104 235.987646 
L 372.821914 235.985271 
L 372.939754 235.982542 
L 372.82492 235.989739 
L 372.943962 235.986533 
L 373.093066 235.984481 
L 373.205496 235.986817 
L 373.09487 235.98322 
L 373.206698 235.986163 
L 373.417728 235.983807 
L 373.519335 235.988253 
L 373.422538 235.981421 
L 373.53136 235.98487 
L 374.139199 235.983645 
L 374.256438 235.986579 
L 374.141003 235.981563 
L 374.258242 235.983594 
L 374.414561 235.979945 
L 374.260046 235.98716 
L 374.416364 235.985929 
L 374.417567 235.981788 
L 374.73321 235.983626 
L 374.845639 235.980678 
L 374.938228 235.987817 
L 374.957467 235.983345 
L 375.069897 235.978841 
L 374.962277 235.984319 
L 375.071099 235.981109 
L 375.220804 235.983809 
L 375.329626 235.978211 
L 375.332632 235.979584 
L 375.43965 235.984961 
L 375.335037 235.978468 
L 375.445061 235.979438 
L 375.60619 235.977197 
L 375.446865 235.982547 
L 375.607994 235.979236 
L 375.717417 235.981992 
L 375.719822 235.979701 
L 375.721024 235.98058 
L 375.844275 235.978645 
L 375.9543 235.984865 
L 375.959711 235.982487 
L 376.069134 235.976078 
L 376.071539 235.979321 
L 376.072741 235.978627 
L 376.189379 235.980967 
L 376.191183 235.983398 
L 376.303011 235.976821 
L 376.431673 235.981283 
L 376.432875 235.979498 
L 376.562139 235.978638 
L 376.56274 235.979392 
L 376.830887 235.977156 
L 376.942715 235.980953 
L 376.944519 235.976936 
L 377.353352 235.976167 
L 377.464579 235.972849 
L 377.365978 235.982064 
L 377.46518 235.975744 
L 377.574603 235.980061 
L 377.469389 235.973851 
L 377.580615 235.975328 
L 377.699658 235.974206 
L 377.586628 235.980723 
L 377.700259 235.976949 
L 377.824713 235.977598 
L 377.701462 235.973236 
L 377.825314 235.973708 
L 377.934136 235.972782 
L 377.831327 235.979285 
L 377.937142 235.977279 
L 378.064001 235.9724 
L 378.064602 235.973163 
L 378.068209 235.969394 
L 378.177633 235.975189 
L 378.289461 235.970703 
L 378.178835 235.977664 
L 378.291865 235.974319 
L 378.484258 235.934824 
L 378.55881 236.005361 
L 378.535362 235.90637 
L 378.595484 235.978817 
L 379.416759 235.96828 
L 379.521372 235.974424 
L 379.422771 235.966099 
L 379.527986 235.973032 
L 379.636807 235.966244 
L 379.642219 235.967834 
L 379.749237 235.970503 
L 379.66266 235.962735 
L 379.754648 235.967158 
L 379.86347 235.969118 
L 379.758856 235.969929 
L 379.866476 235.971806 
L 379.979506 235.969727 
L 379.869482 235.968834 
L 379.981911 235.966923 
L 380.067886 235.958189 
L 379.983715 235.969313 
L 380.09434 235.963419 
L 380.211579 235.975341 
L 380.212782 235.96823 
L 381.87457 235.954654 
L 381.92868 235.976861 
L 381.927478 235.942048 
L 381.985797 235.960497 
L 381.9876 235.942249 
L 382.080189 235.970339 
L 382.096422 235.957463 
L 382.187808 236.000716 
L 382.179992 235.859334 
L 382.207048 235.986763 
L 382.207649 235.856223 
L 382.250937 236.006769 
L 382.317673 235.946998 
L 382.320078 235.998617 
L 382.386814 235.927442 
L 382.428299 235.946084 
L 382.442127 235.937629 
L 382.499845 235.965207 
L 382.538924 235.955051 
L 382.623697 235.985859 
L 382.638126 235.885783 
L 382.646544 235.905846 
L 382.665783 235.884382 
L 382.734924 235.982117 
L 382.751157 235.961369 
L 382.782421 235.984081 
L 382.761979 235.933341 
L 382.861782 235.958327 
L 382.947157 235.91749 
L 382.867193 235.967286 
L 382.97361 235.936885 
L 383.055377 235.977509 
L 382.989242 235.921761 
L 383.084837 235.941062 
L 383.085438 235.930388 
L 383.108886 235.978493 
L 383.196064 235.939548 
L 383.295867 235.956734 
L 383.212297 235.935884 
L 383.308493 235.948116 
L 383.524333 235.943698 
L 383.526738 235.949084 
L 383.573634 235.9583 
L 383.535155 235.941503 
L 383.636762 235.941274 
L 383.734161 235.90297 
L 383.688468 235.958671 
L 383.747388 235.931054 
L 383.817731 235.97671 
L 383.759413 235.90788 
L 383.859216 235.962748 
L 383.9494 235.923256 
L 383.865829 235.966006 
L 383.971044 235.933684 
L 384.011326 235.916553 
L 384.082872 235.949111 
L 384.093093 235.934406 
L 384.121952 235.958557 
L 384.194099 235.941363 
L 384.196504 235.951665 
L 384.289694 235.91008 
L 384.303522 235.922546 
L 384.342 235.916517 
L 384.40092 235.949633 
L 384.412344 235.945277 
L 384.519963 235.949658 
L 384.413546 235.939799 
L 384.522969 235.933802 
L 384.628184 235.894378 
L 384.587902 235.953056 
L 384.634196 235.92666 
L 384.726184 235.963214 
L 384.683497 235.896195 
L 384.745423 235.941259 
L 384.845226 235.886261 
L 384.811558 235.993365 
L 384.85665 235.928398 
L 384.961864 235.958603 
L 384.860858 235.890752 
L 384.967876 235.939153 
L 385.006956 235.84981 
L 384.987717 235.976516 
L 385.079103 235.932017 
L 385.096539 235.898326 
L 385.098342 235.956 
L 385.189729 235.934793 
L 385.296146 235.906409 
L 385.211974 235.946856 
L 385.304563 235.915873 
L 385.319593 235.894772 
L 385.416391 235.933735 
L 385.486133 235.957454 
L 385.526415 235.899514 
L 385.534231 235.962517 
L 385.5679 235.879239 
L 385.637041 235.896988 
L 385.736844 235.905889 
L 385.641249 235.921245 
L 385.738648 235.941308 
L 385.817408 236.002063 
L 385.842059 235.843243 
L 385.845065 235.953477 
L 385.924426 235.797984 
L 385.853482 235.974841 
L 385.956291 235.898988 
L 385.961101 235.862818 
L 386.036254 235.947688 
L 386.066316 235.913508 
L 386.072328 235.932555 
L 386.160107 235.872749 
L 386.17634 235.884161 
L 386.278548 235.932953 
L 386.18596 235.876332 
L 386.29418 235.929857 
L 386.4018 235.868115 
L 386.315223 235.935112 
L 386.40661 235.876157 
L 386.51002 235.910974 
L 386.431861 235.868505 
L 386.518438 235.908365 
L 386.626057 235.886085 
L 386.537076 235.921216 
L 386.630266 235.895944 
L 386.633272 235.913561 
L 386.703615 235.849252 
L 386.739689 235.88467 
L 386.751112 235.857538 
L 386.847909 235.905648 
L 386.850314 235.887619 
L 386.965148 235.854519 
L 386.854523 235.90033 
L 386.966351 235.866355 
L 387.037295 235.926075 
L 387.060743 235.832096 
L 387.076375 235.892907 
L 387.16716 235.814738 
L 387.085393 235.921741 
L 387.187001 235.894141 
L 387.226681 235.932507 
L 387.202031 235.806262 
L 387.296424 235.885494 
L 387.376387 235.818441 
L 387.307847 235.917145 
L 387.40765 235.877082 
L 387.410657 235.820709 
L 387.52008 235.856727 
L 387.60846 235.872395 
L 387.522485 235.835992 
L 387.630705 235.855148 
L 387.713073 235.829052 
L 387.654754 235.880528 
L 387.741932 235.840758 
L 387.81949 235.864667 
L 387.842938 235.798069 
L 387.852557 235.842729 
L 387.868791 235.794458 
L 387.95657 235.864547 
L 387.963183 235.855414 
L 388.071404 235.801395 
L 387.975208 235.86239 
L 388.078017 235.812328 
L 388.214495 235.856752 
L 388.086434 235.792157 
L 388.216299 235.814512 
L 388.326323 235.529082 
L 388.299869 235.891189 
L 388.328127 235.63496 
L 388.4129 235.987806 
L 388.406888 235.314854 
L 388.439354 235.96558 
L 388.443562 235.54949 
L 388.44236 236.008554 
L 388.550581 235.76052 
L 388.551783 235.65603 
L 388.652789 235.874038 
L 388.661206 235.808009 
L 388.706298 235.926139 
L 388.766421 235.6404 
L 388.770028 235.761869 
L 388.868629 235.336383 
L 388.862016 235.853029 
L 388.881856 235.548616 
L 388.978052 235.97667 
L 388.894482 235.346066 
L 388.993083 235.83324 
L 389.0995 235.471176 
L 389.012322 235.948007 
L 389.112125 235.573899 
L 389.222751 235.886997 
L 389.131966 235.393397 
L 389.224555 235.836977 
L 389.33037 235.348559 
L 389.307524 235.951612 
L 389.335781 235.611642 
L 389.424763 235.987989 
L 389.437389 234.997118 
L 389.445806 235.669232 
L 389.512542 233.663638 
L 389.451217 236.000995 
L 389.557033 234.902032 
L 389.656836 235.991563 
L 389.570861 234.285233 
L 389.668259 235.562593 
L 389.68329 235.97951 
L 389.781891 234.640418 
L 389.784897 234.977693 
L 389.870271 234.031982 
L 389.891915 234.368554 
L 389.902737 233.709199 
L 389.988111 235.781113 
L 389.998933 234.816888 
L 390.004946 235.638251 
L 390.09032 233.214132 
L 390.108958 233.478872 
L 390.215375 235.961264 
L 390.131804 233.458756 
L 390.221387 234.127755 
L 390.225596 234.597313 
L 390.339828 227.40534 
L 390.420393 234.79689 
L 390.434822 213.062071 
L 390.439031 216.412996 
L 390.543644 49.935826 
L 390.484724 233.40587 
L 390.55146 65.270028 
L 390.646454 232.893762 
L 390.560478 35.467273 
L 390.662687 212.076476 
L 390.668098 178.364819 
L 390.692748 235.259 
L 390.77211 222.890042 
L 390.778122 232.400724 
L 390.793754 222.876445 
L 390.883337 225.95017 
L 390.895962 226.974786 
L 390.997569 223.780543 
L 391.004784 225.218378 
L 391.094968 221.449836 
L 391.106993 222.025187 
L 391.238661 226.052445 
L 391.116612 221.7499 
L 391.239262 225.682382 
L 391.239863 225.492421 
L 391.343274 227.475217 
L 391.344477 227.399048 
L 391.491176 232.251029 
L 391.345679 227.15494 
L 391.49839 231.650545 
L 391.574746 228.993005 
L 391.555507 232.8702 
L 391.613826 229.921907 
L 391.615028 231.663106 
L 391.713629 228.270251 
L 391.720844 228.746688 
L 391.839285 224.215923 
L 391.844095 224.846845 
L 391.943298 222.248172 
L 391.947506 222.349453 
L 391.951113 223.066727 
L 392.036488 221.137401 
L 392.044303 221.618753 
L 392.151322 219.520618 
L 392.156131 219.846617 
L 392.156733 219.847696 
L 392.157334 219.651275 
L 392.190401 219.378541 
L 392.239702 220.105458 
L 392.267959 219.807454 
L 392.281788 220.031512 
L 392.36656 219.655262 
L 392.378585 219.698115 
L 392.395419 219.56691 
L 392.485002 220.127602 
L 392.485603 220.07312 
L 392.613664 221.572087 
L 392.614867 221.482279 
L 392.750143 222.689087 
L 392.628094 221.466715 
L 392.751946 222.477002 
L 392.752547 221.892182 
L 392.860768 224.135918 
L 392.861369 224.070527 
L 392.861971 224.058332 
L 392.931713 224.872978 
L 392.933516 224.847529 
L 393.11208 226.609003 
L 393.113884 226.608014 
L 393.168596 227.359861 
L 393.309884 228.473489 
L 393.627331 230.971908 
L 393.311086 228.465238 
L 393.627932 230.968158 
L 393.628533 230.947578 
L 393.71992 231.578584 
L 393.721723 231.523825 
L 393.838361 232.487202 
L 393.839564 232.417677 
L 393.958005 232.769981 
L 393.958606 232.738868 
L 393.959208 232.698025 
L 394.059612 233.321388 
L 394.061416 233.30123 
L 394.181661 233.867158 
L 394.062618 233.295255 
L 394.186471 233.854532 
L 394.313329 234.057042 
L 394.189477 233.846435 
L 394.313931 234.049465 
L 394.314532 234.021369 
L 394.414335 234.502166 
L 394.415538 234.475839 
L 394.50993 234.682237 
L 394.529771 234.665675 
L 394.57847 234.630558 
L 394.635587 234.713291 
L 394.63739 234.705183 
L 394.699918 234.917789 
L 394.701721 234.905453 
L 394.806936 235.163964 
L 394.819562 235.147037 
L 394.916359 235.074984 
L 394.822568 235.153783 
L 394.944015 235.107343 
L 394.948825 235.106494 
L 395.087107 235.483444 
L 395.19653 235.339313 
L 395.105745 235.51738 
L 395.198334 235.343311 
L 395.307757 235.535449 
L 395.221782 235.325913 
L 395.309561 235.521769 
L 395.310763 235.456313 
L 395.417781 235.745846 
L 395.418382 235.715224 
L 395.557266 235.547076 
L 395.425597 235.737 
L 395.618591 235.657957 
L 395.72621 235.877911 
L 395.620996 235.643291 
L 395.737633 235.873584 
L 395.872308 235.72389 
L 395.747854 235.879845 
L 395.87832 235.72678 
L 395.896357 235.71743 
L 396.00097 235.901946 
L 396.053878 236.001745 
L 396.112798 235.846659 
L 396.117608 235.904968 
L 396.189755 235.802926 
L 396.223424 235.846894 
L 396.237853 235.784224 
L 396.325632 235.986319 
L 396.333448 235.923763 
L 396.400184 236.008732 
L 396.348479 235.907898 
L 396.442871 235.924924 
L 396.54508 235.852159 
L 396.446478 235.926699 
L 396.5553 235.855796 
L 396.558908 235.851807 
L 396.676147 235.984542 
L 396.713423 236.001042 
L 396.678552 235.972898 
L 396.770539 235.924948 
L 396.843287 235.878483 
L 396.772343 235.926196 
L 396.88357 235.897712 
L 397.003214 235.975815 
L 396.887177 235.884204 
L 397.008023 235.973651 
L 397.127667 235.915742 
L 397.009827 235.982522 
L 397.128269 235.919878 
L 397.231679 235.949436 
L 397.202219 235.886761 
L 397.240096 235.936209 
L 397.241299 235.915539 
L 397.314648 235.981316 
L 397.348918 235.966157 
L 397.362747 235.987317 
L 397.454133 235.924227 
L 397.458341 235.930898 
L 397.567765 235.943494 
L 397.480587 235.922941 
L 397.569568 235.934822 
L 397.656746 235.94023 
L 397.571973 235.947883 
L 397.678991 235.950352 
L 397.775789 235.964055 
L 397.680795 235.944976 
L 397.796832 235.945014 
L 397.904451 235.926636 
L 397.798034 235.956439 
L 397.914071 235.935338 
L 398.024696 235.993661 
L 397.918279 235.927925 
L 398.028303 235.967673 
L 398.135322 235.91048 
L 398.053555 235.98858 
L 398.140131 235.928638 
L 398.212279 235.924652 
L 398.211076 235.964954 
L 398.24715 235.945701 
L 398.318696 235.978455 
L 398.251959 235.941676 
L 398.358376 235.967785 
L 398.423309 235.871696 
L 398.45337 235.984066 
L 398.471407 235.927903 
L 398.568805 235.984515 
L 398.476818 235.891349 
L 398.583235 235.976281 
L 398.594658 235.984172 
L 398.695664 235.946787 
L 398.810498 235.96982 
L 398.814106 235.947253 
L 398.896473 235.811878 
L 398.841762 236.007615 
L 398.924731 235.950009 
L 398.933148 235.897077 
L 398.932547 235.998388 
L 399.038363 235.927076 
L 399.148387 235.979634 
L 399.043173 235.925557 
L 399.150792 235.974753 
L 399.273442 235.941167 
L 399.160412 235.980656 
L 399.277651 235.947934 
L 399.396092 235.972546 
L 399.286068 235.937909 
L 399.397295 235.964988 
L 399.496497 235.952195 
L 399.424951 235.975412 
L 399.509123 235.960487 
L 399.685883 235.95739 
L 399.796508 235.97236 
L 399.6943 235.955254 
L 399.798312 235.968752 
L 399.899919 235.949926 
L 399.811539 235.970092 
L 399.91014 235.957448 
L 400.018962 235.95803 
L 400.023171 235.961366 
L 400.114557 235.97524 
L 400.024974 235.96078 
L 400.134999 235.967965 
L 400.139808 235.97301 
L 400.297329 235.950946 
L 400.397734 235.97909 
L 400.41036 235.977499 
L 400.600347 235.946434 
L 400.600948 235.949988 
L 400.701353 235.983778 
L 400.623194 235.946359 
L 400.715783 235.974981 
L 400.831819 235.958188 
L 400.833022 235.956731 
L 400.947856 235.960044 
L 400.835427 235.960889 
L 400.953267 235.966941 
L 401.048862 235.982494 
L 400.959279 235.96149 
L 401.065696 235.976427 
L 401.163095 235.952219 
L 401.178726 235.957435 
L 401.383744 235.968591 
L 401.491364 235.96706 
L 401.442063 235.957143 
L 401.49437 235.961702 
L 401.633854 235.972117 
L 401.495572 235.964821 
L 401.635658 235.976663 
L 401.63686 235.971878 
L 401.781756 235.968569 
L 401.879154 235.968001 
L 401.78356 235.969017 
L 401.892983 235.974366 
L 402.016835 235.968661 
L 402.01924 235.971267 
L 402.025252 235.967205 
L 402.131669 235.973865 
L 402.245902 235.970873 
L 402.248908 235.972893 
L 402.363141 235.973704 
L 402.253718 235.967755 
L 402.364344 235.972606 
L 402.473166 235.963314 
L 402.369153 235.975589 
L 402.476773 235.974156 
L 402.562748 236.009302 
L 402.576576 235.924459 
L 402.584993 235.983014 
L 402.585595 235.916402 
L 402.641509 236.009107 
L 402.695619 235.98034 
L 402.698024 235.984913 
L 402.817067 235.970853 
L 402.925888 235.977354 
L 402.818269 235.968034 
L 402.929496 235.972377 
L 403.041324 235.969445 
L 402.933103 235.97621 
L 403.046735 235.971775 
L 403.051545 235.9696 
L 403.161569 235.981912 
L 403.258968 235.966935 
L 403.273998 235.969765 
L 403.389434 235.979673 
L 403.277004 235.968294 
L 403.391838 235.977783 
L 403.537936 235.969563 
L 403.394845 235.981547 
L 403.53974 235.972419 
L 403.653372 235.980948 
L 403.757985 235.97128 
L 403.7652 235.973226 
L 403.881236 235.981955 
L 403.767605 235.970828 
L 403.88304 235.980557 
L 403.887248 235.983012 
L 404.004488 235.972115 
L 404.115714 235.979044 
L 404.008095 235.970295 
L 404.117518 235.977364 
L 404.232352 235.977993 
L 404.122328 235.983427 
L 404.235358 235.980855 
L 404.335763 235.976076 
L 404.241972 235.975653 
L 404.345984 235.972202 
L 404.347787 235.973827 
L 404.469235 235.979929 
L 404.577456 235.979834 
L 404.582265 235.975219 
L 404.694695 235.981006 
L 404.699504 235.976956 
L 404.808928 235.979796 
L 404.701909 235.979116 
L 404.812535 235.983945 
L 404.814339 235.980113 
L 404.955025 235.978569 
L 405.050019 235.977852 
L 405.066252 235.982206 
L 405.191307 235.979309 
L 405.068657 235.980443 
L 405.19251 235.977325 
L 405.422178 235.983871 
L 405.534006 235.976579 
L 405.535208 235.979971 
L 405.538214 235.976711 
L 405.659061 235.983553 
L 405.802754 235.977897 
L 405.804557 235.981159 
L 405.806361 235.977573 
L 406.008974 235.98583 
L 406.117796 235.978316 
L 406.122005 235.980589 
L 406.12441 235.982692 
L 406.244655 235.978919 
L 406.358888 235.985943 
L 406.470716 235.979596 
L 406.471317 235.979861 
L 406.596973 235.986066 
L 406.599378 235.984172 
L 406.709402 235.979462 
L 406.606593 235.987921 
L 406.71301 235.983471 
L 406.95831 235.980341 
L 407.068935 235.985988 
L 407.070138 235.984001 
L 407.074947 235.985344 
L 407.182567 235.982487 
L 407.290186 235.986997 
L 407.184371 235.979551 
L 407.2968 235.983003 
L 407.49821 235.98392 
L 407.605229 235.988204 
L 407.500014 235.982628 
L 407.612443 235.984228 
L 407.613646 235.98246 
L 407.757339 235.985768 
L 407.869167 235.981794 
L 407.760946 235.987923 
L 407.871572 235.983931 
L 407.872774 235.981883 
L 407.991817 235.987447 
L 408.095228 235.983242 
L 407.993019 235.988002 
L 408.104246 235.985347 
L 408.317681 235.986096 
L 408.318282 235.985032 
L 408.319485 235.987896 
L 408.445141 235.985068 
L 408.447546 235.983074 
L 408.561779 235.988118 
L 408.679619 235.984968 
L 408.792048 235.986656 
L 408.793251 235.98604 
L 408.796858 235.988439 
L 408.908085 235.985254 
L 409.016907 235.989536 
L 408.909888 235.984496 
L 409.021716 235.986889 
L 409.143164 235.984264 
L 409.144968 235.985922 
L 409.335556 235.986826 
L 409.336759 235.98917 
L 409.467826 235.987953 
L 409.469028 235.986801 
L 409.616329 235.98878 
L 409.735371 235.985453 
L 409.619335 235.990227 
L 409.735973 235.986798 
L 409.88688 235.98876 
L 410.002316 235.985746 
L 409.888684 235.989358 
L 410.003518 235.987388 
L 410.123162 235.989632 
L 410.004721 235.98624 
L 410.123763 235.98869 
L 410.23499 235.987142 
L 410.127972 235.989808 
L 410.236193 235.988186 
L 410.452033 235.990519 
L 410.452634 235.9887 
L 410.45564 235.990081 
L 410.567468 235.988787 
L 410.708756 235.990531 
L 410.822388 235.98749 
L 410.975099 235.989526 
L 410.976903 235.990662 
L 411.10316 235.989236 
L 411.105565 235.987222 
L 411.230019 235.990514 
L 411.344853 235.988309 
L 411.346055 235.990676 
L 411.474718 235.988475 
L 411.475319 235.990304 
L 411.587748 235.990716 
L 411.479527 235.987873 
L 411.589552 235.988911 
L 411.590754 235.989786 
L 411.709797 235.989579 
L 411.710999 235.988256 
L 411.827036 235.98961 
L 412.027845 235.990411 
L 412.17755 235.988651 
L 412.178152 235.989595 
L 412.288176 235.993269 
L 412.291182 235.989865 
L 412.597807 235.990913 
L 412.600212 235.992113 
L 412.713243 235.990232 
L 412.8395 235.993346 
L 412.951929 235.9901 
L 412.954334 235.991997 
L 413.116064 235.989152 
L 413.116665 235.991348 
L 413.244125 235.992841 
L 413.244726 235.99169 
L 413.413671 235.990552 
L 413.415474 235.992984 
L 414.22773 235.992183 
L 414.356994 235.993368 
L 414.358196 235.991314 
L 414.740576 235.992621 
L 414.741177 235.990358 
L 414.742981 235.993765 
L 414.865631 235.993059 
L 414.991287 235.993154 
L 414.992489 235.992054 
L 415.118747 235.992833 
L 415.119348 235.993606 
L 415.121152 235.992604 
L 415.245004 235.993247 
L 415.358636 235.992278 
L 415.477077 235.994553 
L 415.671273 235.992037 
L 415.786107 235.994132 
L 415.907555 235.992054 
L 415.90996 235.993897 
L 416.069886 235.99396 
L 416.182315 235.993587 
L 416.182916 235.995467 
L 416.321198 235.993844 
L 416.452266 235.99468 
L 419.054371 235.995127 
L 419.055573 235.994475 
L 419.169205 235.997537 
L 419.278628 235.993583 
L 419.283438 235.994878 
L 419.401879 235.997286 
L 419.403082 235.996652 
L 419.541364 235.995558 
L 419.542566 235.997475 
L 419.654995 235.997848 
L 419.545572 235.995082 
L 419.6574 235.996655 
L 419.797486 235.996423 
L 420.388491 235.997162 
L 420.503325 235.994451 
L 420.503926 235.995582 
L 420.61395 235.997915 
L 420.616355 235.996553 
L 420.801533 235.997603 
L 420.928391 235.996833 
L 421.120182 235.997229 
L 421.306562 235.995923 
L 421.423801 235.998577 
L 421.539237 235.995779 
L 421.541642 235.997601 
L 421.664292 235.996857 
L 421.817003 235.998032 
L 421.935445 235.996479 
L 421.937248 235.99741 
L 422.111002 235.998668 
L 422.111604 235.997745 
L 422.113407 235.998719 
L 422.22764 235.996682 
L 422.36472 235.998554 
L 422.365321 235.997861 
L 423.290006 235.999057 
L 423.403638 235.997435 
L 423.647134 235.999478 
L 423.647736 235.997781 
L 423.649539 236.000017 
L 423.804054 235.996334 
L 423.915281 236.000422 
L 423.918888 235.997613 
L 424.03733 235.996328 
L 423.921293 235.998928 
L 424.038532 235.997293 
L 424.171403 236.000136 
L 424.282029 235.997128 
L 424.285035 235.997817 
L 424.404078 235.999642 
L 424.520114 235.997541 
L 424.520715 235.999566 
L 424.863414 235.998896 
L 424.977647 235.998391 
L 425.37626 235.999565 
L 425.492296 235.997344 
L 425.494701 235.998473 
L 425.619155 235.999588 
L 426.063461 235.999604 
L 426.487325 235.999533 
L 426.649055 235.999503 
L 426.783128 235.999676 
L 426.650257 235.998393 
L 426.783729 235.999216 
L 426.914796 235.996595 
L 426.784932 236.000066 
L 426.917201 235.99833 
L 427.211802 236.000029 
L 427.341667 235.99817 
L 427.342268 235.999686 
L 427.455899 236.001547 
L 427.345875 235.997286 
L 427.458304 236.000527 
L 427.568329 235.998466 
L 427.570734 235.999848 
L 427.869543 235.998377 
L 427.989187 236.000832 
L 427.989788 235.999634 
L 428.470769 235.999161 
L 428.473173 236.000827 
L 428.588609 235.999118 
L 428.83932 236.000088 
L 429.062976 235.998255 
L 429.179012 236.001391 
L 429.179614 236.001192 
L 429.180816 236.002309 
L 429.311282 235.999767 
L 429.581834 235.999903 
L 429.742962 235.999595 
L 429.857796 236.000915 
L 430.190875 236.000652 
L 430.326752 236.000595 
L 430.523353 236.000265 
L 430.658629 235.999526 
L 430.774666 236.00175 
L 430.775868 236.000928 
L 430.912346 235.998828 
L 430.777071 236.001873 
L 430.913549 235.999964 
L 431.036199 236.001756 
L 431.245425 236.000169 
L 431.363266 236.001586 
L 431.363867 236.001138 
L 431.511167 236.000716 
L 431.673498 236.001768 
L 431.804565 235.999396 
L 431.805167 236.001164 
L 432.002369 236.001271 
L 432.003571 235.998287 
L 432.134638 236.002186 
L 448.635279 236.003956 
L 448.636482 236.005054 
L 448.756727 236.004246 
L 448.891401 236.005053 
L 448.892003 236.004515 
L 449.264161 236.003751 
L 449.421081 236.003425 
L 449.422885 236.005575 
L 449.641731 236.005316 
L 449.642934 236.003807 
L 449.801056 236.004703 
L 449.803461 236.005992 
L 449.923706 236.004304 
L 450.039743 236.005812 
L 450.158184 236.001769 
L 450.162393 236.00383 
L 450.276626 236.005888 
L 450.279031 236.003682 
L 453.294779 236.00412 
L 453.508815 236.004621 
L 453.648901 236.005675 
L 453.781772 236.004428 
L 453.782974 236.005375 
L 453.958532 236.006679 
L 454.07517 236.004471 
L 454.192409 236.005697 
L 454.19301 236.004839 
L 454.494224 236.005525 
L 454.620482 236.004094 
L 454.745537 236.005503 
L 454.906665 236.003897 
L 455.021499 236.006949 
L 455.023904 236.005827 
L 455.156775 236.004372 
L 455.344959 236.005087 
L 455.498271 236.003475 
L 455.500676 236.006124 
L 455.501879 236.004342 
L 455.642566 236.006021 
L 455.767019 236.004842 
L 455.961215 236.005474 
L 456.100098 236.005637 
L 456.1007 236.005026 
L 456.26784 236.004086 
L 456.383276 236.006014 
L 456.49811 236.005073 
L 456.499312 236.005776 
L 456.643005 236.006037 
L 456.644208 236.004816 
L 457.374697 236.005499 
L 457.796156 236.005895 
L 457.961493 236.004464 
L 458.073321 236.007595 
L 458.074524 236.005484 
L 458.32283 236.00527 
L 458.324032 235.99935 
L 458.59278 236.005646 
L 458.733467 236.004653 
L 458.866939 236.00776 
L 458.982375 236.004629 
L 458.983577 236.005696 
L 459.473576 236.005878 
L 459.474778 236.007026 
L 459.59803 236.0047 
L 459.715269 236.005672 
L 459.717674 236.006573 
L 459.832508 236.004613 
L 459.991231 236.006715 
L 460.112679 236.004328 
L 460.11328 236.005922 
L 460.25517 236.007865 
L 460.3682 236.003996 
L 460.369402 236.005139 
L 460.371807 236.004098 
L 460.487243 236.005549 
L 460.639954 236.007084 
L 460.754187 236.004943 
L 460.755991 236.005762 
L 461.019327 236.005236 
L 461.135965 236.006979 
L 461.137769 236.005706 
L 461.615743 236.005719 
L 461.618148 236.004468 
L 461.734786 236.006681 
L 461.864651 236.00486 
L 461.865252 236.00618 
L 462.044417 236.005977 
L 462.215166 236.004968 
L 462.339619 236.006531 
L 462.476097 236.005125 
L 462.590932 236.006384 
L 462.591533 236.005635 
L 462.777312 236.005222 
L 462.944452 236.007302 
L 463.0659 236.004687 
L 463.180734 236.006622 
L 463.181937 236.005784 
L 463.347875 236.006473 
L 463.486758 236.003759 
L 463.599788 236.00687 
L 463.60039 236.006023 
L 463.601592 236.004669 
L 463.735665 236.00619 
L 463.903407 236.005678 
L 464.02726 236.006876 
L 463.90461 236.004559 
L 464.028462 236.006031 
L 464.156523 236.005669 
L 464.274965 236.007874 
L 464.279174 236.005716 
L 464.465554 236.005034 
L 464.466155 236.006192 
L 464.46856 236.005194 
L 464.583394 236.0063 
L 464.868375 236.006472 
L 465.007258 236.007698 
L 465.007859 236.006237 
L 465.009663 236.007525 
L 465.128104 236.004661 
L 465.245343 236.006332 
L 465.645158 236.006268 
L 465.770815 236.005502 
L 466.041967 236.006452 
L 466.04317 236.005422 
L 466.168225 236.007185 
L 466.289071 236.006039 
L 466.424347 236.006458 
L 466.86745 236.006022 
L 466.984088 236.005841 
L 466.868653 236.008558 
L 466.985291 236.006913 
L 467.130787 236.005837 
L 467.131389 236.006589 
L 467.428995 236.006831 
L 467.570283 236.005609 
L 467.570885 236.006373 
L 467.810172 236.007125 
L 468.770931 236.006228 
L 468.894182 236.005975 
L 469.013826 236.00695 
L 469.01563 236.007779 
L 469.128661 236.005788 
L 469.247102 236.007548 
L 469.247703 236.006231 
L 469.414844 236.006237 
L 469.563948 236.006784 
L 469.737101 236.006026 
L 469.862156 236.007701 
L 469.862757 236.006754 
L 470.606473 236.007898 
L 470.72251 236.005439 
L 470.723111 236.006674 
L 470.861994 236.006831 
L 471.018914 236.005983 
L 471.139761 236.007836 
L 471.142166 236.005779 
L 471.364018 236.005633 
L 471.483061 236.007347 
L 471.483662 236.006547 
L 471.656815 236.006038 
L 471.829367 236.005853 
L 471.829968 236.006727 
L 472.645831 236.006827 
L 472.828003 236.006046 
L 472.945843 236.008527 
L 473.070898 236.006279 
L 473.201965 236.006834 
L 473.394959 236.006036 
L 473.512198 236.008336 
L 473.637252 236.005617 
L 473.758099 236.007261 
L 473.877142 236.004627 
L 473.995583 236.007197 
L 474.120037 236.006371 
L 474.121239 236.00727 
L 474.261926 236.006739 
L 474.560735 236.007839 
L 474.680379 236.005866 
L 474.806035 236.00697 
L 475.160759 236.007258 
L 475.163163 236.005493 
L 475.286415 236.00867 
L 475.400648 236.005969 
L 475.518488 236.008349 
L 475.519089 236.007127 
L 475.746954 236.005068 
L 475.747555 236.006643 
L 475.85818 236.008325 
L 475.748757 236.006205 
L 475.861788 236.005667 
L 475.98564 236.007252 
L 476.185247 236.006258 
L 476.672841 236.007441 
L 476.784068 236.006006 
L 476.785872 236.006849 
L 476.939184 236.007452 
L 477.105123 236.006326 
L 477.220558 236.007626 
L 477.10873 236.004533 
L 477.221159 236.006213 
L 477.345613 236.007381 
L 477.346214 236.006608 
L 477.619772 236.007932 
L 477.620373 236.006258 
L 478.507181 236.007215 
L 478.617807 236.005078 
L 478.509586 236.009498 
L 478.621414 236.007553 
L 479.251499 236.007485 
L 479.459523 236.007156 
L 479.583976 236.005067 
L 479.584578 236.006246 
L 479.704823 236.007333 
L 483.094534 236.006444 
L 483.206362 236.006059 
L 483.095736 236.010571 
L 483.206963 236.007248 
L 483.327809 236.005825 
L 483.331417 236.007776 
L 483.49014 236.007333 
L 483.613993 236.006265 
L 483.491343 236.008066 
L 483.615195 236.007284 
L 483.743857 236.00764 
L 483.974127 236.007228 
L 484.096176 236.008221 
L 484.23085 236.006473 
L 484.345684 236.008215 
L 484.346887 236.007818 
L 484.526052 236.006604 
L 484.645696 236.008373 
L 484.646297 236.005913 
L 484.814641 236.008142 
L 484.815843 236.008642 
L 484.928272 236.006961 
L 485.109842 236.007023 
L 485.243315 236.005856 
L 485.243916 236.006623 
L 485.371977 236.008217 
L 485.629903 236.007706 
L 485.75135 236.007033 
L 486.069399 236.007481 
L 486.071202 236.008918 
L 486.198662 236.006731 
L 486.312895 236.008095 
L 486.314098 236.007341 
L 486.465607 236.007016 
L 486.582244 236.008283 
L 486.702489 236.006806 
L 486.813716 236.009055 
L 486.704894 236.00568 
L 486.817324 236.007666 
L 486.939974 236.008367 
L 487.068636 236.0058 
L 487.182869 236.007639 
L 487.356022 236.008042 
L 487.570058 236.007993 
L 487.846622 236.008752 
L 487.959051 236.006947 
L 487.960855 236.007713 
L 488.098536 236.008201 
L 488.234413 236.005928 
L 488.235014 236.007952 
L 489.00338 236.00808 
L 489.004583 236.00629 
L 489.122423 236.008256 
L 489.123626 236.008925 
L 489.242067 236.007037 
L 489.360509 236.008799 
L 489.361711 236.007508 
L 489.499993 236.006635 
L 489.62625 236.008812 
L 489.626852 236.007698 
L 489.754311 236.006413 
L 489.754913 236.006965 
L 489.877563 236.008798 
L 490.005624 236.007391 
L 490.243108 236.008228 
L 490.361549 236.006864 
L 490.362151 236.008074 
L 490.487807 236.006724 
L 490.601439 236.007894 
L 490.745733 236.007019 
L 490.898444 236.008522 
L 490.899045 236.007884 
L 491.922331 236.007013 
L 492.034761 236.008477 
L 492.037166 236.007713 
L 492.833189 236.007852 
L 492.95644 236.007225 
L 493.077286 236.009047 
L 493.077887 236.007944 
L 493.470488 236.007849 
L 493.618991 236.008916 
L 493.619592 236.008223 
L 493.76088 236.006571 
L 493.900965 236.009522 
L 494.020609 236.006665 
L 494.021211 236.008153 
L 494.152879 236.008859 
L 494.269517 236.006558 
L 494.155885 236.010253 
L 494.270118 236.006812 
L 494.392768 236.008399 
L 494.558105 236.006805 
L 494.677148 236.008985 
L 494.794387 236.006225 
L 494.796191 236.007871 
L 494.91343 236.009327 
L 494.914632 236.006616 
L 495.058325 236.008428 
L 495.358337 236.006596 
L 495.46776 236.010552 
L 495.47257 236.007571 
L 495.621072 236.007688 
L 496.818714 236.006759 
L 497.079646 236.008851 
L 497.259413 236.008031 
L 497.799915 236.008282 
L 497.927976 236.008988 
L 497.928577 236.007567 
L 498.089705 236.00809 
L 499.7058 236.008392 
L 499.820033 236.00736 
L 499.707003 236.009174 
L 499.821236 236.007701 
L 500.26013 236.007537 
L 500.369553 236.009597 
L 500.26494 236.005471 
L 500.373161 236.008688 
L 500.516854 236.007469 
L 500.635295 236.008654 
L 500.812056 236.007019 
L 500.931098 236.008281 
L 501.303257 236.009897 
L 501.418091 236.007176 
L 501.555171 236.009551 
L 501.555772 236.008421 
L 501.686839 236.007908 
L 501.823919 236.008216 
L 502.090863 236.007769 
L 502.220728 236.00892 
L 502.221329 236.008543 
L 502.791892 236.007454 
L 503.026971 236.00863 
L 503.028174 236.006743 
L 503.157437 236.008846 
L 503.3354 236.008289 
L 503.491719 236.008184 
L 503.492921 236.00883 
L 503.610761 236.007989 
L 503.612565 236.007168 
L 503.727399 236.009374 
L 503.841632 236.008198 
L 503.842835 236.008541 
L 503.970896 236.007379 
L 503.971497 236.008315 
L 504.659299 236.009672 
L 504.77233 236.007383 
L 504.772931 236.008822 
L 506.681823 236.00781 
L 506.795454 236.008494 
L 506.796657 236.007945 
L 507.099675 236.009016 
L 507.21992 236.007056 
L 507.220521 236.007653 
L 507.337159 236.008181 
L 507.64198 236.008889 
L 507.761624 236.007954 
L 507.893894 236.009121 
L 508.036986 236.008885 
L 508.267856 236.008052 
L 508.414555 236.009303 
L 508.415758 236.007495 
L 509.434835 236.009149 
L 509.558688 236.008792 
L 509.436639 236.008023 
L 509.55989 236.007841 
L 509.713203 236.008179 
L 509.714405 236.007228 
L 509.831644 236.008706 
L 509.954294 236.00826 
L 510.135865 236.008509 
L 510.248895 236.008212 
L 510.2513 236.009081 
L 510.964354 236.008744 
L 511.087605 236.009793 
L 510.965556 236.006994 
L 511.088807 236.008539 
L 511.220476 236.008199 
L 511.379801 236.009371 
L 512.545577 236.009009 
L 512.66943 236.009795 
L 512.793884 236.007732 
L 513.227969 236.01056 
L 513.342803 236.007967 
L 513.549023 236.009382 
L 513.702937 236.009185 
L 513.70414 236.007753 
L 513.84182 236.009403 
L 513.965673 236.006752 
L 513.967476 236.00901 
L 514.129206 236.008766 
L 514.978137 236.008566 
L 515.097781 236.009878 
L 515.214419 236.008851 
L 515.546295 236.007669 
L 515.659927 236.009424 
L 515.908834 236.008524 
L 516.042908 236.008827 
L 517.778646 236.008 
L 517.897088 236.010087 
L 518.022143 236.008426 
L 518.342596 236.008635 
L 518.537995 236.007182 
L 518.538596 236.008267 
L 518.901736 236.009606 
L 519.02619 236.007038 
L 519.141024 236.009013 
L 519.14403 236.010291 
L 519.256459 236.008322 
L 520.736677 236.009124 
L 520.852714 236.007838 
L 520.739082 236.010294 
L 520.853916 236.008516 
L 520.98318 236.010463 
L 521.114247 236.008196 
L 521.426884 236.009881 
L 521.541719 236.007655 
L 534.472281 236.009936 
L 534.582906 236.007992 
L 534.477692 236.011222 
L 534.584109 236.009787 
L 534.747642 236.008527 
L 534.961679 236.008909 
L 535.095151 236.009411 
L 535.299568 236.008904 
L 535.439052 236.010141 
L 535.440254 236.008772 
L 535.69818 236.007982 
L 535.82083 236.00928 
L 535.822033 236.010588 
L 535.977149 236.009468 
L 536.201406 236.008193 
L 536.31624 236.009662 
L 536.317443 236.008361 
L 536.544706 236.008724 
L 536.65954 236.010427 
L 536.82608 236.008488 
L 536.945724 236.009708 
L 536.946926 236.008433 
L 537.200042 236.009856 
L 537.319085 236.007436 
L 537.43452 236.009762 
L 537.435723 236.008018 
L 537.55717 236.01113 
L 537.560176 236.008738 
L 537.898667 236.007614 
L 538.014102 236.010025 
L 538.014703 236.009539 
L 538.151783 236.007599 
L 538.152985 236.008944 
L 538.501696 236.009324 
L 538.617733 236.007975 
L 538.505303 236.011371 
L 538.618935 236.00927 
L 538.775254 236.009057 
L 538.918345 236.010123 
L 538.918947 236.009625 
L 539.065646 236.008721 
L 539.188296 236.009937 
L 539.190099 236.008342 
L 539.383093 236.01016 
L 539.499129 236.008493 
L 539.499731 236.009083 
L 541.328058 236.009625 
L 541.329261 236.010081 
L 541.444095 236.007946 
L 541.619052 236.009442 
L 541.745309 236.007434 
L 541.748315 236.009389 
L 541.875174 236.010672 
L 541.876376 236.008945 
L 542.489025 236.009511 
L 542.615283 236.008409 
L 542.615884 236.008743 
L 542.75116 236.0096 
L 542.751761 236.008653 
L 542.971809 236.009291 
L 543.101073 236.010646 
L 543.233343 236.008718 
L 543.354189 236.00941 
L 543.488864 236.009311 
L 543.674041 236.008935 
L 543.833366 236.009897 
L 543.951206 236.00878 
L 544.135783 236.008635 
L 544.136384 236.009906 
L 544.137586 236.008873 
L 544.260236 236.010765 
L 544.377475 236.008581 
L 544.515757 236.011159 
L 544.516358 236.009845 
L 544.517561 236.010607 
L 544.634199 236.008571 
L 544.750836 236.008729 
L 544.751438 236.008455 
L 544.884309 236.010154 
L 544.88491 236.009416 
L 545.079106 236.009495 
L 545.194541 236.010514 
L 545.198148 236.008994 
L 545.409179 236.009841 
L 545.531829 236.007858 
L 545.533632 236.010625 
L 545.671914 236.008253 
L 545.786147 236.010289 
L 545.789153 236.009022 
L 546.03265 236.008613 
L 546.149288 236.00981 
L 546.15049 236.009098 
L 546.573152 236.00988 
L 546.736685 236.00913 
L 546.857532 236.008677 
L 546.98439 236.010201 
L 547.099826 236.008139 
L 547.219469 236.009829 
L 547.221273 236.008796 
L 548.064793 236.008906 
L 548.066597 236.008351 
L 548.180228 236.010193 
L 548.597479 236.008422 
L 548.718927 236.009023 
L 548.878853 236.008927 
L 549.363441 236.008482 
L 549.365244 236.010518 
L 549.494508 236.00938 
L 556.300383 236.00951 
L 556.414015 236.008185 
L 556.301586 236.010479 
L 556.417622 236.009739 
L 557.158934 236.008318 
L 557.273768 236.009947 
L 557.27497 236.009078 
L 557.423473 236.008437 
L 557.600835 236.009014 
L 557.78481 236.009651 
L 558.052355 236.008918 
L 559.95764 236.009484 
L 560.110952 236.008403 
L 560.235406 236.009854 
L 560.39413 236.008013 
L 560.507761 236.009803 
L 560.508362 236.009007 
L 560.645442 236.01006 
L 560.764485 236.008266 
L 560.900963 236.009894 
L 561.102975 236.008992 
L 561.276729 236.010349 
L 562.406432 236.010008 
L 562.551328 236.010838 
L 562.551929 236.009031 
L 562.706444 236.008364 
L 562.707045 236.009009 
L 562.708247 236.007532 
L 562.835106 236.009975 
L 562.982406 236.008269 
L 563.103854 236.009776 
L 563.219891 236.008539 
L 563.220492 236.010008 
L 566.689564 236.009966 
L 566.690767 236.00842 
L 566.835061 236.010015 
L 566.958914 236.008777 
L 567.102607 236.00961 
L 567.221048 236.008213 
L 567.22225 236.00931 
L 567.359931 236.008849 
L 567.571563 236.010076 
L 568.868407 236.009869 
L 568.988051 236.00871 
L 569.116112 236.010111 
L 569.116713 236.009096 
L 569.285056 236.008796 
L 569.285657 236.00949 
L 571.93586 236.010512 
L 572.050093 236.008905 
L 572.050695 236.009174 
L 572.591197 236.009597 
L 572.727675 236.00941 
L 576.847875 236.009361 
L 576.849077 236.011085 
L 576.963911 236.009316 
L 577.113015 236.010394 
L 577.367935 236.00954 
L 577.591591 236.009755 
L 577.709431 236.009054 
L 577.710634 236.010297 
L 578.510264 236.009273 
L 578.62089 236.008897 
L 578.511467 236.009823 
L 578.622092 236.009891 
L 578.750153 236.008475 
L 578.750754 236.009734 
L 579.130128 236.009339 
L 579.250373 236.010314 
L 579.601489 236.009825 
L 579.728347 236.008763 
L 579.849194 236.009993 
L 579.850396 236.009343 
L 579.851599 236.011651 
L 580.049402 236.00896 
L 580.196101 236.010119 
L 580.196702 236.009233 
L 580.199107 236.010785 
L 580.316346 236.009083 
L 580.52437 236.009552 
L 580.674076 236.009023 
L 580.788309 236.010606 
L 580.676481 236.008007 
L 580.78891 236.009696 
L 580.932603 236.01052 
L 581.046836 236.00859 
L 581.171891 236.010375 
L 581.531424 236.009365 
L 581.658282 236.009857 
L 581.77492 236.009625 
L 581.659485 236.010452 
L 581.775521 236.010192 
L 581.987153 236.010641 
L 582.120024 236.008498 
L 582.120625 236.010821 
L 582.257704 236.008736 
L 582.382759 236.010175 
L 582.383962 236.009436 
L 582.502403 236.009346 
L 582.61844 236.010551 
L 582.734476 236.00962 
L 582.85893 236.011008 
L 582.735679 236.008219 
L 582.860734 236.0091 
L 583.104831 236.009474 
L 583.22688 236.011017 
L 583.228083 236.010393 
L 583.342917 236.008278 
L 583.345322 236.009612 
L 583.483604 236.007369 
L 583.484205 236.009644 
L 583.621886 236.010806 
L 583.740327 236.008889 
L 583.934523 236.008859 
L 584.067394 236.009549 
L 584.716116 236.009144 
L 584.839368 236.00869 
L 584.719123 236.01084 
L 584.841773 236.01003 
L 585.572262 236.009921 
L 585.688298 236.009347 
L 585.80674 236.009505 
L 585.807942 236.010327 
L 585.923979 236.008828 
L 586.075488 236.010133 
L 586.214972 236.009352 
L 586.350849 236.010463 
L 586.487327 236.008618 
L 586.613585 236.009932 
L 586.751266 236.009674 
L 586.901572 236.010369 
L 586.902774 236.010901 
L 587.02302 236.009284 
L 587.188958 236.011147 
L 587.306798 236.009162 
L 587.424037 236.010501 
L 587.42524 236.009891 
L 587.58216 236.008807 
L 587.69519 236.010991 
L 587.696392 236.00988 
L 587.834674 236.009389 
L 588.035484 236.009141 
L 588.153925 236.008627 
L 588.037287 236.01111 
L 588.155128 236.010704 
L 588.690219 236.009433 
L 588.80385 236.011473 
L 588.80866 236.009417 
L 589.000451 236.010048 
L 589.126709 236.008881 
L 589.12731 236.009401 
L 589.349763 236.009324 
L 589.607088 236.008816 
L 589.732143 236.009555 
L 590.560031 236.009461 
L 590.561233 236.010582 
L 590.680877 236.010073 
L 591.120373 236.009213 
L 591.244827 236.011053 
L 591.355452 236.008213 
L 591.35906 236.009416 
L 591.360262 236.010578 
L 591.512372 236.009147 
L 591.844249 236.010606 
L 591.964494 236.007409 
L 592.07512 236.010951 
L 592.076923 236.009376 
L 592.259696 236.008877 
L 592.372726 236.0115 
L 592.377536 236.009605 
L 592.378739 236.010838 
L 592.508002 236.009037 
L 592.624039 236.010467 
L 592.625842 236.009654 
L 592.888578 236.009336 
L 593.013032 236.010574 
L 593.013633 236.01004 
L 595.579665 236.010248 
L 595.701713 236.00916 
L 595.833983 236.010203 
L 596.042007 236.00955 
L 598.846725 236.00811 
L 598.959155 236.011064 
L 598.959756 236.010646 
L 599.073388 236.008304 
L 599.073989 236.009749 
L 599.303056 236.009471 
L 599.480417 236.010839 
L 599.59465 236.009352 
L 600.052183 236.0109 
L 600.167618 236.009211 
L 600.168821 236.010079 
L 600.644992 236.009907 
L 600.791691 236.009942 
L 602.252068 236.010092 
L 602.382534 236.010915 
L 602.51781 236.009621 
L 602.740865 236.010211 
L 602.887564 236.010166 
L 603.22906 236.009264 
L 603.373955 236.010525 
L 603.494201 236.009779 
L 603.666752 236.00958 
L 603.809844 236.010388 
L 603.810445 236.009617 
L 604.095426 236.010787 
L 604.212064 236.008696 
L 604.212665 236.009862 
L 604.356358 236.010935 
L 604.356959 236.010275 
L 604.472996 236.009539 
L 604.473597 236.009925 
L 604.714689 236.0119 
L 604.71529 236.009316 
L 605.0634 236.008495 
L 605.183044 236.011045 
L 605.304491 236.009145 
L 605.305093 236.009429 
L 605.43135 236.010237 
L 605.553399 236.009131 
L 605.679656 236.010247 
L 605.791484 236.009138 
L 605.792687 236.010253 
L 606.034981 236.010914 
L 606.149213 236.008933 
L 606.149815 236.010201 
L 606.322366 236.009748 
L 606.435998 236.011364 
L 606.436599 236.009936 
L 606.665666 236.01004 
L 606.814169 236.008926 
L 606.932611 236.010702 
L 607.056463 236.008165 
L 607.171898 236.01032 
L 607.297555 236.009852 
L 607.435837 236.010373 
L 607.66791 236.009317 
L 607.78575 236.010872 
L 607.787554 236.009253 
L 609.513673 236.010465 
L 609.627304 236.009275 
L 609.629709 236.010139 
L 610.540566 236.00894 
L 610.655401 236.010774 
L 610.656002 236.009288 
L 610.864026 236.009687 
L 610.865228 236.009041 
L 610.989682 236.010065 
L 611.17486 236.009816 
L 611.175461 236.010646 
L 611.176663 236.008688 
L 611.309534 236.011374 
L 611.432785 236.009631 
L 611.568061 236.010776 
L 611.569264 236.009254 
L 611.732797 236.009463 
L 611.849435 236.011812 
L 611.853643 236.009342 
L 612.044833 236.010918 
L 612.045434 236.009112 
L 614.725699 236.010466 
L 615.025109 236.01111 
L 615.025711 236.009398 
L 615.028115 236.010996 
L 615.156778 236.00881 
L 615.276422 236.010505 
L 615.390053 236.008224 
L 615.278827 236.011344 
L 615.391857 236.009647 
L 615.545771 236.008176 
L 615.546372 236.009206 
L 616.183671 236.009382 
L 616.325561 236.010131 
L 616.486689 236.009721 
L 616.620763 236.01184 
L 616.733793 236.009413 
L 616.735597 236.010587 
L 616.89913 236.009674 
L 617.078897 236.011644 
L 617.080099 236.009998 
L 617.081301 236.010696 
L 617.203952 236.009651 
L 617.33562 236.011258 
L 617.336822 236.009887 
L 617.543043 236.009498 
L 617.780527 236.010538 
L 617.981938 236.008537 
L 618.094367 236.011423 
L 618.209201 236.009252 
L 618.324636 236.011503 
L 618.327642 236.008895 
L 618.685973 236.009921 
L 618.836881 236.009256 
L 619.049113 236.011499 
L 619.168156 236.00872 
L 619.169359 236.009886 
L 619.305837 236.010244 
L 619.306438 236.009558 
L 619.543321 236.009406 
L 619.708057 236.010048 
L 620.143945 236.010312 
L 620.267798 236.009724 
L 622.943253 236.010346 
L 623.067706 236.010261 
L 623.205988 236.009127 
L 623.335853 236.009799 
L 623.65811 236.010882 
L 623.779558 236.009836 
L 623.894993 236.011882 
L 623.781963 236.007886 
L 623.897999 236.009223 
L 624.09941 236.009434 
L 625.083616 236.009671 
L 625.211677 236.009661 
L 625.455174 236.00952 
L 625.785247 236.009965 
L 625.907897 236.010863 
L 625.9097 236.009302 
L 626.047381 236.009327 
L 626.048584 236.00855 
L 626.176044 236.010921 
L 626.296289 236.00969 
L 627.677304 236.009801 
L 627.795144 236.010995 
L 627.796347 236.009985 
L 628.241855 236.009632 
L 628.353082 236.011029 
L 628.356689 236.009649 
L 628.513008 236.010634 
L 628.633253 236.009615 
L 628.817829 236.010941 
L 628.947694 236.00912 
L 629.066136 236.011698 
L 629.067338 236.009327 
L 629.322859 236.010428 
L 629.543509 236.010187 
L 629.544711 236.009514 
L 629.666159 236.010841 
L 629.783398 236.008303 
L 629.785803 236.009869 
L 629.984809 236.010438 
L 630.108661 236.010163 
L 630.251753 236.010884 
L 630.368992 236.008364 
L 630.371397 236.009666 
L 630.495851 236.01083 
L 630.497654 236.009425 
L 630.648562 236.009499 
L 630.767605 236.011502 
L 630.769408 236.010087 
L 630.892058 236.009398 
L 631.0105 236.011273 
L 631.011702 236.009821 
L 631.627357 236.010123 
L 631.631566 236.007684 
L 631.75121 236.010194 
L 632.176878 236.009449 
L 632.31997 236.011799 
L 632.432399 236.008193 
L 632.434804 236.010316 
L 632.635613 236.011656 
L 632.636214 236.010409 
L 632.758864 236.009596 
L 632.759466 236.010079 
L 633.255477 236.012189 
L 633.36971 236.009341 
L 633.370311 236.010104 
L 633.628838 236.012204 
L 633.629439 236.010748 
L 633.743071 236.009273 
L 633.630642 236.011311 
L 633.744875 236.010028 
L 634.040678 236.008998 
L 634.156714 236.009799 
L 634.306419 236.009115 
L 634.422456 236.011382 
L 634.543302 236.00941 
L 634.666554 236.01166 
L 634.779584 236.009059 
L 634.780787 236.010285 
L 635.016467 236.010039 
L 635.159559 236.009004 
L 635.16016 236.010517 
L 638.115786 236.00915 
L 638.257074 236.009604 
L 638.394755 236.011282 
L 638.395356 236.010396 
L 639.011011 236.010043 
L 639.134262 236.011394 
L 639.012815 236.008832 
L 639.135465 236.009572 
L 639.36874 236.01101 
L 639.561133 236.008771 
L 639.678372 236.010484 
L 639.678973 236.010117 
L 639.801022 236.009469 
L 640.059549 236.010365 
L 640.200837 236.008771 
L 640.201438 236.009885 
L 640.321082 236.010581 
L 640.321683 236.009558 
L 642.119348 236.01006 
L 642.120551 236.009294 
L 642.23779 236.009926 
L 642.719973 236.010556 
L 651.725733 236.010492 
L 651.84177 236.008823 
L 651.843574 236.009541 
L 653.115166 236.010822 
L 653.246835 236.011453 
L 653.248037 236.010261 
L 653.439828 236.010395 
L 653.557668 236.009452 
L 653.69595 236.01083 
L 653.696551 236.008982 
L 653.948465 236.012471 
L 654.061495 236.008986 
L 654.062097 236.010208 
L 654.194366 236.011167 
L 654.322427 236.010045 
L 654.325434 236.007965 
L 654.439065 236.011291 
L 654.553298 236.009533 
L 654.677151 236.011495 
L 654.805813 236.008948 
L 654.806414 236.010354 
L 654.985579 236.010105 
L 655.621075 236.010307 
L 655.946338 236.010121 
L 656.098448 236.010728 
L 656.09905 236.009635 
L 656.245749 236.010405 
L 656.428521 236.010665 
L 656.54576 236.008686 
L 656.548766 236.010499 
L 656.80068 236.010238 
L 656.953391 236.009548 
L 657.113919 236.011314 
L 657.228753 236.00907 
L 657.230556 236.009829 
L 657.358016 236.010941 
L 657.358618 236.010574 
L 657.489083 236.009723 
L 657.618347 236.011121 
L 657.769255 236.009581 
L 657.902727 236.010621 
L 658.020567 236.009716 
L 658.021168 236.010292 
L 658.68913 236.011268 
L 658.804565 236.009535 
L 658.957878 236.009351 
L 659.087743 236.010488 
L 659.206785 236.008673 
L 659.321018 236.010844 
L 659.48876 236.00978 
L 659.621631 236.010844 
L 659.622232 236.009455 
L 659.937275 236.009776 
L 660.05752 236.011088 
L 660.058722 236.010326 
L 661.644155 236.010754 
L 661.760793 236.009169 
L 661.763197 236.010734 
L 661.885847 236.00936 
L 661.887651 236.010422 
L 662.016313 236.010151 
L 662.016915 236.009599 
L 662.313319 236.01062 
L 662.529159 236.010876 
L 662.638582 236.008899 
L 662.643392 236.010834 
L 662.85322 236.009637 
L 663.031183 236.011094 
L 663.209145 236.009016 
L 663.328789 236.010962 
L 663.44663 236.00973 
L 663.447832 236.010552 
L 663.581905 236.010441 
L 663.732212 236.009515 
L 664.377327 236.010389 
L 664.495167 236.009678 
L 664.49637 236.00843 
L 664.621425 236.011093 
L 664.758504 236.009766 
L 664.876344 236.01075 
L 665.704232 236.009988 
L 665.82087 236.011256 
L 665.705435 236.008788 
L 665.823275 236.009894 
L 665.991618 236.010884 
L 666.11006 236.009478 
L 666.233912 236.010416 
L 668.389908 236.010293 
L 668.39111 236.010898 
L 668.511355 236.009938 
L 668.647232 236.010799 
L 668.647834 236.010267 
L 668.815576 236.009716 
L 668.816177 236.010415 
L 673.30553 236.010584 
L 673.425173 236.01192 
L 673.307333 236.009576 
L 673.428781 236.010009 
L 674.511588 236.010427 
L 674.652275 236.009422 
L 674.806189 236.0116 
L 674.80679 236.01068 
L 674.93425 236.00976 
L 675.259513 236.010058 
L 675.385771 236.011239 
L 675.77296 236.009387 
L 675.888997 236.01044 
L 676.039303 236.010356 
L 676.216665 236.010345 
L 676.38621 236.009774 
L 676.51848 236.010544 
L 676.519081 236.009537 
L 677.393865 236.00992 
L 677.514711 236.011273 
L 677.515312 236.009883 
L 677.702294 236.009557 
L 677.702895 236.010514 
L 677.974649 236.009863 
L 678.18628 236.009802 
L 678.310734 236.010821 
L 678.311335 236.010171 
L 678.4905 236.010333 
L 678.879494 236.010482 
L 679.136818 236.009957 
L 679.136818 236.009957 
" clip-path="url(#p62c593ac7f)" style="fill: none; stroke: #800080; stroke-width: 1.5; stroke-linecap: square"/>
   </g>
   <g id="patch_3">
    <path d="M 47.81 246.04 
L 47.81 25.44 
" style="fill: none; stroke: #000000; stroke-width: 0.8; stroke-linejoin: miter; stroke-linecap: square"/>
   </g>
   <g id="patch_4">
    <path d="M 709.2 246.04 
L 709.2 25.44 
" style="fill: none; stroke: #000000; stroke-width: 0.8; stroke-linejoin: miter; stroke-linecap: square"/>
   </g>
   <g id="patch_5">
    <path d="M 47.81 246.04 
L 709.2 246.04 
" style="fill: none; stroke: #000000; stroke-width: 0.8; stroke-linejoin: miter; stroke-linecap: square"/>
   </g>
   <g id="patch_6">
    <path d="M 47.81 25.44 
L 709.2 25.44 
" style="fill: none; stroke: #000000; stroke-width: 0.8; stroke-linejoin: miter; stroke-linecap: square"/>
   </g>
   <g id="text_16">
    <!-- Frequency-Domain Spectrum -->
    <g transform="translate(291.18625 19.44) scale(0.12 -0.12)">
     <defs>
      <path id="DejaVuSans-2d" d="M 313 2009 
L 1997 2009 
L 1997 1497 
L 313 1497 
L 313 2009 
z
" transform="scale(0.015625)"/>
      <path id="DejaVuSans-44" d="M 1259 4147 
L 1259 519 
L 2022 519 
Q 2988 519 3436 956 
Q 3884 1394 3884 2338 
Q 3884 3275 3436 3711 
Q 2988 4147 2022 4147 
L 1259 4147 
z
M 628 4666 
L 1925 4666 
Q 3281 4666 3915 4102 
Q 4550 3538 4550 2338 
Q 4550 1131 3912 565 
Q 3275 0 1925 0 
L 628 0 
L 628 4666 
z
" transform="scale(0.015625)"/>
      <path id="DejaVuSans-6f" d="M 1959 3097 
Q 1497 3097 1228 2736 
Q 959 2375 959 1747 
Q 959 1119 1226 758 
Q 1494 397 1959 397 
Q 2419 397 2687 759 
Q 2956 1122 2956 1747 
Q 2956 2369 2687 2733 
Q 2419 3097 1959 3097 
z
M 1959 3584 
Q 2709 3584 3137 3096 
Q 3566 2609 3566 1747 
Q 3566 888 3137 398 
Q 2709 -91 1959 -91 
Q 1206 -91 779 398 
Q 353 888 353 1747 
Q 353 2609 779 3096 
Q 1206 3584 1959 3584 
z
" transform="scale(0.015625)"/>
      <path id="DejaVuSans-6d" d="M 3328 2828 
Q 3544 3216 3844 3400 
Q 4144 3584 4550 3584 
Q 5097 3584 5394 3201 
Q 5691 2819 5691 2113 
L 5691 0 
L 5113 0 
L 5113 2094 
Q 5113 2597 4934 2840 
Q 4756 3084 4391 3084 
Q 3944 3084 3684 2787 
Q 3425 2491 3425 1978 
L 3425 0 
L 2847 0 
L 2847 2094 
Q 2847 2600 2669 2842 
Q 2491 3084 2119 3084 
Q 1678 3084 1418 2786 
Q 1159 2488 1159 1978 
L 1159 0 
L 581 0 
L 581 3500 
L 1159 3500 
L 1159 2956 
Q 1356 3278 1631 3431 
Q 1906 3584 2284 3584 
Q 2666 3584 2933 3390 
Q 3200 3197 3328 2828 
z
" transform="scale(0.015625)"/>
      <path id="DejaVuSans-53" d="M 3425 4513 
L 3425 3897 
Q 3066 4069 2747 4153 
Q 2428 4238 2131 4238 
Q 1616 4238 1336 4038 
Q 1056 3838 1056 3469 
Q 1056 3159 1242 3001 
Q 1428 2844 1947 2747 
L 2328 2669 
Q 3034 2534 3370 2195 
Q 3706 1856 3706 1288 
Q 3706 609 3251 259 
Q 2797 -91 1919 -91 
Q 1588 -91 1214 -16 
Q 841 59 441 206 
L 441 856 
Q 825 641 1194 531 
Q 1563 422 1919 422 
Q 2459 422 2753 634 
Q 3047 847 3047 1241 
Q 3047 1584 2836 1778 
Q 2625 1972 2144 2069 
L 1759 2144 
Q 1053 2284 737 2584 
Q 422 2884 422 3419 
Q 422 4038 858 4394 
Q 1294 4750 2059 4750 
Q 2388 4750 2728 4690 
Q 3069 4631 3425 4513 
z
" transform="scale(0.015625)"/>
      <path id="DejaVuSans-70" d="M 1159 525 
L 1159 -1331 
L 581 -1331 
L 581 3500 
L 1159 3500 
L 1159 2969 
Q 1341 3281 1617 3432 
Q 1894 3584 2278 3584 
Q 2916 3584 3314 3078 
Q 3713 2572 3713 1747 
Q 3713 922 3314 415 
Q 2916 -91 2278 -91 
Q 1894 -91 1617 61 
Q 1341 213 1159 525 
z
M 3116 1747 
Q 3116 2381 2855 2742 
Q 2594 3103 2138 3103 
Q 1681 3103 1420 2742 
Q 1159 2381 1159 1747 
Q 1159 1113 1420 752 
Q 1681 391 2138 391 
Q 2594 391 2855 752 
Q 3116 1113 3116 1747 
z
" transform="scale(0.015625)"/>
     </defs>
     <use xlink:href="#DejaVuSans-46"/>
     <use xlink:href="#DejaVuSans-72" x="50.269531"/>
     <use xlink:href="#DejaVuSans-65" x="89.132812"/>
     <use xlink:href="#DejaVuSans-71" x="150.65625"/>
     <use xlink:href="#DejaVuSans-75" x="214.132812"/>
     <use xlink:href="#DejaVuSans-65" x="277.511719"/>
     <use xlink:href="#DejaVuSans-6e" x="339.035156"/>
     <use xlink:href="#DejaVuSans-63" x="402.414062"/>
     <use xlink:href="#DejaVuSans-79" x="457.394531"/>
     <use xlink:href="#DejaVuSans-2d" x="514.824219"/>
     <use xlink:href="#DejaVuSans-44" x="550.908203"/>
     <use xlink:href="#DejaVuSans-6f" x="627.910156"/>
     <use xlink:href="#DejaVuSans-6d" x="689.091797"/>
     <use xlink:href="#DejaVuSans-61" x="786.503906"/>
     <use xlink:href="#DejaVuSans-69" x="847.783203"/>
     <use xlink:href="#DejaVuSans-6e" x="875.566406"/>
     <use xlink:href="#DejaVuSans-20" x="938.945312"/>
     <use xlink:href="#DejaVuSans-53" x="970.732422"/>
     <use xlink:href="#DejaVuSans-70" x="1034.208984"/>
     <use xlink:href="#DejaVuSans-65" x="1097.685547"/>
     <use xlink:href="#DejaVuSans-63" x="1159.208984"/>
     <use xlink:href="#DejaVuSans-74" x="1214.189453"/>
     <use xlink:href="#DejaVuSans-72" x="1253.398438"/>
     <use xlink:href="#DejaVuSans-75" x="1294.511719"/>
     <use xlink:href="#DejaVuSans-6d" x="1357.890625"/>
    </g>
   </g>
  </g>
 </g>
 <defs>
  <clipPath id="p62c593ac7f">
   <rect x="47.81" y="25.44" width="661.39" height="220.6"/>
  </clipPath>
 </defs>
</svg>
