<?xml version="1.0" encoding="utf-8" standalone="no"?>
<!DOCTYPE svg PUBLIC "-//W3C//DTD SVG 1.1//EN"
  "http://www.w3.org/Graphics/SVG/1.1/DTD/svg11.dtd">
<svg xmlns:xlink="http://www.w3.org/1999/xlink" width="424.325938pt" height="280.474375pt" viewBox="0 0 424.325938 280.474375" xmlns="http://www.w3.org/2000/svg" version="1.1">
 <metadata>
  <rdf:RDF xmlns:dc="http://purl.org/dc/elements/1.1/" xmlns:cc="http://creativecommons.org/ns#" xmlns:rdf="http://www.w3.org/1999/02/22-rdf-syntax-ns#">
   <cc:Work>
    <dc:type rdf:resource="http://purl.org/dc/dcmitype/StillImage"/>
    <dc:date>2025-08-28T11:26:00.971427</dc:date>
    <dc:format>image/svg+xml</dc:format>
    <dc:creator>
     <cc:Agent>
      <dc:title>Matplotlib v3.9.2, https://matplotlib.org/</dc:title>
     </cc:Agent>
    </dc:creator>
   </cc:Work>
  </rdf:RDF>
 </metadata>
 <defs>
  <style type="text/css">*{stroke-linejoin: round; stroke-linecap: butt}</style>
 </defs>
 <g id="figure_1">
  <g id="patch_1">
   <path d="M 0 280.474375 
L 424.325938 280.474375 
L 424.325938 0 
L 0 0 
z
" style="fill: #ffffff"/>
  </g>
  <g id="axes_1">
   <g id="patch_2">
    <path d="M 64.885937 242.918125 
L 417.125937 242.918125 
L 417.125937 22.318125 
L 64.885937 22.318125 
z
" style="fill: #ffffff"/>
   </g>
   <g id="matplotlib.axis_1">
    <g id="xtick_1">
     <g id="line2d_1">
      <path d="M 97.457015 242.918125 
L 97.457015 22.318125 
" clip-path="url(#p6476baa12a)" style="fill: none; stroke: #b0b0b0; stroke-width: 0.8; stroke-linecap: square"/>
     </g>
     <g id="line2d_2">
      <defs>
       <path id="me7fe5dc185" d="M 0 0 
L 0 3.5 
" style="stroke: #000000; stroke-width: 0.8"/>
      </defs>
      <g>
       <use xlink:href="#me7fe5dc185" x="97.457015" y="242.918125" style="stroke: #000000; stroke-width: 0.8"/>
      </g>
     </g>
     <g id="text_1">
      <!-- 2 -->
      <g transform="translate(94.275765 257.516563) scale(0.1 -0.1)">
       <defs>
        <path id="DejaVuSans-32" d="M 1228 531 
L 3431 531 
L 3431 0 
L 469 0 
L 469 531 
Q 828 903 1448 1529 
Q 2069 2156 2228 2338 
Q 2531 2678 2651 2914 
Q 2772 3150 2772 3378 
Q 2772 3750 2511 3984 
Q 2250 4219 1831 4219 
Q 1534 4219 1204 4116 
Q 875 4013 500 3803 
L 500 4441 
Q 881 4594 1212 4672 
Q 1544 4750 1819 4750 
Q 2544 4750 2975 4387 
Q 3406 4025 3406 3419 
Q 3406 3131 3298 2873 
Q 3191 2616 2906 2266 
Q 2828 2175 2409 1742 
Q 1991 1309 1228 531 
z
" transform="scale(0.015625)"/>
       </defs>
       <use xlink:href="#DejaVuSans-32"/>
      </g>
     </g>
    </g>
    <g id="xtick_2">
     <g id="line2d_3">
      <path d="M 148.538131 242.918125 
L 148.538131 22.318125 
" clip-path="url(#p6476baa12a)" style="fill: none; stroke: #b0b0b0; stroke-width: 0.8; stroke-linecap: square"/>
     </g>
     <g id="line2d_4">
      <g>
       <use xlink:href="#me7fe5dc185" x="148.538131" y="242.918125" style="stroke: #000000; stroke-width: 0.8"/>
      </g>
     </g>
     <g id="text_2">
      <!-- 4 -->
      <g transform="translate(145.356881 257.516563) scale(0.1 -0.1)">
       <defs>
        <path id="DejaVuSans-34" d="M 2419 4116 
L 825 1625 
L 2419 1625 
L 2419 4116 
z
M 2253 4666 
L 3047 4666 
L 3047 1625 
L 3713 1625 
L 3713 1100 
L 3047 1100 
L 3047 0 
L 2419 0 
L 2419 1100 
L 313 1100 
L 313 1709 
L 2253 4666 
z
" transform="scale(0.015625)"/>
       </defs>
       <use xlink:href="#DejaVuSans-34"/>
      </g>
     </g>
    </g>
    <g id="xtick_3">
     <g id="line2d_5">
      <path d="M 199.619248 242.918125 
L 199.619248 22.318125 
" clip-path="url(#p6476baa12a)" style="fill: none; stroke: #b0b0b0; stroke-width: 0.8; stroke-linecap: square"/>
     </g>
     <g id="line2d_6">
      <g>
       <use xlink:href="#me7fe5dc185" x="199.619248" y="242.918125" style="stroke: #000000; stroke-width: 0.8"/>
      </g>
     </g>
     <g id="text_3">
      <!-- 6 -->
      <g transform="translate(196.437998 257.516563) scale(0.1 -0.1)">
       <defs>
        <path id="DejaVuSans-36" d="M 2113 2584 
Q 1688 2584 1439 2293 
Q 1191 2003 1191 1497 
Q 1191 994 1439 701 
Q 1688 409 2113 409 
Q 2538 409 2786 701 
Q 3034 994 3034 1497 
Q 3034 2003 2786 2293 
Q 2538 2584 2113 2584 
z
M 3366 4563 
L 3366 3988 
Q 3128 4100 2886 4159 
Q 2644 4219 2406 4219 
Q 1781 4219 1451 3797 
Q 1122 3375 1075 2522 
Q 1259 2794 1537 2939 
Q 1816 3084 2150 3084 
Q 2853 3084 3261 2657 
Q 3669 2231 3669 1497 
Q 3669 778 3244 343 
Q 2819 -91 2113 -91 
Q 1303 -91 875 529 
Q 447 1150 447 2328 
Q 447 3434 972 4092 
Q 1497 4750 2381 4750 
Q 2619 4750 2861 4703 
Q 3103 4656 3366 4563 
z
" transform="scale(0.015625)"/>
       </defs>
       <use xlink:href="#DejaVuSans-36"/>
      </g>
     </g>
    </g>
    <g id="xtick_4">
     <g id="line2d_7">
      <path d="M 250.700364 242.918125 
L 250.700364 22.318125 
" clip-path="url(#p6476baa12a)" style="fill: none; stroke: #b0b0b0; stroke-width: 0.8; stroke-linecap: square"/>
     </g>
     <g id="line2d_8">
      <g>
       <use xlink:href="#me7fe5dc185" x="250.700364" y="242.918125" style="stroke: #000000; stroke-width: 0.8"/>
      </g>
     </g>
     <g id="text_4">
      <!-- 8 -->
      <g transform="translate(247.519114 257.516563) scale(0.1 -0.1)">
       <defs>
        <path id="DejaVuSans-38" d="M 2034 2216 
Q 1584 2216 1326 1975 
Q 1069 1734 1069 1313 
Q 1069 891 1326 650 
Q 1584 409 2034 409 
Q 2484 409 2743 651 
Q 3003 894 3003 1313 
Q 3003 1734 2745 1975 
Q 2488 2216 2034 2216 
z
M 1403 2484 
Q 997 2584 770 2862 
Q 544 3141 544 3541 
Q 544 4100 942 4425 
Q 1341 4750 2034 4750 
Q 2731 4750 3128 4425 
Q 3525 4100 3525 3541 
Q 3525 3141 3298 2862 
Q 3072 2584 2669 2484 
Q 3125 2378 3379 2068 
Q 3634 1759 3634 1313 
Q 3634 634 3220 271 
Q 2806 -91 2034 -91 
Q 1263 -91 848 271 
Q 434 634 434 1313 
Q 434 1759 690 2068 
Q 947 2378 1403 2484 
z
M 1172 3481 
Q 1172 3119 1398 2916 
Q 1625 2713 2034 2713 
Q 2441 2713 2670 2916 
Q 2900 3119 2900 3481 
Q 2900 3844 2670 4047 
Q 2441 4250 2034 4250 
Q 1625 4250 1398 4047 
Q 1172 3844 1172 3481 
z
" transform="scale(0.015625)"/>
       </defs>
       <use xlink:href="#DejaVuSans-38"/>
      </g>
     </g>
    </g>
    <g id="xtick_5">
     <g id="line2d_9">
      <path d="M 301.781481 242.918125 
L 301.781481 22.318125 
" clip-path="url(#p6476baa12a)" style="fill: none; stroke: #b0b0b0; stroke-width: 0.8; stroke-linecap: square"/>
     </g>
     <g id="line2d_10">
      <g>
       <use xlink:href="#me7fe5dc185" x="301.781481" y="242.918125" style="stroke: #000000; stroke-width: 0.8"/>
      </g>
     </g>
     <g id="text_5">
      <!-- 10 -->
      <g transform="translate(295.418981 257.516563) scale(0.1 -0.1)">
       <defs>
        <path id="DejaVuSans-31" d="M 794 531 
L 1825 531 
L 1825 4091 
L 703 3866 
L 703 4441 
L 1819 4666 
L 2450 4666 
L 2450 531 
L 3481 531 
L 3481 0 
L 794 0 
L 794 531 
z
" transform="scale(0.015625)"/>
        <path id="DejaVuSans-30" d="M 2034 4250 
Q 1547 4250 1301 3770 
Q 1056 3291 1056 2328 
Q 1056 1369 1301 889 
Q 1547 409 2034 409 
Q 2525 409 2770 889 
Q 3016 1369 3016 2328 
Q 3016 3291 2770 3770 
Q 2525 4250 2034 4250 
z
M 2034 4750 
Q 2819 4750 3233 4129 
Q 3647 3509 3647 2328 
Q 3647 1150 3233 529 
Q 2819 -91 2034 -91 
Q 1250 -91 836 529 
Q 422 1150 422 2328 
Q 422 3509 836 4129 
Q 1250 4750 2034 4750 
z
" transform="scale(0.015625)"/>
       </defs>
       <use xlink:href="#DejaVuSans-31"/>
       <use xlink:href="#DejaVuSans-30" x="63.623047"/>
      </g>
     </g>
    </g>
    <g id="xtick_6">
     <g id="line2d_11">
      <path d="M 352.862597 242.918125 
L 352.862597 22.318125 
" clip-path="url(#p6476baa12a)" style="fill: none; stroke: #b0b0b0; stroke-width: 0.8; stroke-linecap: square"/>
     </g>
     <g id="line2d_12">
      <g>
       <use xlink:href="#me7fe5dc185" x="352.862597" y="242.918125" style="stroke: #000000; stroke-width: 0.8"/>
      </g>
     </g>
     <g id="text_6">
      <!-- 12 -->
      <g transform="translate(346.500097 257.516563) scale(0.1 -0.1)">
       <use xlink:href="#DejaVuSans-31"/>
       <use xlink:href="#DejaVuSans-32" x="63.623047"/>
      </g>
     </g>
    </g>
    <g id="xtick_7">
     <g id="line2d_13">
      <path d="M 403.943714 242.918125 
L 403.943714 22.318125 
" clip-path="url(#p6476baa12a)" style="fill: none; stroke: #b0b0b0; stroke-width: 0.8; stroke-linecap: square"/>
     </g>
     <g id="line2d_14">
      <g>
       <use xlink:href="#me7fe5dc185" x="403.943714" y="242.918125" style="stroke: #000000; stroke-width: 0.8"/>
      </g>
     </g>
     <g id="text_7">
      <!-- 14 -->
      <g transform="translate(397.581214 257.516563) scale(0.1 -0.1)">
       <use xlink:href="#DejaVuSans-31"/>
       <use xlink:href="#DejaVuSans-34" x="63.623047"/>
      </g>
     </g>
    </g>
    <g id="text_8">
     <!-- Time [s] -->
     <g transform="translate(220.677031 271.194687) scale(0.1 -0.1)">
      <defs>
       <path id="DejaVuSans-54" d="M -19 4666 
L 3928 4666 
L 3928 4134 
L 2272 4134 
L 2272 0 
L 1638 0 
L 1638 4134 
L -19 4134 
L -19 4666 
z
" transform="scale(0.015625)"/>
       <path id="DejaVuSans-69" d="M 603 3500 
L 1178 3500 
L 1178 0 
L 603 0 
L 603 3500 
z
M 603 4863 
L 1178 4863 
L 1178 4134 
L 603 4134 
L 603 4863 
z
" transform="scale(0.015625)"/>
       <path id="DejaVuSans-6d" d="M 3328 2828 
Q 3544 3216 3844 3400 
Q 4144 3584 4550 3584 
Q 5097 3584 5394 3201 
Q 5691 2819 5691 2113 
L 5691 0 
L 5113 0 
L 5113 2094 
Q 5113 2597 4934 2840 
Q 4756 3084 4391 3084 
Q 3944 3084 3684 2787 
Q 3425 2491 3425 1978 
L 3425 0 
L 2847 0 
L 2847 2094 
Q 2847 2600 2669 2842 
Q 2491 3084 2119 3084 
Q 1678 3084 1418 2786 
Q 1159 2488 1159 1978 
L 1159 0 
L 581 0 
L 581 3500 
L 1159 3500 
L 1159 2956 
Q 1356 3278 1631 3431 
Q 1906 3584 2284 3584 
Q 2666 3584 2933 3390 
Q 3200 3197 3328 2828 
z
" transform="scale(0.015625)"/>
       <path id="DejaVuSans-65" d="M 3597 1894 
L 3597 1613 
L 953 1613 
Q 991 1019 1311 708 
Q 1631 397 2203 397 
Q 2534 397 2845 478 
Q 3156 559 3463 722 
L 3463 178 
Q 3153 47 2828 -22 
Q 2503 -91 2169 -91 
Q 1331 -91 842 396 
Q 353 884 353 1716 
Q 353 2575 817 3079 
Q 1281 3584 2069 3584 
Q 2775 3584 3186 3129 
Q 3597 2675 3597 1894 
z
M 3022 2063 
Q 3016 2534 2758 2815 
Q 2500 3097 2075 3097 
Q 1594 3097 1305 2825 
Q 1016 2553 972 2059 
L 3022 2063 
z
" transform="scale(0.015625)"/>
       <path id="DejaVuSans-20" transform="scale(0.015625)"/>
       <path id="DejaVuSans-5b" d="M 550 4863 
L 1875 4863 
L 1875 4416 
L 1125 4416 
L 1125 -397 
L 1875 -397 
L 1875 -844 
L 550 -844 
L 550 4863 
z
" transform="scale(0.015625)"/>
       <path id="DejaVuSans-73" d="M 2834 3397 
L 2834 2853 
Q 2591 2978 2328 3040 
Q 2066 3103 1784 3103 
Q 1356 3103 1142 2972 
Q 928 2841 928 2578 
Q 928 2378 1081 2264 
Q 1234 2150 1697 2047 
L 1894 2003 
Q 2506 1872 2764 1633 
Q 3022 1394 3022 966 
Q 3022 478 2636 193 
Q 2250 -91 1575 -91 
Q 1294 -91 989 -36 
Q 684 19 347 128 
L 347 722 
Q 666 556 975 473 
Q 1284 391 1588 391 
Q 1994 391 2212 530 
Q 2431 669 2431 922 
Q 2431 1156 2273 1281 
Q 2116 1406 1581 1522 
L 1381 1569 
Q 847 1681 609 1914 
Q 372 2147 372 2553 
Q 372 3047 722 3315 
Q 1072 3584 1716 3584 
Q 2034 3584 2315 3537 
Q 2597 3491 2834 3397 
z
" transform="scale(0.015625)"/>
       <path id="DejaVuSans-5d" d="M 1947 4863 
L 1947 -844 
L 622 -844 
L 622 -397 
L 1369 -397 
L 1369 4416 
L 622 4416 
L 622 4863 
L 1947 4863 
z
" transform="scale(0.015625)"/>
      </defs>
      <use xlink:href="#DejaVuSans-54"/>
      <use xlink:href="#DejaVuSans-69" x="57.958984"/>
      <use xlink:href="#DejaVuSans-6d" x="85.742188"/>
      <use xlink:href="#DejaVuSans-65" x="183.154297"/>
      <use xlink:href="#DejaVuSans-20" x="244.677734"/>
      <use xlink:href="#DejaVuSans-5b" x="276.464844"/>
      <use xlink:href="#DejaVuSans-73" x="315.478516"/>
      <use xlink:href="#DejaVuSans-5d" x="367.578125"/>
     </g>
    </g>
   </g>
   <g id="matplotlib.axis_2">
    <g id="ytick_1">
     <g id="line2d_15">
      <path d="M 64.885937 219.351674 
L 417.125937 219.351674 
" clip-path="url(#p6476baa12a)" style="fill: none; stroke: #b0b0b0; stroke-width: 0.8; stroke-linecap: square"/>
     </g>
     <g id="line2d_16">
      <defs>
       <path id="me642a51cf9" d="M 0 0 
L -3.5 0 
" style="stroke: #000000; stroke-width: 0.8"/>
      </defs>
      <g>
       <use xlink:href="#me642a51cf9" x="64.885937" y="219.351674" style="stroke: #000000; stroke-width: 0.8"/>
      </g>
     </g>
     <g id="text_9">
      <!-- −0.075 -->
      <g transform="translate(20.878125 223.150892) scale(0.1 -0.1)">
       <defs>
        <path id="DejaVuSans-2212" d="M 678 2272 
L 4684 2272 
L 4684 1741 
L 678 1741 
L 678 2272 
z
" transform="scale(0.015625)"/>
        <path id="DejaVuSans-2e" d="M 684 794 
L 1344 794 
L 1344 0 
L 684 0 
L 684 794 
z
" transform="scale(0.015625)"/>
        <path id="DejaVuSans-37" d="M 525 4666 
L 3525 4666 
L 3525 4397 
L 1831 0 
L 1172 0 
L 2766 4134 
L 525 4134 
L 525 4666 
z
" transform="scale(0.015625)"/>
        <path id="DejaVuSans-35" d="M 691 4666 
L 3169 4666 
L 3169 4134 
L 1269 4134 
L 1269 2991 
Q 1406 3038 1543 3061 
Q 1681 3084 1819 3084 
Q 2600 3084 3056 2656 
Q 3513 2228 3513 1497 
Q 3513 744 3044 326 
Q 2575 -91 1722 -91 
Q 1428 -91 1123 -41 
Q 819 9 494 109 
L 494 744 
Q 775 591 1075 516 
Q 1375 441 1709 441 
Q 2250 441 2565 725 
Q 2881 1009 2881 1497 
Q 2881 1984 2565 2268 
Q 2250 2553 1709 2553 
Q 1456 2553 1204 2497 
Q 953 2441 691 2322 
L 691 4666 
z
" transform="scale(0.015625)"/>
       </defs>
       <use xlink:href="#DejaVuSans-2212"/>
       <use xlink:href="#DejaVuSans-30" x="83.789062"/>
       <use xlink:href="#DejaVuSans-2e" x="147.412109"/>
       <use xlink:href="#DejaVuSans-30" x="179.199219"/>
       <use xlink:href="#DejaVuSans-37" x="242.822266"/>
       <use xlink:href="#DejaVuSans-35" x="306.445312"/>
      </g>
     </g>
    </g>
    <g id="ytick_2">
     <g id="line2d_17">
      <path d="M 64.885937 190.918095 
L 417.125937 190.918095 
" clip-path="url(#p6476baa12a)" style="fill: none; stroke: #b0b0b0; stroke-width: 0.8; stroke-linecap: square"/>
     </g>
     <g id="line2d_18">
      <g>
       <use xlink:href="#me642a51cf9" x="64.885937" y="190.918095" style="stroke: #000000; stroke-width: 0.8"/>
      </g>
     </g>
     <g id="text_10">
      <!-- −0.050 -->
      <g transform="translate(20.878125 194.717314) scale(0.1 -0.1)">
       <use xlink:href="#DejaVuSans-2212"/>
       <use xlink:href="#DejaVuSans-30" x="83.789062"/>
       <use xlink:href="#DejaVuSans-2e" x="147.412109"/>
       <use xlink:href="#DejaVuSans-30" x="179.199219"/>
       <use xlink:href="#DejaVuSans-35" x="242.822266"/>
       <use xlink:href="#DejaVuSans-30" x="306.445312"/>
      </g>
     </g>
    </g>
    <g id="ytick_3">
     <g id="line2d_19">
      <path d="M 64.885937 162.484517 
L 417.125937 162.484517 
" clip-path="url(#p6476baa12a)" style="fill: none; stroke: #b0b0b0; stroke-width: 0.8; stroke-linecap: square"/>
     </g>
     <g id="line2d_20">
      <g>
       <use xlink:href="#me642a51cf9" x="64.885937" y="162.484517" style="stroke: #000000; stroke-width: 0.8"/>
      </g>
     </g>
     <g id="text_11">
      <!-- −0.025 -->
      <g transform="translate(20.878125 166.283736) scale(0.1 -0.1)">
       <use xlink:href="#DejaVuSans-2212"/>
       <use xlink:href="#DejaVuSans-30" x="83.789062"/>
       <use xlink:href="#DejaVuSans-2e" x="147.412109"/>
       <use xlink:href="#DejaVuSans-30" x="179.199219"/>
       <use xlink:href="#DejaVuSans-32" x="242.822266"/>
       <use xlink:href="#DejaVuSans-35" x="306.445312"/>
      </g>
     </g>
    </g>
    <g id="ytick_4">
     <g id="line2d_21">
      <path d="M 64.885937 134.050939 
L 417.125937 134.050939 
" clip-path="url(#p6476baa12a)" style="fill: none; stroke: #b0b0b0; stroke-width: 0.8; stroke-linecap: square"/>
     </g>
     <g id="line2d_22">
      <g>
       <use xlink:href="#me642a51cf9" x="64.885937" y="134.050939" style="stroke: #000000; stroke-width: 0.8"/>
      </g>
     </g>
     <g id="text_12">
      <!-- 0.000 -->
      <g transform="translate(29.257812 137.850158) scale(0.1 -0.1)">
       <use xlink:href="#DejaVuSans-30"/>
       <use xlink:href="#DejaVuSans-2e" x="63.623047"/>
       <use xlink:href="#DejaVuSans-30" x="95.410156"/>
       <use xlink:href="#DejaVuSans-30" x="159.033203"/>
       <use xlink:href="#DejaVuSans-30" x="222.65625"/>
      </g>
     </g>
    </g>
    <g id="ytick_5">
     <g id="line2d_23">
      <path d="M 64.885937 105.617361 
L 417.125937 105.617361 
" clip-path="url(#p6476baa12a)" style="fill: none; stroke: #b0b0b0; stroke-width: 0.8; stroke-linecap: square"/>
     </g>
     <g id="line2d_24">
      <g>
       <use xlink:href="#me642a51cf9" x="64.885937" y="105.617361" style="stroke: #000000; stroke-width: 0.8"/>
      </g>
     </g>
     <g id="text_13">
      <!-- 0.025 -->
      <g transform="translate(29.257812 109.41658) scale(0.1 -0.1)">
       <use xlink:href="#DejaVuSans-30"/>
       <use xlink:href="#DejaVuSans-2e" x="63.623047"/>
       <use xlink:href="#DejaVuSans-30" x="95.410156"/>
       <use xlink:href="#DejaVuSans-32" x="159.033203"/>
       <use xlink:href="#DejaVuSans-35" x="222.65625"/>
      </g>
     </g>
    </g>
    <g id="ytick_6">
     <g id="line2d_25">
      <path d="M 64.885937 77.183783 
L 417.125937 77.183783 
" clip-path="url(#p6476baa12a)" style="fill: none; stroke: #b0b0b0; stroke-width: 0.8; stroke-linecap: square"/>
     </g>
     <g id="line2d_26">
      <g>
       <use xlink:href="#me642a51cf9" x="64.885937" y="77.183783" style="stroke: #000000; stroke-width: 0.8"/>
      </g>
     </g>
     <g id="text_14">
      <!-- 0.050 -->
      <g transform="translate(29.257812 80.983002) scale(0.1 -0.1)">
       <use xlink:href="#DejaVuSans-30"/>
       <use xlink:href="#DejaVuSans-2e" x="63.623047"/>
       <use xlink:href="#DejaVuSans-30" x="95.410156"/>
       <use xlink:href="#DejaVuSans-35" x="159.033203"/>
       <use xlink:href="#DejaVuSans-30" x="222.65625"/>
      </g>
     </g>
    </g>
    <g id="ytick_7">
     <g id="line2d_27">
      <path d="M 64.885937 48.750205 
L 417.125937 48.750205 
" clip-path="url(#p6476baa12a)" style="fill: none; stroke: #b0b0b0; stroke-width: 0.8; stroke-linecap: square"/>
     </g>
     <g id="line2d_28">
      <g>
       <use xlink:href="#me642a51cf9" x="64.885937" y="48.750205" style="stroke: #000000; stroke-width: 0.8"/>
      </g>
     </g>
     <g id="text_15">
      <!-- 0.075 -->
      <g transform="translate(29.257812 52.549424) scale(0.1 -0.1)">
       <use xlink:href="#DejaVuSans-30"/>
       <use xlink:href="#DejaVuSans-2e" x="63.623047"/>
       <use xlink:href="#DejaVuSans-30" x="95.410156"/>
       <use xlink:href="#DejaVuSans-37" x="159.033203"/>
       <use xlink:href="#DejaVuSans-35" x="222.65625"/>
      </g>
     </g>
    </g>
    <g id="text_16">
     <!-- Signal -->
     <g transform="translate(14.798437 147.9775) rotate(-90) scale(0.1 -0.1)">
      <defs>
       <path id="DejaVuSans-53" d="M 3425 4513 
L 3425 3897 
Q 3066 4069 2747 4153 
Q 2428 4238 2131 4238 
Q 1616 4238 1336 4038 
Q 1056 3838 1056 3469 
Q 1056 3159 1242 3001 
Q 1428 2844 1947 2747 
L 2328 2669 
Q 3034 2534 3370 2195 
Q 3706 1856 3706 1288 
Q 3706 609 3251 259 
Q 2797 -91 1919 -91 
Q 1588 -91 1214 -16 
Q 841 59 441 206 
L 441 856 
Q 825 641 1194 531 
Q 1563 422 1919 422 
Q 2459 422 2753 634 
Q 3047 847 3047 1241 
Q 3047 1584 2836 1778 
Q 2625 1972 2144 2069 
L 1759 2144 
Q 1053 2284 737 2584 
Q 422 2884 422 3419 
Q 422 4038 858 4394 
Q 1294 4750 2059 4750 
Q 2388 4750 2728 4690 
Q 3069 4631 3425 4513 
z
" transform="scale(0.015625)"/>
       <path id="DejaVuSans-67" d="M 2906 1791 
Q 2906 2416 2648 2759 
Q 2391 3103 1925 3103 
Q 1463 3103 1205 2759 
Q 947 2416 947 1791 
Q 947 1169 1205 825 
Q 1463 481 1925 481 
Q 2391 481 2648 825 
Q 2906 1169 2906 1791 
z
M 3481 434 
Q 3481 -459 3084 -895 
Q 2688 -1331 1869 -1331 
Q 1566 -1331 1297 -1286 
Q 1028 -1241 775 -1147 
L 775 -588 
Q 1028 -725 1275 -790 
Q 1522 -856 1778 -856 
Q 2344 -856 2625 -561 
Q 2906 -266 2906 331 
L 2906 616 
Q 2728 306 2450 153 
Q 2172 0 1784 0 
Q 1141 0 747 490 
Q 353 981 353 1791 
Q 353 2603 747 3093 
Q 1141 3584 1784 3584 
Q 2172 3584 2450 3431 
Q 2728 3278 2906 2969 
L 2906 3500 
L 3481 3500 
L 3481 434 
z
" transform="scale(0.015625)"/>
       <path id="DejaVuSans-6e" d="M 3513 2113 
L 3513 0 
L 2938 0 
L 2938 2094 
Q 2938 2591 2744 2837 
Q 2550 3084 2163 3084 
Q 1697 3084 1428 2787 
Q 1159 2491 1159 1978 
L 1159 0 
L 581 0 
L 581 3500 
L 1159 3500 
L 1159 2956 
Q 1366 3272 1645 3428 
Q 1925 3584 2291 3584 
Q 2894 3584 3203 3211 
Q 3513 2838 3513 2113 
z
" transform="scale(0.015625)"/>
       <path id="DejaVuSans-61" d="M 2194 1759 
Q 1497 1759 1228 1600 
Q 959 1441 959 1056 
Q 959 750 1161 570 
Q 1363 391 1709 391 
Q 2188 391 2477 730 
Q 2766 1069 2766 1631 
L 2766 1759 
L 2194 1759 
z
M 3341 1997 
L 3341 0 
L 2766 0 
L 2766 531 
Q 2569 213 2275 61 
Q 1981 -91 1556 -91 
Q 1019 -91 701 211 
Q 384 513 384 1019 
Q 384 1609 779 1909 
Q 1175 2209 1959 2209 
L 2766 2209 
L 2766 2266 
Q 2766 2663 2505 2880 
Q 2244 3097 1772 3097 
Q 1472 3097 1187 3025 
Q 903 2953 641 2809 
L 641 3341 
Q 956 3463 1253 3523 
Q 1550 3584 1831 3584 
Q 2591 3584 2966 3190 
Q 3341 2797 3341 1997 
z
" transform="scale(0.015625)"/>
       <path id="DejaVuSans-6c" d="M 603 4863 
L 1178 4863 
L 1178 0 
L 603 0 
L 603 4863 
z
" transform="scale(0.015625)"/>
      </defs>
      <use xlink:href="#DejaVuSans-53"/>
      <use xlink:href="#DejaVuSans-69" x="63.476562"/>
      <use xlink:href="#DejaVuSans-67" x="91.259766"/>
      <use xlink:href="#DejaVuSans-6e" x="154.736328"/>
      <use xlink:href="#DejaVuSans-61" x="218.115234"/>
      <use xlink:href="#DejaVuSans-6c" x="279.394531"/>
     </g>
    </g>
   </g>
   <g id="line2d_29">
    <path d="M 64.88516 133.97988 
L 65.641161 134.065134 
L 66.420149 134.120456 
L 67.852975 134.010655 
L 68.764774 134.151585 
L 69.689343 133.941204 
L 70.169506 133.965084 
L 71.359698 134.174556 
L 72.634173 133.92933 
L 73.921418 134.154149 
L 74.971136 133.835399 
L 75.390002 134.079664 
L 76.033624 134.3279 
L 76.472922 134.136582 
L 77.17018 133.71608 
L 77.446019 133.785676 
L 78.007912 134.240302 
L 78.375696 134.424232 
L 78.694953 134.357866 
L 79.175116 133.900952 
L 79.634847 133.603431 
L 79.941334 133.718331 
L 80.29124 134.1037 
L 80.776511 134.548882 
L 81.026809 134.535971 
L 81.34862 134.230341 
L 82.114837 133.458929 
L 82.354919 133.565222 
L 82.694609 134.03854 
L 83.259056 134.728563 
L 83.486367 134.679953 
L 83.759651 134.361296 
L 84.561625 133.260061 
L 84.758288 133.364611 
L 85.059667 133.848813 
L 85.72883 134.937806 
L 85.935709 134.883908 
L 86.16302 134.550128 
L 87.0314 133.021918 
L 87.217846 133.177369 
L 87.501347 133.761315 
L 88.160294 135.197075 
L 88.344186 135.181026 
L 88.53574 134.87241 
L 88.972484 133.598539 
L 89.355593 132.761766 
L 89.542039 132.762213 
L 89.728485 133.032916 
L 90.019648 133.949046 
L 90.556 135.4989 
L 90.737338 135.550933 
L 90.90846 135.286685 
L 91.204731 134.342425 
L 91.799827 132.403899 
L 91.981165 132.361882 
L 92.131854 132.628281 
L 92.425571 133.739945 
L 93.041099 135.956629 
L 93.196897 135.942265 
L 93.365465 135.625088 
L 93.613208 134.583227 
L 94.233844 131.916264 
L 94.371764 131.836494 
L 94.397304 131.856629 
L 94.54544 132.163594 
L 94.818724 133.342021 
L 95.505765 136.507138 
L 95.630914 136.521912 
L 95.648793 136.502346 
L 95.789266 136.144266 
L 96.065104 134.651809 
L 96.706173 131.275514 
L 96.826214 131.261823 
L 96.846646 131.283296 
L 96.994782 131.63839 
L 97.219539 132.865783 
L 97.947445 137.24334 
L 98.034283 137.262771 
L 98.07004 137.218403 
L 98.215621 136.756963 
L 98.488906 135.003956 
L 99.155515 130.5041 
L 99.257677 130.439465 
L 99.295988 130.478861 
L 99.421137 130.871166 
L 99.653556 132.517851 
L 100.401895 138.117357 
L 100.483625 138.1025 
L 100.509166 138.063989 
L 100.649639 137.572839 
L 100.874396 135.823037 
L 101.617627 129.430678 
L 101.681479 129.403618 
L 101.724898 129.463399 
L 101.855155 129.997581 
L 102.102898 132.151694 
L 102.856345 139.248801 
L 102.917643 139.257332 
L 102.955954 139.196861 
L 103.081103 138.631858 
L 103.310968 136.31734 
L 104.064415 128.190552 
L 104.120604 128.177817 
L 104.161469 128.242477 
L 104.289172 128.832178 
L 104.506267 131.100885 
L 105.318458 140.713572 
L 105.387417 140.621776 
L 105.512566 139.907301 
L 105.750094 136.983587 
L 106.523973 126.605401 
L 106.567392 126.59955 
L 106.608257 126.677788 
L 106.725744 127.365009 
L 106.940285 130.235329 
L 107.757584 142.444149 
L 107.821435 142.343844 
L 107.94403 141.543236 
L 108.161125 138.361534 
L 108.98864 124.609552 
L 109.047383 124.728324 
L 109.167424 125.657766 
L 109.394735 129.541839 
L 110.194155 144.582966 
L 110.227358 144.573026 
L 110.258007 144.497443 
L 110.367831 143.698984 
L 110.567048 140.259252 
L 111.422657 122.22589 
L 111.460968 122.286278 
L 111.558022 122.949874 
L 111.744469 126.088876 
L 112.112253 136.988706 
L 112.523456 146.590446 
L 112.648605 147.264508 
L 112.68947 147.188468 
L 112.789079 146.370835 
L 112.978079 142.562093 
L 113.425039 127.605728 
L 113.769837 119.76881 
L 113.864337 119.357149 
L 113.912864 119.470256 
L 114.020135 120.503246 
L 114.214243 124.99361 
L 115.082623 150.491299 
L 115.141366 150.289827 
L 115.261407 148.72053 
L 115.48361 142.329605 
L 116.306017 115.784544 
L 116.349436 115.893429 
L 116.449044 117.030966 
L 116.638045 122.337771 
L 117.105437 143.937273 
L 117.437465 153.857378 
L 117.521749 154.298849 
L 117.57283 154.119069 
L 117.682654 152.600633 
L 117.881871 146.103611 
L 118.740035 111.475802 
L 118.783454 111.629528 
L 118.885616 113.11934 
L 119.082278 119.892244 
L 119.51136 144.53591 
L 119.861266 158.172637 
L 119.963429 159.015721 
L 120.011956 158.819287 
L 120.116672 157.037177 
L 120.313335 149.081954 
L 121.174052 106.45551 
L 121.220025 106.635126 
L 121.322188 108.361205 
L 121.511188 116.137222 
L 121.935162 145.925626 
L 122.300392 163.750824 
L 122.394892 164.683609 
L 122.443419 164.43307 
L 122.55069 162.156881 
L 122.755014 152.12752 
L 123.618286 100.32309 
L 123.664259 100.573168 
L 123.768975 102.930488 
L 123.965638 113.573326 
L 124.82891 171.209964 
L 124.877437 170.923672 
L 124.984707 168.303734 
L 125.18137 156.887964 
L 126.04975 93.04149 
L 126.105939 93.500723 
L 126.220872 97.141436 
L 126.437966 112.481321 
L 127.268035 178.96876 
L 127.275698 178.961447 
L 127.319117 178.590647 
L 127.426387 175.262471 
L 127.625604 160.678012 
L 128.481213 84.816251 
L 128.519524 85.052959 
L 128.614024 87.645582 
L 128.795362 100.091653 
L 129.158039 144.312892 
L 129.579458 185.268728 
L 129.702053 187.94536 
L 129.742918 187.628955 
L 129.839972 184.43935 
L 130.028973 169.322469 
L 130.447838 112.72189 
L 130.813068 77.581687 
L 130.917785 75.468701 
L 130.966312 75.904757 
L 131.071028 79.935866 
L 131.265137 97.801478 
L 132.133517 197.730562 
L 132.187152 197.096889 
L 132.29953 191.899459 
L 132.508963 169.779787 
L 133.351803 65.156604 
L 133.372235 65.249771 
L 133.441195 67.002454 
L 133.586776 77.729357 
L 133.862614 118.169131 
L 134.465372 205.603456 
L 134.567534 208.085077 
L 134.613507 207.558245 
L 134.718224 202.552377 
L 134.912332 180.278127 
L 135.780712 54.611122 
L 135.836901 55.42925 
L 135.951834 62.239226 
L 136.166375 91.020637 
L 136.998998 218.592435 
L 137.00666 218.581178 
L 137.047525 217.957992 
L 137.152241 212.049442 
L 137.351458 185.313732 
L 138.212176 44.673707 
L 138.253041 45.161755 
L 138.350095 50.206073 
L 138.533987 73.760408 
L 138.934974 162.327303 
L 139.318083 224.37258 
L 139.427907 228.183893 
L 139.47388 227.49538 
L 139.578597 220.96684 
L 139.777813 191.76679 
L 140.643639 36.019084 
L 140.689612 36.70129 
L 140.791775 43.147048 
L 140.985883 72.582744 
L 141.854263 235.512107 
L 141.90279 234.695267 
L 142.01006 227.405704 
L 142.209277 195.762025 
L 143.069995 29.725754 
L 143.105751 30.215478 
L 143.197698 35.622943 
L 143.379036 62.10845 
L 143.772361 161.063372 
L 144.160578 234.935156 
L 144.280618 239.969171 
L 144.324037 239.334078 
L 144.423646 232.912289 
L 144.612646 203.068518 
L 145.488688 27.04284 
L 145.549985 28.367826 
L 145.670026 38.484058 
L 145.892229 79.758411 
L 146.676325 240.91366 
L 146.70442 241.184596 
L 146.752947 240.290144 
L 146.860217 232.272904 
L 147.067096 196.390459 
L 147.912489 27.978601 
L 147.922706 28.022619 
L 147.976341 29.446614 
L 148.098936 40.084465 
L 148.323693 82.908509 
L 149.072032 237.975719 
L 149.118005 238.766465 
L 149.17164 237.770579 
L 149.284019 229.239671 
L 149.49856 192.302428 
L 150.326075 31.756312 
L 150.331183 31.74823 
L 150.354169 31.93542 
L 150.428237 35.028158 
L 150.58148 52.951138 
L 150.885413 120.846533 
L 151.408995 228.178684 
L 151.534144 233.39244 
L 151.575009 232.846982 
L 151.672063 227.233182 
L 151.85851 200.825799 
L 152.300362 95.438531 
L 152.647714 40.812299 
L 152.742214 37.774156 
L 152.793295 38.606289 
L 152.903119 46.122333 
L 153.115106 79.34455 
L 153.950283 226.450285 
L 153.968162 226.365409 
L 154.032013 224.460741 
L 154.169932 212.008335 
L 154.430446 163.650713 
L 155.051083 48.553638 
L 155.153245 45.346562 
L 155.201772 46.036149 
L 155.309042 52.395194 
L 155.513367 80.577881 
L 156.366423 218.85646 
L 156.384301 218.753324 
L 156.450706 216.735592 
L 156.593734 204.057237 
L 156.87468 154.989158 
L 157.454451 57.03798 
L 157.569384 53.519897 
L 157.612803 54.008467 
L 157.712411 58.82928 
L 157.901412 81.099963 
L 158.777454 210.773026 
L 158.825981 210.11681 
L 158.935805 204.208369 
L 159.147792 178.231089 
L 159.990631 61.599024 
L 160.016172 61.766442 
L 160.095348 64.313185 
L 160.253699 78.168832 
L 160.585727 131.750208 
L 161.06589 198.634946 
L 161.193593 202.284569 
L 161.231904 201.937062 
L 161.328958 198.204609 
L 161.51285 180.848848 
L 161.929162 113.642501 
L 162.296946 72.400963 
L 162.406771 69.731646 
L 162.452744 70.222917 
L 162.55746 74.788407 
L 162.764339 95.54158 
L 163.619948 193.878034 
L 163.630165 193.856567 
L 163.681246 193.138231 
L 163.798732 187.623331 
L 164.018381 164.615661 
L 164.771829 78.782855 
L 164.82291 78.30266 
L 164.876545 78.852568 
L 164.991478 83.42037 
L 165.206019 102.554409 
L 166.028425 185.718667 
L 166.04375 185.753351 
L 166.082061 185.464772 
L 166.179115 182.364885 
L 166.373223 167.44067 
L 167.249265 86.81502 
L 167.285022 86.99459 
L 167.374414 89.097592 
L 167.542982 99.37648 
L 167.915875 140.055866 
L 168.337294 175.494991 
L 168.452227 177.603491 
L 168.4982 177.292935 
L 168.602916 174.327701 
L 168.812349 160.746314 
L 169.675621 94.404107 
L 169.698607 94.47312 
L 169.770121 95.63579 
L 169.92081 102.609017 
L 170.257946 131.540301 
L 170.750879 168.323537 
L 170.868366 169.896493 
L 170.909231 169.700639 
L 171.008839 167.734217 
L 171.190177 158.911738 
L 171.601381 124.001949 
L 171.976827 102.283358 
L 172.076436 101.026369 
L 172.124963 101.318243 
L 172.234787 104.030619 
L 172.467207 116.599035 
L 173.266627 163.751472 
L 173.292167 163.805735 
L 173.33814 163.594142 
L 173.440303 161.602895 
L 173.626749 152.635483 
L 174.46448 106.528127 
L 174.500237 106.655798 
L 174.597291 108.126412 
L 174.7914 115.091431 
L 175.123427 136.713325 
L 175.52186 157.168426 
L 175.690428 159.718736 
L 175.718523 159.641856 
L 175.797699 158.558562 
L 175.966267 152.472932 
L 176.438767 124.550142 
L 176.768241 111.130467 
L 176.870403 110.430691 
L 176.916376 110.57433 
L 177.021093 111.916095 
L 177.192215 117.506033 
L 177.626405 142.50889 
L 178.004405 156.612526 
L 178.070811 157.019121 
L 178.124446 156.73531 
L 178.247041 154.312845 
L 178.517771 143.56274 
L 179.240569 112.702305 
L 179.304421 112.434344 
L 179.358056 112.647648 
L 179.462772 114.416339 
L 179.667097 122.603678 
L 180.420544 154.762199 
L 180.461409 154.882499 
L 180.517599 154.67706 
L 180.645302 152.945588 
L 180.849626 146.788307 
L 181.70779 113.571509 
L 181.746101 113.694977 
L 181.840601 115.07003 
L 182.067912 122.548342 
L 182.9414 153.105959 
L 182.946508 153.104348 
L 182.997589 152.939817 
L 183.099752 151.640839 
L 183.278536 145.809082 
L 184.085618 115.568789 
L 184.111159 115.528636 
L 184.159686 115.695763 
L 184.284835 117.237445 
L 184.517254 123.152055 
L 185.38308 151.743163 
L 185.421391 151.63127 
L 185.515891 150.378529 
L 185.755972 143.289926 
L 186.598812 118.33011 
L 186.634568 118.308442 
L 186.677987 118.404837 
L 186.772488 119.244664 
L 186.930839 123.151705 
L 187.786449 148.833746 
L 187.794111 148.828929 
L 187.852854 148.579439 
L 188.021422 146.584277 
L 188.25895 141.329356 
L 189.004735 120.960035 
L 189.078802 120.602867 
L 189.132438 120.799257 
L 189.249924 122.501009 
L 189.707101 134.092648 
L 190.131074 144.304681 
L 190.355831 145.030691 
L 190.414575 144.924814 
L 190.511629 144.064761 
L 190.692967 139.863239 
L 191.288063 125.830862 
L 191.448968 124.294074 
L 191.479617 124.341207 
L 191.584334 125.031558 
L 191.952118 129.289753 
L 192.634052 141.44611 
L 192.766863 142.257719 
L 192.810282 142.140449 
L 192.920106 140.941374 
L 193.775716 128.304998 
L 193.837013 128.385333 
L 193.974932 128.547586 
L 194.018351 128.51185 
L 194.097527 128.477688 
L 194.133284 128.549611 
L 194.22523 129.225185 
L 194.437217 133.078754 
L 194.697731 135.900194 
L 194.899501 138.000102 
L 195.075731 139.408425 
L 195.111488 139.330371 
L 195.221313 138.386751 
L 195.54057 135.97306 
L 195.675935 134.636318 
L 196.013071 130.445362 
L 196.061598 130.514205 
L 196.207179 130.812759 
L 196.260814 130.721469 
L 196.414058 130.292512 
L 196.470247 130.455577 
L 196.58518 131.746315 
L 196.932532 135.522211 
L 197.060235 136.061773 
L 197.338627 138.498587 
L 197.428019 138.055935 
L 198.268304 129.906256 
L 198.367913 130.228754 
L 198.490507 130.578638 
L 198.539035 130.502299 
L 198.682062 130.102774 
L 198.738251 130.272904 
L 198.85063 131.64727 
L 199.218414 136.205691 
L 199.346117 137.002047 
L 199.619401 139.904338 
L 199.696023 139.533829 
L 200.303889 132.86617 
L 200.579727 129.017835 
L 200.671673 129.093973 
L 200.717646 129.088865 
L 200.748295 129.022069 
L 200.873444 128.24597 
L 200.97816 127.762508 
L 201.026687 127.921953 
L 201.133958 129.374486 
L 201.545161 135.241877 
L 201.716283 138.198595 
L 201.94104 141.335173 
L 201.966581 141.292729 
L 202.066189 140.59068 
L 202.285838 139.59804 
L 202.365014 139.484044 
L 202.454406 138.675425 
L 202.640852 134.223059 
L 202.898812 130.251996 
L 203.072488 128.541332 
L 203.310016 125.529486 
L 203.361097 125.7439 
L 203.50157 127.823332 
L 203.777408 130.735447 
L 203.912773 132.852138 
L 204.344409 140.500036 
L 204.433801 140.732044 
L 204.589599 142.150611 
L 204.681545 142.654649 
L 204.730072 142.456727 
L 204.842451 140.610698 
L 205.240884 133.944425 
L 205.419668 129.914129 
L 205.659749 125.833064 
L 205.67252 125.842784 
L 205.744033 126.164577 
L 205.889615 126.783941 
L 205.938142 126.701692 
L 206.05052 126.411648 
L 206.096493 126.555946 
L 206.190993 127.838136 
L 207.028725 143.219643 
L 207.061927 143.141336 
L 207.064481 143.12805 
L 207.174306 141.896509 
L 207.416941 139.994792 
L 207.508888 139.534863 
L 207.631482 137.274024 
L 208.035024 129.326834 
L 208.157618 128.313742 
L 208.413024 124.886506 
L 208.484538 125.354809 
L 209.087296 134.415651 
L 209.38612 140.120589 
L 209.462742 140.01948 
L 209.501053 140.00098 
L 209.539364 140.08927 
L 209.64408 140.999253 
L 209.799878 142.392991 
L 209.848405 142.186796 
L 209.960784 140.227229 
L 210.274933 135.33645 
L 210.394974 134.258351 
L 210.59419 129.340303 
L 210.755096 127.202686 
L 210.785744 127.267526 
L 210.972191 128.304861 
L 211.059029 127.926582 
L 211.199502 127.063247 
L 211.250583 127.295417 
L 211.362962 129.332472 
L 211.677111 134.554561 
L 211.784381 134.981359 
L 211.90953 137.051909 
L 212.141949 140.983886 
L 212.182814 140.8431 
L 212.420342 138.710039 
L 212.53272 139.231244 
L 212.609342 139.523143 
L 212.657869 139.326892 
L 212.762586 137.565274 
L 213.058856 132.360264 
L 213.084397 132.384661 
L 213.166127 132.496565 
L 213.206992 132.379394 
L 213.301492 131.270166 
L 213.539019 127.564346 
L 213.600317 127.891652 
L 213.845506 130.708909 
L 213.940007 130.284816 
L 214.031953 129.865204 
L 214.08048 130.058073 
L 214.18775 131.876926 
L 214.443156 136.359314 
L 214.478913 136.279203 
L 214.611724 135.693277 
L 214.670467 135.949502 
L 214.805832 138.163257 
L 214.94886 139.854553 
L 214.992279 139.665988 
L 215.127644 137.569366 
L 215.260455 136.304916 
L 215.303874 136.442811 
L 215.462225 137.483436 
L 215.526077 137.125147 
L 215.66655 134.1993 
L 215.84278 131.63337 
L 215.875983 131.723774 
L 216.044551 132.843009 
L 216.116064 132.416722 
L 216.366362 128.828682 
L 216.458308 129.644555 
L 216.667741 132.424003 
L 216.72393 132.178643 
L 216.892498 130.750206 
L 216.956349 131.144794 
L 217.112147 134.508161 
L 217.250066 136.281454 
L 217.290931 136.145544 
L 217.467161 134.73149 
L 217.538675 135.207427 
L 217.786418 139.076576 
L 217.878365 138.258151 
L 218.077581 135.557866 
L 218.136324 135.849315 
L 218.317663 137.690406 
L 218.384068 137.219109 
L 218.575622 132.882576 
L 218.667569 132.007137 
L 218.721204 132.249836 
L 218.884664 133.651005 
L 218.945961 133.254208 
L 219.119637 129.607923 
L 219.209029 128.70855 
L 219.26011 128.991339 
L 219.495084 132.270553 
L 219.592138 131.452632 
L 219.737719 129.893693 
L 219.7888 130.211956 
L 219.916503 133.164253 
L 220.092733 136.200682 
L 220.12849 136.071282 
L 220.299612 134.610655 
L 220.368571 135.144678 
L 220.629085 140.16319 
L 220.731248 139.036402 
L 220.917694 136.259466 
L 220.968775 136.527651 
L 221.150113 138.596424 
L 221.221627 137.969086 
L 221.420844 132.387658 
L 221.515344 131.313748 
L 221.566425 131.552601 
L 221.71456 132.855715 
L 221.775858 132.440401 
L 221.923993 128.802526 
L 222.046588 126.921661 
L 222.092561 127.206687 
L 222.245804 130.477382 
L 222.345413 131.560846 
L 222.396494 131.290473 
L 222.562508 129.487882 
L 222.628913 130.062509 
L 222.779603 134.738536 
L 222.940508 137.879563 
L 222.973711 137.752197 
L 223.137171 136.24241 
L 223.208684 136.848806 
L 223.458982 142.178228 
L 223.553482 140.94239 
L 223.775685 136.407933 
L 223.834429 136.745553 
L 223.974902 138.133409 
L 224.031091 137.710435 
L 224.153686 134.00408 
L 224.358011 128.759408 
L 224.391213 128.891288 
L 224.564889 130.737562 
L 224.641511 130.005082 
L 224.871376 125.190278 
L 224.950552 126.209334 
L 225.208512 132.38543 
L 225.287688 131.807301 
L 225.38985 130.947493 
L 225.440931 131.306719 
L 225.550756 134.53302 
L 225.772959 140.953865 
L 225.81127 140.752803 
L 225.997716 138.32323 
L 226.076892 139.151971 
L 226.281217 143.209227 
L 226.347622 142.425318 
L 226.636231 134.488483 
L 226.756271 135.510186 
L 226.809907 135.794001 
L 226.858434 135.442937 
L 226.965704 132.253369 
L 227.185353 125.625055 
L 227.226218 125.894167 
L 227.430543 129.234148 
L 227.517381 128.257454 
L 227.691057 125.101149 
L 227.747246 125.684591 
L 227.887719 130.927581 
L 228.061395 135.220758 
L 228.092044 135.100008 
L 228.232517 133.844386 
L 228.293815 134.414444 
L 228.426626 139.122896 
L 228.595194 143.717649 
L 228.633504 143.452681 
L 228.773978 140.039133 
L 228.865924 138.862327 
L 228.917005 139.24306 
L 229.103451 142.318499 
L 229.172411 141.406156 
L 229.351195 133.785324 
L 229.478898 131.112269 
L 229.522317 131.352083 
L 229.660236 132.782944 
L 229.716425 132.272091 
L 229.844128 127.868416 
L 230.005034 123.54238 
L 230.045899 123.874756 
L 230.181264 127.792588 
L 230.296196 129.785637 
L 230.344723 129.451303 
L 230.515845 126.821188 
L 230.584805 127.706192 
L 230.745711 134.875923 
L 230.893846 138.711915 
L 230.932157 138.495985 
L 231.087954 136.523375 
L 231.15436 137.237437 
L 231.335698 143.738595 
L 231.414874 144.975254 
L 231.468509 144.378629 
L 231.723915 137.354513 
L 231.83374 138.784155 
L 231.933348 140.052465 
L 231.981875 139.598021 
L 232.094253 135.323309 
L 232.30624 127.864147 
L 232.341997 128.075067 
L 232.518227 130.764345 
L 232.594849 129.751389 
L 232.824714 123.083798 
L 232.906444 124.454513 
L 233.14908 131.947037 
L 233.223147 131.163223 
L 233.35085 129.295798 
L 233.404485 129.831179 
L 233.524526 134.733025 
L 233.718635 141.49435 
L 233.754391 141.250793 
L 233.945946 137.747487 
L 234.03023 138.992322 
L 234.237108 144.796907 
L 234.306068 143.760429 
L 234.569136 134.88441 
L 234.668744 136.221808 
L 234.773461 137.677539 
L 234.821988 137.192118 
L 234.93692 132.56179 
L 235.131029 125.616476 
L 235.16934 125.932162 
L 235.373664 130.278034 
L 235.460502 128.874397 
L 235.652057 123.660741 
L 235.713354 124.551599 
L 235.986638 134.445763 
L 236.104125 132.613728 
L 236.193517 131.364264 
L 236.244598 131.892579 
L 236.362085 136.830978 
L 236.540869 143.274709 
L 236.581734 142.92812 
L 236.798829 137.679109 
L 236.893329 139.407286 
L 237.067005 144.065051 
L 237.12064 143.347621 
L 237.266222 136.507628 
L 237.404141 132.511954 
L 237.44756 132.866528 
L 237.616128 135.987208 
L 237.685087 134.929979 
L 237.955817 124.144575 
L 238.063088 126.536599 
L 238.22144 130.683557 
L 238.269967 130.163929 
L 238.481953 124.361915 
L 238.566237 126.139384 
L 238.821643 136.670958 
L 238.900819 135.476607 
L 239.038738 132.729738 
L 239.089819 133.370301 
L 239.217522 139.346869 
L 239.368212 144.62748 
L 239.411631 144.15527 
L 239.572536 138.217377 
L 239.641496 137.10777 
L 239.697685 137.79417 
L 239.899456 143.480202 
L 239.976078 141.871568 
L 240.236592 130.347248 
L 240.328538 131.983593 
L 240.458795 134.816324 
L 240.509876 134.164407 
L 240.637579 127.955614 
L 240.78316 122.751062 
L 240.826579 123.277381 
L 240.977269 129.540294 
L 241.064107 131.343348 
L 241.115188 130.71008 
L 241.314404 124.853027 
L 241.39358 126.598216 
L 241.654094 138.921624 
L 241.743486 137.18334 
L 241.881405 133.850933 
L 241.932486 134.582371 
L 242.067851 141.602285 
L 242.198108 146.145892 
L 242.244081 145.501631 
L 242.407541 137.940551 
L 242.486717 136.332459 
L 242.540352 137.100507 
L 242.731907 142.97296 
L 242.805974 141.322084 
L 243.071596 127.86338 
L 243.168651 130.081987 
L 243.301462 133.64399 
L 243.352543 132.913618 
L 243.487908 125.612397 
L 243.613057 121.121604 
L 243.65903 121.820727 
L 243.809719 129.66485 
L 243.906773 132.345668 
L 243.957855 131.647265 
L 244.149409 125.530711 
L 244.223477 127.289077 
L 244.489099 141.735571 
L 244.583599 139.368418 
L 244.724072 135.092519 
L 244.775153 135.873715 
L 244.915627 143.827201 
L 245.028005 147.780004 
L 245.076532 146.946228 
L 245.23233 137.857263 
L 245.329384 134.950895 
L 245.380465 135.710054 
L 245.566911 141.979127 
L 245.640979 140.145783 
L 245.904047 124.705937 
L 246.003655 127.477441 
L 246.149237 132.407256 
L 246.197764 131.601581 
L 246.340791 123.206413 
L 246.442953 119.652379 
L 246.491481 120.534913 
L 246.637062 129.945559 
L 246.751995 134.24501 
L 246.800522 133.495763 
L 246.986968 126.931063 
L 247.061036 128.922773 
L 247.32155 145.155252 
L 247.41605 142.307299 
L 247.571847 136.174703 
L 247.625482 137.155799 
L 247.857902 148.895199 
L 247.954956 145.347627 
L 248.174605 132.454113 
L 248.233348 133.633905 
L 248.407024 140.163825 
L 248.470876 138.605539 
L 248.66243 123.515202 
L 248.739052 121.183901 
L 248.792687 122.338587 
L 248.997012 131.665341 
L 249.076188 129.412341 
L 249.275404 119.052649 
L 249.34181 120.94243 
L 249.594661 137.333186 
L 249.689162 134.452923 
L 249.829635 129.081816 
L 249.880716 130.184782 
L 250.013527 140.761191 
L 250.154 148.580388 
L 250.197419 147.780433 
L 250.422176 136.40344 
L 250.519231 139.877523 
L 250.692907 148.878796 
L 250.746542 147.531101 
L 250.902339 134.189582 
L 251.014718 128.86809 
L 251.063245 129.764243 
L 251.252245 137.828912 
L 251.326313 135.395741 
L 251.568949 118.056639 
L 251.655787 121.192715 
L 251.847341 132.067908 
L 251.906084 130.617709 
L 252.110409 119.706266 
L 252.184477 122.358156 
L 252.434774 141.259774 
L 252.521612 138.378128 
L 252.674856 131.412456 
L 252.725937 132.64272 
L 252.86641 144.729319 
L 252.986451 151.248284 
L 253.032424 150.202033 
L 253.195884 137.830115 
L 253.269951 135.327793 
L 253.323587 136.547888 
L 253.527911 147.646801 
L 253.607087 144.532496 
L 253.854831 124.78567 
L 253.936561 127.648396 
L 254.097466 135.689119 
L 254.151102 134.295648 
L 254.309453 120.225457 
L 254.401399 115.945779 
L 254.452481 117.253703 
L 254.695116 133.784465 
L 254.797278 129.378689 
L 254.945414 121.399726 
L 254.996495 122.716144 
L 255.129306 135.707818 
L 255.272333 145.325555 
L 255.315752 144.382775 
L 255.520077 133.209682 
L 255.604361 136.665549 
L 255.818902 152.775354 
L 255.885307 150.361478 
L 256.115173 133.05438 
L 256.196902 136.040525 
L 256.36547 145.642368 
L 256.42166 143.913149 
L 256.577457 127.413072 
L 256.689836 120.866486 
L 256.735809 121.999984 
L 256.942687 134.336178 
L 257.026971 130.757693 
L 257.23385 114.963772 
L 257.300256 117.426341 
L 257.537783 136.509232 
L 257.622067 133.088143 
L 257.785527 123.562845 
L 257.839162 125.257428 
L 257.989851 141.68897 
L 258.104784 149.02566 
L 258.153311 147.774672 
L 258.365298 134.065615 
L 258.452136 138.026037 
L 258.651353 153.292425 
L 258.71265 150.977906 
L 258.95784 129.972372 
L 259.049786 134.160902 
L 259.203029 143.453917 
L 259.256664 141.80054 
L 259.402246 125.517563 
L 259.522286 117.399201 
L 259.568259 118.66849 
L 259.787908 133.994529 
L 259.877301 129.568246 
L 260.066301 114.811328 
L 260.125044 116.967075 
L 260.375342 139.888634 
L 260.477504 134.737339 
L 260.623086 125.6725 
L 260.674167 127.282288 
L 260.81464 143.377036 
L 260.937235 152.28827 
L 260.983208 150.980512 
L 261.207965 133.888018 
L 261.302465 138.88515 
L 261.483803 153.17242 
L 261.537438 151.187239 
L 261.716223 130.135673 
L 261.795398 126.317718 
L 261.849034 128.104202 
L 262.043142 141.494294 
L 262.114656 138.1677 
L 262.352183 114.293713 
L 262.436467 118.659376 
L 262.628021 134.699986 
L 262.689319 132.416747 
L 262.898752 115.133744 
L 262.975373 119.122201 
L 263.212901 143.830451 
L 263.289523 140.192382 
L 263.463198 127.431394 
L 263.519388 129.658606 
L 263.767131 155.279834 
L 263.869294 148.688833 
L 264.048078 132.631303 
L 264.101713 134.471791 
L 264.316254 152.685298 
L 264.400538 147.528696 
L 264.627849 122.062376 
L 264.699363 125.308426 
L 264.883255 139.978989 
L 264.944552 137.177933 
L 265.184634 111.397672 
L 265.274026 117.190451 
L 265.468134 136.549274 
L 265.526878 134.217804 
L 265.733756 115.780423 
L 265.810378 120.380166 
L 266.045352 148.415775 
L 266.124527 144.141344 
L 266.303311 128.656475 
L 266.362055 131.38034 
L 266.599582 158.057487 
L 266.691528 151.596673 
L 266.888191 130.142646 
L 266.946934 132.631759 
L 267.151259 151.867946 
L 267.227881 147.012794 
L 267.462854 117.160389 
L 267.54203 121.835311 
L 267.723368 139.101913 
L 267.782111 136.259473 
L 268.017085 108.806148 
L 268.106477 115.595257 
L 268.308247 139.714407 
L 268.369545 136.81642 
L 268.568761 116.784988 
L 268.642829 121.504187 
L 268.880356 153.574932 
L 268.962086 148.160105 
L 269.143424 129.11637 
L 269.202168 132.043352 
L 269.432033 160.368659 
L 269.521425 153.321066 
L 269.728304 126.290665 
L 269.789601 129.402632 
L 269.988818 150.672806 
L 270.060331 145.873237 
L 270.297859 111.850918 
L 270.382143 118.083067 
L 270.566035 139.137071 
L 270.622224 136.161572 
L 270.849535 106.884899 
L 270.938927 114.486132 
L 271.14836 144.223102 
L 271.212212 140.605031 
L 271.408874 118.148216 
L 271.477834 122.925797 
L 271.715361 158.887521 
L 271.799645 152.150329 
L 271.986091 128.513888 
L 272.044835 131.778121 
L 272.267038 161.794406 
L 272.353876 154.151289 
L 272.568417 121.202077 
L 272.634822 125.39618 
L 272.828931 149.194038 
L 272.89789 144.186453 
L 273.132864 106.70587 
L 273.217147 113.929131 
L 273.408702 140.36335 
L 273.469999 136.498029 
L 273.687094 106.028906 
L 273.76627 113.136077 
L 273.988473 149.771669 
L 274.059987 144.577297 
L 274.248987 119.663499 
L 274.315393 124.458528 
L 274.550366 163.693078 
L 274.637204 155.579672 
L 274.831312 126.638045 
L 274.890056 130.506407 
L 275.104597 162.049251 
L 275.186326 154.290587 
L 275.40853 115.343824 
L 275.480043 120.944365 
L 275.671598 147.741575 
L 275.735449 142.859743 
L 275.967868 102.390621 
L 276.054706 110.950707 
L 276.251369 142.877632 
L 276.312666 138.666496 
L 276.524653 106.364002 
L 276.601275 113.769505 
L 276.828586 155.777509 
L 276.902654 149.315462 
L 277.091654 120.948565 
L 277.155505 125.879476 
L 277.387925 167.40852 
L 277.472209 158.432475 
L 277.673979 123.515739 
L 277.735277 128.130602 
L 277.942155 161.17968 
L 278.018777 153.746514 
L 278.246088 109.342787 
L 278.32271 116.357571 
L 278.514265 146.726015 
L 278.575562 141.756779 
L 278.805427 99.335652 
L 278.889711 108.70993 
L 279.094036 146.556206 
L 279.157887 141.454089 
L 279.362212 107.670329 
L 279.43628 115.083446 
L 279.666145 161.652882 
L 279.742767 153.989433 
L 279.934321 121.595396 
L 279.998172 127.033194 
L 280.22293 169.790968 
L 280.304659 160.560555 
L 280.514092 119.337333 
L 280.580498 125.044607 
L 280.782268 159.557511 
L 280.853782 152.18809 
L 281.083647 103.677684 
L 281.162823 112.110702 
L 281.354377 146.538807 
L 281.418229 140.996023 
L 281.640432 97.58916 
L 281.722162 107.219251 
L 281.934149 151.195581 
L 282.000554 145.174231 
L 282.199771 109.467434 
L 282.271284 116.795934 
L 282.50115 167.063506 
L 282.58288 157.708183 
L 282.774434 121.230979 
L 282.835731 126.505063 
L 283.057934 170.977816 
L 283.142218 160.305049 
L 283.354205 114.260132 
L 283.418057 120.268807 
L 283.619827 157.744701 
L 283.691341 149.904082 
L 283.918652 98.523108 
L 283.997828 107.843822 
L 284.19449 147.550901 
L 284.258342 141.575241 
L 284.475437 96.85997 
L 284.554613 106.829777 
L 284.771708 156.707584 
L 284.840667 149.638395 
L 285.03733 111.139229 
L 285.106289 118.459122 
L 285.336154 171.986165 
L 285.417884 161.442938 
L 285.614547 119.476773 
L 285.675844 125.33389 
L 285.892939 171.362557 
L 285.972115 160.858009 
L 286.18921 108.302051 
L 286.260724 116.148184 
L 286.457386 156.374334 
L 286.523792 149.013861 
L 286.751103 93.799807 
L 286.835387 105.126664 
L 287.034603 150.133993 
L 287.095901 143.834882 
L 287.310442 96.709536 
L 287.387063 107.132564 
L 287.606712 163.123834 
L 287.68078 154.313327 
L 287.874888 112.062955 
L 287.941294 119.471098 
L 288.168605 176.540806 
L 288.252889 164.316615 
L 288.452106 115.993474 
L 288.515957 122.833198 
L 288.727944 171.373358 
L 288.802012 161.07093 
L 289.024215 101.433564 
L 289.098282 110.776105 
L 289.294945 156.02531 
L 289.36135 147.987911 
L 289.586108 89.416939 
L 289.665283 101.168897 
L 289.872162 154.567869 
L 289.938568 146.515741 
L 290.145446 96.768099 
L 290.21696 106.867189 
L 290.441717 170.397503 
L 290.520893 159.117796 
L 290.715001 111.735664 
L 290.776299 119.184159 
L 291.00361 180.704306 
L 291.08534 167.309445 
L 291.292219 110.611067 
L 291.353516 118.185525 
L 291.562949 171.286883 
L 291.639571 159.347765 
L 291.85922 93.855317 
L 291.933287 104.437309 
L 292.132504 157.087936 
L 292.201463 147.7905 
L 292.418558 85.550039 
L 292.497734 98.231236 
L 292.709721 160.846057 
L 292.778681 151.254916 
L 292.980451 96.869536 
L 293.051965 107.578725 
L 293.276722 178.121629 
L 293.355898 165.417667 
L 293.55256 109.902284 
L 293.616412 118.404775 
L 293.838615 184.157782 
L 293.917791 169.964328 
L 294.129777 103.55263 
L 294.196183 113.251903 
L 294.400508 171.173763 
L 294.472021 159.610374 
L 294.696778 86.192867 
L 294.7734 99.533603 
L 294.972617 159.67955 
L 295.039022 150.022199 
L 295.256117 82.643195 
L 295.332739 96.517834 
L 295.54728 168.500322 
L 295.618793 157.275585 
L 295.820564 96.999405 
L 295.889524 108.471091 
L 296.114281 185.479867 
L 296.193457 170.739176 
L 296.395227 106.609828 
L 296.459079 116.670701 
L 296.67362 186.386444 
L 296.750241 172.192162 
L 296.967336 95.520267 
L 297.03885 107.550161 
L 297.240621 171.019631 
L 297.307026 159.826314 
L 297.531783 79.399847 
L 297.613513 95.502462 
L 297.815284 163.588594 
L 297.876581 153.963389 
L 298.093676 81.202964 
L 298.172852 97.422828 
L 298.387393 176.65345 
L 298.456352 164.686549 
L 298.660677 97.173133 
L 298.729637 109.629662 
L 298.95184 191.467794 
L 299.028461 176.012765 
L 299.23534 102.199806 
L 299.301746 113.703676 
L 299.511178 186.973116 
L 299.585246 172.740498 
L 299.807449 87.515854 
L 299.881517 102.010993 
L 300.080733 170.839294 
L 300.147139 158.947705 
L 300.369342 74.410866 
L 300.448518 91.019207 
L 300.655397 168.366175 
L 300.721802 156.58059 
L 300.931235 81.476722 
L 301.005303 96.463015 
L 301.224952 184.268778 
L 301.299019 169.902759 
L 301.50079 97.331273 
L 301.567195 109.462504 
L 301.789399 195.319313 
L 301.868574 177.582243 
L 302.075453 97.180145 
L 302.141859 109.261516 
L 302.351291 185.884719 
L 302.425359 170.206734 
L 302.645008 80.481864 
L 302.719076 95.68546 
L 302.920846 170.755211 
L 302.987252 158.396204 
L 303.206901 71.751086 
L 303.286077 89.545512 
L 303.49551 173.524288 
L 303.561915 161.083878 
L 303.771348 83.282154 
L 303.842861 98.595397 
L 304.06251 190.578895 
L 304.139132 174.446144 
L 304.340903 97.261464 
L 304.407308 109.890307 
L 304.624403 196.81054 
L 304.703579 178.959842 
L 304.915566 91.953455 
L 304.981971 104.867237 
L 305.18885 183.539434 
L 305.260364 168.570108 
L 305.482567 74.954585 
L 305.556635 91.126626 
L 305.760959 171.08708 
L 305.827365 158.094166 
L 306.04446 71.326621 
L 306.118527 88.195793 
L 306.333068 178.797761 
L 306.404582 164.268153 
L 306.608907 85.954318 
L 306.677866 100.636246 
L 306.900069 195.341495 
L 306.976691 177.921346 
L 307.181016 96.536785 
L 307.244867 109.073705 
L 307.461962 196.351278 
L 307.538584 178.16633 
L 307.753125 86.613464 
L 307.822084 101.025999 
L 308.026409 180.79097 
L 308.095369 166.292216 
L 308.317572 70.88862 
L 308.394193 88.685215 
L 308.598518 172.36559 
L 308.664924 159.169614 
L 308.876911 72.449221 
L 308.953532 89.843319 
L 309.170627 184.259507 
L 309.242141 168.741504 
L 309.443911 88.511324 
L 309.512871 102.928937 
L 309.735074 198.824969 
L 309.811696 180.469213 
L 310.016021 94.555569 
L 310.082426 107.604073 
L 310.294413 194.80128 
L 310.371035 176.973285 
L 310.58813 80.966913 
L 310.659643 96.781585 
L 310.861414 178.664894 
L 310.930373 164.242606 
L 311.150022 67.860268 
L 311.229198 86.940951 
L 311.436077 175.16671 
L 311.499928 162.134265 
L 311.711915 74.212162 
L 311.788537 92.538964 
L 312.005632 190.124493 
L 312.074592 174.916293 
L 312.278916 90.002734 
L 312.35043 105.531074 
L 312.567525 201.482793 
L 312.641593 183.91603 
L 312.853579 90.855563 
L 312.922539 105.995671 
L 313.129418 192.977881 
L 313.200931 176.475836 
L 313.42058 74.899162 
L 313.497202 92.832419 
L 313.698973 177.94272 
L 313.765378 163.45031 
L 313.985027 65.569869 
L 314.061649 85.068771 
L 314.271082 179.746987 
L 314.337487 165.552099 
L 314.54692 76.018892 
L 314.620988 94.018583 
L 314.838083 196.289053 
L 314.91215 178.930495 
L 315.116475 89.92141 
L 315.185435 105.413016 
L 315.399976 203.336636 
L 315.476597 184.390229 
L 315.688584 85.521574 
L 315.757544 100.798997 
L 315.964423 191.179311 
L 316.035936 174.209566 
L 316.255585 68.853656 
L 316.332207 87.827583 
L 316.536532 178.754479 
L 316.602937 163.523961 
L 316.817478 64.311698 
L 316.8941 83.66981 
L 317.108641 185.607381 
L 317.1776 169.342262 
L 317.384479 77.894206 
L 317.453439 94.710989 
L 317.673088 201.905833 
L 317.749709 182.677999 
L 317.954034 88.513794 
L 318.02044 103.255145 
L 318.237534 203.771044 
L 318.314156 183.049021 
L 318.526143 79.445157 
L 318.595103 95.39707 
L 318.801981 189.111593 
L 318.873495 171.586847 
L 319.093144 64.02794 
L 319.167212 83.232078 
L 319.37409 180.554752 
L 319.44305 164.338995 
L 319.655037 64.936185 
L 319.729105 84.122347 
L 319.9462 191.51739 
L 320.017713 173.821733 
L 320.222038 80.288247 
L 320.290997 96.982136 
L 320.510646 205.558281 
L 320.587268 185.443218 
L 320.794147 86.571318 
L 320.860552 101.748814 
L 321.075093 201.872562 
L 321.149161 182.07148 
L 321.366256 74.11227 
L 321.43777 92.172677 
L 321.642094 186.272846 
L 321.711054 169.548215 
L 321.930703 61.899624 
L 322.007325 82.633037 
L 322.214203 182.395983 
L 322.280609 167.360732 
L 322.492596 68.238573 
L 322.569217 88.318724 
L 322.783758 195.90243 
L 322.855272 178.873256 
L 323.062151 83.6257 
L 323.133664 101.290588 
L 323.348205 205.910124 
L 323.422273 187.344585 
L 323.63426 85.051382 
L 323.705773 102.02238 
L 323.912652 197.155752 
L 323.984166 179.56179 
L 324.203815 70.97406 
L 324.280437 90.383905 
L 324.482207 182.445892 
L 324.548613 167.523116 
L 324.768262 63.435245 
L 324.847438 84.665369 
L 325.054316 183.427689 
L 325.120722 169.108726 
L 325.332709 74.267255 
L 325.406776 92.895356 
L 325.623871 197.597451 
L 325.695385 180.632553 
L 325.902264 87.858193 
L 325.973777 104.505484 
L 326.188318 202.522265 
L 326.259832 184.92097 
L 326.474373 84.595803 
L 326.54844 101.779827 
L 326.752765 190.049773 
L 326.819171 175.104326 
L 327.043928 70.78115 
L 327.123104 91.210836 
L 327.32232 177.968753 
L 327.386172 165.001598 
L 327.605821 68.462576 
L 327.684996 88.545274 
L 327.894429 183.313488 
L 327.960835 169.640744 
L 328.170267 82.093059 
L 328.244335 99.104913 
L 328.46143 196.402353 
L 328.532944 180.44381 
L 328.742377 92.352086 
L 328.811336 107.048171 
L 329.023323 196.222856 
L 329.097391 179.384559 
L 329.314486 85.178114 
L 329.385999 100.82113 
L 329.590324 181.945985 
L 329.656729 168.103484 
L 329.878933 73.102589 
L 329.958108 91.613253 
L 330.159879 173.737774 
L 330.226284 161.08343 
L 330.440825 75.556037 
L 330.517447 92.893143 
L 330.731988 182.474263 
L 330.800948 168.587728 
L 331.007826 89.985251 
L 331.076786 104.131711 
L 331.296435 193.331953 
L 331.370503 177.322721 
L 331.577381 95.999775 
L 331.646341 108.911663 
L 331.858328 188.88782 
L 331.929841 173.883302 
L 332.14949 85.983648 
L 332.221004 100.490816 
L 332.422775 174.752166 
L 332.491734 161.921216 
L 332.711383 76.458396 
L 332.788005 92.541573 
L 332.994884 171.002373 
L 333.063843 158.405207 
L 333.273276 82.584728 
L 333.34479 96.741641 
L 333.564439 182.029153 
L 333.638506 167.460457 
L 333.840277 96.05607 
L 333.906683 107.951113 
L 334.126332 190.135086 
L 334.205507 173.622284 
L 334.412386 97.553969 
L 334.478792 109.290506 
L 334.688224 182.609587 
L 334.762292 168.07342 
L 334.979387 85.78865 
L 335.053455 99.819759 
L 335.255225 170.090107 
L 335.324185 158.04456 
L 335.54128 79.167557 
L 335.617902 94.392067 
L 335.827335 170.784689 
L 335.896294 158.838481 
L 336.103173 87.861552 
L 336.174686 101.014882 
L 336.394335 183.004812 
L 336.470957 168.413928 
L 336.672728 99.205441 
L 336.739133 110.595167 
L 336.956228 188.045542 
L 337.03285 173.070844 
L 337.244837 96.440039 
L 337.313796 108.628656 
L 337.520675 178.360497 
L 337.589635 165.726521 
L 337.811838 84.076197 
L 337.88846 99.208746 
L 338.09023 168.348826 
L 338.154082 157.72548 
L 338.373731 80.753517 
L 338.452907 97.227775 
L 338.662339 173.026557 
L 338.728745 161.582213 
L 338.938178 91.288715 
L 339.009691 104.914675 
L 339.226786 185.182787 
L 339.300854 171.577062 
L 339.507733 99.83267 
L 339.576692 111.882026 
L 339.788679 186.630174 
L 339.862747 172.853682 
L 340.079842 93.443183 
L 340.153909 107.25448 
L 340.35568 175.395463 
L 340.422086 163.856985 
L 340.646843 81.882615 
L 340.726018 98.195178 
L 340.927789 168.438695 
L 340.991641 157.856277 
L 341.208736 82.457108 
L 341.285357 97.774422 
L 341.499898 176.290326 
L 341.568858 163.982122 
L 341.775736 94.212736 
L 341.844696 106.662087 
L 342.064345 186.851464 
L 342.140967 172.071924 
L 342.347846 99.456502 
L 342.414251 110.59542 
L 342.628792 184.147813 
L 342.70286 169.732604 
L 342.919955 90.439113 
L 342.991468 103.396046 
L 343.195793 172.132674 
L 343.264753 160.151444 
L 343.484402 81.288729 
L 343.561023 95.906211 
L 343.770456 168.704365 
L 343.836862 157.457462 
L 344.048848 86.124065 
L 344.122916 100.044144 
L 344.340011 178.533325 
L 344.414079 165.371725 
L 344.618403 98.074912 
L 344.684809 109.137676 
L 344.907012 185.905121 
L 344.983634 171.019481 
L 345.193067 99.624192 
L 345.259472 110.575542 
L 345.471459 179.049166 
L 345.542973 166.084312 
L 345.762622 89.382544 
L 345.836689 102.358392 
L 346.041014 167.545985 
L 346.107419 156.951144 
L 346.327069 84.073964 
L 346.406244 98.806874 
L 346.615677 167.870551 
L 346.682083 157.515911 
L 346.891515 92.705453 
L 346.965583 105.236011 
L 347.185232 178.093686 
L 347.2593 165.595226 
L 347.463624 103.373013 
L 347.53003 113.239183 
L 347.749679 181.166685 
L 347.826301 167.743903 
L 348.038288 101.271634 
L 348.107247 111.575325 
L 348.314126 171.133576 
L 348.38564 160.044954 
L 348.607843 91.484308 
L 348.68191 103.357176 
L 348.886235 161.664886 
L 348.952641 152.629492 
L 349.169735 90.66207 
L 349.246357 102.748476 
L 349.460898 165.355197 
L 349.529858 155.875692 
L 349.736736 101.641233 
L 349.805696 111.357571 
L 350.027899 174.354129 
L 350.104521 163.082949 
L 350.308846 109.618385 
L 350.375251 117.890616 
L 350.589792 173.059655 
L 350.666414 162.143024 
L 350.883509 104.601256 
L 350.952468 113.408875 
L 351.156793 161.644983 
L 351.225752 153.042893 
L 351.447956 96.640771 
L 351.524577 106.864259 
L 351.728902 155.341767 
L 351.795307 148.150344 
L 352.009848 99.756787 
L 352.083916 109.241272 
L 352.301011 161.404687 
L 352.375079 152.945194 
L 352.574295 111.107803 
L 352.643255 118.472567 
L 352.865458 168.221534 
L 352.94208 159.122015 
L 353.148958 115.649124 
L 353.215364 122.260277 
L 353.424797 163.703107 
L 353.498864 155.540327 
L 353.718513 108.803883 
L 353.792581 116.4081 
L 353.991798 152.867895 
L 354.058203 146.542708 
L 354.280406 103.068421 
L 354.357028 111.289294 
L 354.563907 150.075974 
L 354.630312 144.300541 
L 354.837191 108.500529 
L 354.911259 115.709682 
L 355.130908 157.522295 
L 355.204975 150.855075 
L 355.404192 118.457832 
L 355.470598 124.11693 
L 355.690247 162.390305 
L 355.766868 155.062214 
L 355.976301 119.55985 
L 356.042707 124.916561 
L 356.247031 156.5167 
L 356.318545 150.252095 
L 356.540748 111.59628 
L 356.61737 118.257558 
L 356.811478 147.671074 
L 356.87533 143.069935 
L 357.097533 107.344976 
L 357.179263 115.118561 
L 357.383587 148.163592 
L 357.447439 143.609763 
L 357.654317 113.330449 
L 357.728385 119.746957 
L 357.948034 156.587337 
L 358.022102 150.462813 
L 358.221318 120.996086 
L 358.287724 126.102477 
L 358.504819 160.357709 
L 358.581441 153.429867 
L 358.793427 119.060781 
L 358.859833 124.217922 
L 359.061604 154.337605 
L 359.133117 148.460967 
L 359.35532 110.297395 
L 359.434496 117.290063 
L 359.631159 147.761434 
L 359.69501 142.949304 
L 359.914659 107.089216 
L 359.993835 114.81027 
L 360.203268 150.954633 
L 360.269673 145.720802 
L 360.473998 113.275942 
L 360.548066 119.904522 
L 360.767715 159.84267 
L 360.844336 152.755541 
L 361.046107 118.911157 
L 361.112512 124.492836 
L 361.327053 162.241786 
L 361.403675 154.804948 
L 361.618216 114.642931 
L 361.68973 121.02117 
L 361.8915 155.695657 
L 361.96046 149.444126 
L 362.185217 105.890919 
L 362.264393 114.217116 
L 362.466163 150.901215 
L 362.530015 145.182534 
L 362.74711 104.589338 
L 362.823732 112.858918 
L 363.038272 156.107946 
L 363.109786 149.205855 
L 363.314111 111.641151 
L 363.38307 118.580365 
L 363.605273 164.435875 
L 363.684449 155.624427 
L 363.888774 115.5932 
L 363.952625 121.62968 
L 364.16972 164.3644 
L 364.246342 155.525105 
L 364.463437 109.565415 
L 364.532397 116.748337 
L 364.736721 156.772875 
L 364.808235 149.343421 
L 365.030438 101.970205 
L 365.104506 110.45362 
L 365.313938 153.759796 
L 365.382898 146.606683 
L 365.594885 103.635627 
L 365.666399 111.726066 
L 365.888602 160.481267 
L 365.962669 152.142507 
L 366.16444 111.664227 
L 366.230845 118.420459 
L 366.455603 167.00565 
L 366.534778 157.344534 
L 366.741657 113.588985 
L 366.805509 119.82096 
L 367.020049 163.614607 
L 367.096671 154.736668 
L 367.31632 106.365272 
L 367.387834 114.222747 
L 367.592159 155.379178 
L 367.661118 148.358637 
L 367.883321 101.259323 
L 367.959943 110.33627 
L 368.17193 154.702412 
L 368.238335 147.976556 
L 368.447768 106.373731 
L 368.521836 114.33561 
L 368.744039 162.157011 
L 368.818107 154.267819 
L 369.022431 114.461375 
L 369.091391 121.222488 
L 369.31104 165.534872 
L 369.387662 157.019425 
L 369.602203 113.787573 
L 369.671162 120.52298 
L 369.878041 158.861805 
L 369.949554 151.740344 
L 370.174312 106.464964 
L 370.250933 114.396101 
L 370.455258 151.330521 
L 370.519109 145.708297 
L 370.741313 105.031917 
L 370.820488 113.541687 
L 371.032475 153.3444 
L 371.098881 147.878252 
L 371.308314 112.935101 
L 371.382381 119.756117 
L 371.604584 160.132674 
L 371.678652 153.506219 
L 371.885531 119.504158 
L 371.95449 124.916151 
L 372.169031 159.557263 
L 372.245653 152.879687 
L 372.465302 116.30129 
L 372.536816 121.79755 
L 372.74114 150.875849 
L 372.807546 145.910725 
L 373.034857 110.43693 
L 373.116587 117.128192 
L 373.320912 145.586091 
L 373.382209 141.736023 
L 373.599304 112.907804 
L 373.67848 118.859394 
L 373.898129 149.69295 
L 373.969642 145.239346 
L 374.171413 121.851512 
L 374.240373 126.001431 
L 374.467684 154.332259 
L 374.54686 149.050166 
L 374.753738 125.696907 
L 374.81759 128.832716 
L 375.029577 150.250525 
L 375.106198 145.838335 
L 375.33351 121.055821 
L 375.405023 124.580677 
L 375.60424 141.531016 
L 375.668091 138.752307 
L 375.897956 117.800708 
L 375.979686 121.921947 
L 376.189119 139.116933 
L 376.250416 137.019567 
L 376.457295 123.067524 
L 376.531363 125.991081 
L 376.766336 143.908331 
L 376.842958 141.308945 
L 377.031958 131.178245 
L 377.090702 132.669079 
L 377.323121 145.816729 
L 377.409959 142.994671 
L 377.619392 132.34923 
L 377.680689 133.42095 
L 377.872244 139.929075 
L 377.941203 138.523019 
L 378.194055 127.726237 
L 378.283447 129.264629 
L 378.439244 132.68015 
L 378.490326 132.200106 
L 378.720191 126.751072 
L 378.817245 128.157258 
L 379.031786 132.375385 
L 379.080313 132.19735 
L 379.190138 131.565836 
L 379.243773 131.842548 
L 379.368922 134.424248 
L 379.540044 137.029579 
L 379.5758 136.936952 
L 379.695841 136.336688 
L 379.749476 136.621277 
L 379.879733 139.205462 
L 379.992112 140.736264 
L 380.040639 140.362643 
L 380.196437 136.3345 
L 380.278167 135.308515 
L 380.329248 135.74207 
L 380.515694 139.334622 
L 380.587208 138.175154 
L 380.837505 128.545421 
L 380.929451 130.569317 
L 381.090357 135.551271 
L 381.143992 134.694204 
L 381.302344 126.019901 
L 381.384074 123.737246 
L 381.437709 124.747847 
L 381.677791 137.12315 
L 381.777399 133.599209 
L 381.943413 125.337014 
L 381.997048 126.575438 
L 382.147737 139.043366 
L 382.2499 143.840024 
L 382.300981 142.598437 
L 382.523184 128.7539 
L 382.612576 132.851113 
L 382.811792 148.058846 
L 382.87309 145.934088 
L 383.105509 126.716651 
L 383.194901 131.284937 
L 383.378793 146.015754 
L 383.437537 143.784001 
L 383.680172 120.173279 
L 383.774672 126.083307 
L 383.958565 142.82135 
L 384.0122 140.63378 
L 384.247173 116.64207 
L 384.339119 123.154457 
L 384.538336 145.241326 
L 384.597079 142.517203 
L 384.816728 119.235183 
L 384.898458 124.937609 
L 385.112999 151.622328 
L 385.179405 147.750409 
L 385.393945 122.326201 
L 385.468013 127.229488 
L 385.68 154.382547 
L 385.751514 149.67758 
L 385.973717 119.512678 
L 386.050338 124.984641 
L 386.252109 151.086499 
L 386.318515 146.688253 
L 386.54838 113.301466 
L 386.63011 120.049148 
L 386.83188 148.073943 
L 386.893178 144.024901 
L 387.117935 111.495484 
L 387.199665 118.753847 
L 387.411652 151.373256 
L 387.475503 146.819024 
L 387.690044 115.629364 
L 387.766666 122.192265 
L 387.983761 157.317196 
L 388.055274 151.615981 
L 388.269815 118.438256 
L 388.341329 124.352975 
L 388.553316 157.905586 
L 388.624829 152.003238 
L 388.847032 114.548453 
L 388.923654 121.048304 
L 389.127979 152.912228 
L 389.194384 147.630793 
L 389.421696 109.103211 
L 389.503425 116.990142 
L 389.70775 150.570193 
L 389.771602 145.743604 
L 389.991251 109.994214 
L 390.070426 117.456427 
L 390.287521 155.083767 
L 390.356481 149.35319 
L 390.565914 115.685606 
L 390.639981 122.056272 
L 390.85963 159.681941 
L 390.933698 153.086774 
L 391.148239 117.219526 
L 391.219753 123.215797 
L 391.431739 157.154769 
L 391.500699 151.237115 
L 391.72801 112.191193 
L 391.804632 119.137224 
L 392.008957 151.137766 
L 392.072808 146.200011 
L 392.300119 108.835325 
L 392.381849 116.685317 
L 392.591282 150.731065 
L 392.655133 145.985853 
L 392.872228 112.947504 
L 392.94885 119.734865 
L 393.168499 156.002278 
L 393.240013 150.403986 
L 393.452 118.758462 
L 393.523513 124.413516 
L 393.740608 157.775631 
L 393.814676 151.855103 
L 394.034325 117.839539 
L 394.108393 123.376725 
L 394.315271 152.377079 
L 394.384231 147.380683 
L 394.614096 112.737549 
L 394.693272 119.134251 
L 394.897597 147.375088 
L 394.961448 143.410024 
L 395.186205 112.718307 
L 395.267935 119.277449 
L 395.482476 149.617033 
L 395.548882 145.592681 
L 395.763422 118.858287 
L 395.83749 123.983611 
L 396.062247 154.09114 
L 396.136315 149.013453 
L 396.350856 122.506107 
L 396.419815 126.759272 
L 396.634356 152.435572 
L 396.708424 147.768916 
L 396.935735 119.171226 
L 397.012357 123.902742 
L 397.216682 146.266957 
L 397.283087 142.652562 
L 397.512952 115.713104 
L 397.594682 120.845704 
L 397.806669 144.331234 
L 397.873075 140.997101 
L 398.09017 118.678627 
L 398.166791 123.104346 
L 398.394103 148.337169 
L 398.46817 144.360055 
L 398.677603 124.134282 
L 398.744009 127.378811 
L 398.97132 150.583611 
L 399.05305 146.013628 
L 399.270145 124.299291 
L 399.33655 127.313195 
L 399.551091 146.908996 
L 399.627713 143.052779 
L 399.857578 120.127322 
L 399.931646 123.819364 
L 400.143633 142.753704 
L 400.210038 139.817054 
L 400.434795 119.017473 
L 400.516525 123.222262 
L 400.736174 144.068441 
L 400.805134 141.102032 
L 401.019675 122.707719 
L 401.093742 126.232919 
L 401.321054 147.964877 
L 401.397675 144.365079 
L 401.612216 125.34708 
L 401.681176 128.372839 
L 401.903379 148.27301 
L 401.980001 144.437918 
L 402.204758 123.112693 
L 402.276271 126.434108 
L 402.488258 145.107348 
L 402.559772 141.777106 
L 402.787083 119.708953 
L 402.866259 123.70926 
L 403.0808 143.754371 
L 403.147205 140.72497 
L 403.369408 119.737902 
L 403.448584 124.015809 
L 403.668233 146.334955 
L 403.739747 142.871251 
L 403.954288 122.177537 
L 404.028355 126.016207 
L 404.253113 149.325496 
L 404.32718 145.20622 
L 404.544275 122.748768 
L 404.615789 126.590042 
L 404.832884 149.356307 
L 404.906951 145.146642 
L 405.129155 120.154654 
L 405.203222 124.300994 
L 405.417763 147.480406 
L 405.486723 143.528172 
L 405.71148 117.294555 
L 405.790656 122.372163 
L 406.002643 147.190762 
L 406.071602 143.202778 
L 406.291251 117.053283 
L 406.367873 122.083751 
L 406.587522 149.784246 
L 406.659036 145.236537 
L 406.873576 118.758584 
L 406.94509 123.423356 
L 407.167293 152.788334 
L 407.243915 147.388085 
L 407.458456 119.063425 
L 407.527415 123.676124 
L 407.747064 153.081235 
L 407.821132 147.561883 
L 408.040781 116.267504 
L 408.112295 121.343814 
L 408.326836 151.112038 
L 408.398349 145.831866 
L 408.620552 113.03739 
L 408.69462 118.865398 
L 408.909161 150.780357 
L 408.980675 145.44592 
L 409.19777 113.094566 
L 409.271837 119.203583 
L 409.491486 154.023482 
L 409.565554 148.02564 
L 409.777541 115.612643 
L 409.8465 121.109183 
L 410.068703 157.2799 
L 410.145325 150.657395 
L 410.359866 115.737815 
L 410.428826 121.301907 
L 410.645921 156.394047 
L 410.719988 149.823902 
L 410.939637 111.93158 
L 411.013705 118.32285 
L 411.225692 153.321485 
L 411.297206 147.090283 
L 411.516855 109.092503 
L 411.590922 115.84836 
L 411.808017 153.760296 
L 411.879531 147.506189 
L 412.094072 111.16419 
L 412.165585 117.780771 
L 412.387788 158.010231 
L 412.461856 151.180894 
L 412.673843 114.489152 
L 412.742803 120.537331 
L 412.962452 159.876985 
L 413.039073 152.605221 
L 413.256168 113.162621 
L 413.327682 119.592611 
L 413.539669 156.557794 
L 413.611182 150.112369 
L 413.83594 108.844888 
L 413.912561 116.437116 
L 414.121994 153.512441 
L 414.1884 147.91868 
L 414.410603 108.411357 
L 414.489779 116.408863 
L 414.704319 155.863631 
L 414.773279 149.949775 
L 414.98782 112.678933 
L 415.064442 119.8933 
L 415.284091 159.708969 
L 415.355604 153.051334 
L 415.572699 114.833839 
L 415.644213 121.260726 
L 415.858754 158.513996 
L 415.930267 152.13428 
L 416.155025 111.59554 
L 416.231646 118.782706 
L 416.438525 153.939542 
L 416.507485 148.263263 
L 416.732242 108.766193 
L 416.811418 116.307154 
L 417.023404 153.157307 
L 417.092364 147.614265 
L 417.128121 141.024898 
L 417.128121 141.024898 
" clip-path="url(#p6476baa12a)" style="fill: none; stroke: #008000; stroke-width: 1.5; stroke-linecap: square"/>
   </g>
   <g id="patch_3">
    <path d="M 64.885937 242.918125 
L 64.885937 22.318125 
" style="fill: none; stroke: #000000; stroke-width: 0.8; stroke-linejoin: miter; stroke-linecap: square"/>
   </g>
   <g id="patch_4">
    <path d="M 417.125937 242.918125 
L 417.125937 22.318125 
" style="fill: none; stroke: #000000; stroke-width: 0.8; stroke-linejoin: miter; stroke-linecap: square"/>
   </g>
   <g id="patch_5">
    <path d="M 64.885937 242.918125 
L 417.125937 242.918125 
" style="fill: none; stroke: #000000; stroke-width: 0.8; stroke-linejoin: miter; stroke-linecap: square"/>
   </g>
   <g id="patch_6">
    <path d="M 64.885937 22.318125 
L 417.125937 22.318125 
" style="fill: none; stroke: #000000; stroke-width: 0.8; stroke-linejoin: miter; stroke-linecap: square"/>
   </g>
   <g id="text_17">
    <!-- Time Domain -->
    <g transform="translate(201.136875 16.318125) scale(0.12 -0.12)">
     <defs>
      <path id="DejaVuSans-44" d="M 1259 4147 
L 1259 519 
L 2022 519 
Q 2988 519 3436 956 
Q 3884 1394 3884 2338 
Q 3884 3275 3436 3711 
Q 2988 4147 2022 4147 
L 1259 4147 
z
M 628 4666 
L 1925 4666 
Q 3281 4666 3915 4102 
Q 4550 3538 4550 2338 
Q 4550 1131 3912 565 
Q 3275 0 1925 0 
L 628 0 
L 628 4666 
z
" transform="scale(0.015625)"/>
      <path id="DejaVuSans-6f" d="M 1959 3097 
Q 1497 3097 1228 2736 
Q 959 2375 959 1747 
Q 959 1119 1226 758 
Q 1494 397 1959 397 
Q 2419 397 2687 759 
Q 2956 1122 2956 1747 
Q 2956 2369 2687 2733 
Q 2419 3097 1959 3097 
z
M 1959 3584 
Q 2709 3584 3137 3096 
Q 3566 2609 3566 1747 
Q 3566 888 3137 398 
Q 2709 -91 1959 -91 
Q 1206 -91 779 398 
Q 353 888 353 1747 
Q 353 2609 779 3096 
Q 1206 3584 1959 3584 
z
" transform="scale(0.015625)"/>
     </defs>
     <use xlink:href="#DejaVuSans-54"/>
     <use xlink:href="#DejaVuSans-69" x="57.958984"/>
     <use xlink:href="#DejaVuSans-6d" x="85.742188"/>
     <use xlink:href="#DejaVuSans-65" x="183.154297"/>
     <use xlink:href="#DejaVuSans-20" x="244.677734"/>
     <use xlink:href="#DejaVuSans-44" x="276.464844"/>
     <use xlink:href="#DejaVuSans-6f" x="353.466797"/>
     <use xlink:href="#DejaVuSans-6d" x="414.648438"/>
     <use xlink:href="#DejaVuSans-61" x="512.060547"/>
     <use xlink:href="#DejaVuSans-69" x="573.339844"/>
     <use xlink:href="#DejaVuSans-6e" x="601.123047"/>
    </g>
   </g>
  </g>
 </g>
 <defs>
  <clipPath id="p6476baa12a">
   <rect x="64.885937" y="22.318125" width="352.24" height="220.6"/>
  </clipPath>
 </defs>
</svg>
