<?xml version="1.0" encoding="utf-8" standalone="no"?>
<!DOCTYPE svg PUBLIC "-//W3C//DTD SVG 1.1//EN"
  "http://www.w3.org/Graphics/SVG/1.1/DTD/svg11.dtd">
<svg xmlns:xlink="http://www.w3.org/1999/xlink" width="424.270312pt" height="280.474375pt" viewBox="0 0 424.270312 280.474375" xmlns="http://www.w3.org/2000/svg" version="1.1">
 <metadata>
  <rdf:RDF xmlns:dc="http://purl.org/dc/elements/1.1/" xmlns:cc="http://creativecommons.org/ns#" xmlns:rdf="http://www.w3.org/1999/02/22-rdf-syntax-ns#">
   <cc:Work>
    <dc:type rdf:resource="http://purl.org/dc/dcmitype/StillImage"/>
    <dc:date>2025-04-28T12:13:40.406112</dc:date>
    <dc:format>image/svg+xml</dc:format>
    <dc:creator>
     <cc:Agent>
      <dc:title>Matplotlib v3.9.2, https://matplotlib.org/</dc:title>
     </cc:Agent>
    </dc:creator>
   </cc:Work>
  </rdf:RDF>
 </metadata>
 <defs>
  <style type="text/css">*{stroke-linejoin: round; stroke-linecap: butt}</style>
 </defs>
 <g id="figure_1">
  <g id="patch_1">
   <path d="M 0 280.474375 
L 424.270312 280.474375 
L 424.270312 0 
L 0 0 
z
" style="fill: #ffffff"/>
  </g>
  <g id="axes_1">
   <g id="patch_2">
    <path d="M 68.070313 242.918125 
L 417.070312 242.918125 
L 417.070312 22.318125 
L 68.070313 22.318125 
z
" style="fill: #ffffff"/>
   </g>
   <g id="matplotlib.axis_1">
    <g id="xtick_1">
     <g id="line2d_1">
      <path d="M 79.987117 242.918125 
L 79.987117 22.318125 
" clip-path="url(#p6eb910826b)" style="fill: none; stroke: #b0b0b0; stroke-width: 0.8; stroke-linecap: square"/>
     </g>
     <g id="line2d_2">
      <defs>
       <path id="mabb6eee88b" d="M 0 0 
L 0 3.5 
" style="stroke: #000000; stroke-width: 0.8"/>
      </defs>
      <g>
       <use xlink:href="#mabb6eee88b" x="79.987117" y="242.918125" style="stroke: #000000; stroke-width: 0.8"/>
      </g>
     </g>
     <g id="text_1">
      <!-- 2.30 -->
      <g transform="translate(68.854305 257.516563) scale(0.1 -0.1)">
       <defs>
        <path id="DejaVuSans-32" d="M 1228 531 
L 3431 531 
L 3431 0 
L 469 0 
L 469 531 
Q 828 903 1448 1529 
Q 2069 2156 2228 2338 
Q 2531 2678 2651 2914 
Q 2772 3150 2772 3378 
Q 2772 3750 2511 3984 
Q 2250 4219 1831 4219 
Q 1534 4219 1204 4116 
Q 875 4013 500 3803 
L 500 4441 
Q 881 4594 1212 4672 
Q 1544 4750 1819 4750 
Q 2544 4750 2975 4387 
Q 3406 4025 3406 3419 
Q 3406 3131 3298 2873 
Q 3191 2616 2906 2266 
Q 2828 2175 2409 1742 
Q 1991 1309 1228 531 
z
" transform="scale(0.015625)"/>
        <path id="DejaVuSans-2e" d="M 684 794 
L 1344 794 
L 1344 0 
L 684 0 
L 684 794 
z
" transform="scale(0.015625)"/>
        <path id="DejaVuSans-33" d="M 2597 2516 
Q 3050 2419 3304 2112 
Q 3559 1806 3559 1356 
Q 3559 666 3084 287 
Q 2609 -91 1734 -91 
Q 1441 -91 1130 -33 
Q 819 25 488 141 
L 488 750 
Q 750 597 1062 519 
Q 1375 441 1716 441 
Q 2309 441 2620 675 
Q 2931 909 2931 1356 
Q 2931 1769 2642 2001 
Q 2353 2234 1838 2234 
L 1294 2234 
L 1294 2753 
L 1863 2753 
Q 2328 2753 2575 2939 
Q 2822 3125 2822 3475 
Q 2822 3834 2567 4026 
Q 2313 4219 1838 4219 
Q 1578 4219 1281 4162 
Q 984 4106 628 3988 
L 628 4550 
Q 988 4650 1302 4700 
Q 1616 4750 1894 4750 
Q 2613 4750 3031 4423 
Q 3450 4097 3450 3541 
Q 3450 3153 3228 2886 
Q 3006 2619 2597 2516 
z
" transform="scale(0.015625)"/>
        <path id="DejaVuSans-30" d="M 2034 4250 
Q 1547 4250 1301 3770 
Q 1056 3291 1056 2328 
Q 1056 1369 1301 889 
Q 1547 409 2034 409 
Q 2525 409 2770 889 
Q 3016 1369 3016 2328 
Q 3016 3291 2770 3770 
Q 2525 4250 2034 4250 
z
M 2034 4750 
Q 2819 4750 3233 4129 
Q 3647 3509 3647 2328 
Q 3647 1150 3233 529 
Q 2819 -91 2034 -91 
Q 1250 -91 836 529 
Q 422 1150 422 2328 
Q 422 3509 836 4129 
Q 1250 4750 2034 4750 
z
" transform="scale(0.015625)"/>
       </defs>
       <use xlink:href="#DejaVuSans-32"/>
       <use xlink:href="#DejaVuSans-2e" x="63.623047"/>
       <use xlink:href="#DejaVuSans-33" x="95.410156"/>
       <use xlink:href="#DejaVuSans-30" x="159.033203"/>
      </g>
     </g>
    </g>
    <g id="xtick_2">
     <g id="line2d_3">
      <path d="M 120.160362 242.918125 
L 120.160362 22.318125 
" clip-path="url(#p6eb910826b)" style="fill: none; stroke: #b0b0b0; stroke-width: 0.8; stroke-linecap: square"/>
     </g>
     <g id="line2d_4">
      <g>
       <use xlink:href="#mabb6eee88b" x="120.160362" y="242.918125" style="stroke: #000000; stroke-width: 0.8"/>
      </g>
     </g>
     <g id="text_2">
      <!-- 2.35 -->
      <g transform="translate(109.02755 257.516563) scale(0.1 -0.1)">
       <defs>
        <path id="DejaVuSans-35" d="M 691 4666 
L 3169 4666 
L 3169 4134 
L 1269 4134 
L 1269 2991 
Q 1406 3038 1543 3061 
Q 1681 3084 1819 3084 
Q 2600 3084 3056 2656 
Q 3513 2228 3513 1497 
Q 3513 744 3044 326 
Q 2575 -91 1722 -91 
Q 1428 -91 1123 -41 
Q 819 9 494 109 
L 494 744 
Q 775 591 1075 516 
Q 1375 441 1709 441 
Q 2250 441 2565 725 
Q 2881 1009 2881 1497 
Q 2881 1984 2565 2268 
Q 2250 2553 1709 2553 
Q 1456 2553 1204 2497 
Q 953 2441 691 2322 
L 691 4666 
z
" transform="scale(0.015625)"/>
       </defs>
       <use xlink:href="#DejaVuSans-32"/>
       <use xlink:href="#DejaVuSans-2e" x="63.623047"/>
       <use xlink:href="#DejaVuSans-33" x="95.410156"/>
       <use xlink:href="#DejaVuSans-35" x="159.033203"/>
      </g>
     </g>
    </g>
    <g id="xtick_3">
     <g id="line2d_5">
      <path d="M 160.333608 242.918125 
L 160.333608 22.318125 
" clip-path="url(#p6eb910826b)" style="fill: none; stroke: #b0b0b0; stroke-width: 0.8; stroke-linecap: square"/>
     </g>
     <g id="line2d_6">
      <g>
       <use xlink:href="#mabb6eee88b" x="160.333608" y="242.918125" style="stroke: #000000; stroke-width: 0.8"/>
      </g>
     </g>
     <g id="text_3">
      <!-- 2.40 -->
      <g transform="translate(149.200795 257.516563) scale(0.1 -0.1)">
       <defs>
        <path id="DejaVuSans-34" d="M 2419 4116 
L 825 1625 
L 2419 1625 
L 2419 4116 
z
M 2253 4666 
L 3047 4666 
L 3047 1625 
L 3713 1625 
L 3713 1100 
L 3047 1100 
L 3047 0 
L 2419 0 
L 2419 1100 
L 313 1100 
L 313 1709 
L 2253 4666 
z
" transform="scale(0.015625)"/>
       </defs>
       <use xlink:href="#DejaVuSans-32"/>
       <use xlink:href="#DejaVuSans-2e" x="63.623047"/>
       <use xlink:href="#DejaVuSans-34" x="95.410156"/>
       <use xlink:href="#DejaVuSans-30" x="159.033203"/>
      </g>
     </g>
    </g>
    <g id="xtick_4">
     <g id="line2d_7">
      <path d="M 200.506853 242.918125 
L 200.506853 22.318125 
" clip-path="url(#p6eb910826b)" style="fill: none; stroke: #b0b0b0; stroke-width: 0.8; stroke-linecap: square"/>
     </g>
     <g id="line2d_8">
      <g>
       <use xlink:href="#mabb6eee88b" x="200.506853" y="242.918125" style="stroke: #000000; stroke-width: 0.8"/>
      </g>
     </g>
     <g id="text_4">
      <!-- 2.45 -->
      <g transform="translate(189.37404 257.516563) scale(0.1 -0.1)">
       <use xlink:href="#DejaVuSans-32"/>
       <use xlink:href="#DejaVuSans-2e" x="63.623047"/>
       <use xlink:href="#DejaVuSans-34" x="95.410156"/>
       <use xlink:href="#DejaVuSans-35" x="159.033203"/>
      </g>
     </g>
    </g>
    <g id="xtick_5">
     <g id="line2d_9">
      <path d="M 240.680098 242.918125 
L 240.680098 22.318125 
" clip-path="url(#p6eb910826b)" style="fill: none; stroke: #b0b0b0; stroke-width: 0.8; stroke-linecap: square"/>
     </g>
     <g id="line2d_10">
      <g>
       <use xlink:href="#mabb6eee88b" x="240.680098" y="242.918125" style="stroke: #000000; stroke-width: 0.8"/>
      </g>
     </g>
     <g id="text_5">
      <!-- 2.50 -->
      <g transform="translate(229.547286 257.516563) scale(0.1 -0.1)">
       <use xlink:href="#DejaVuSans-32"/>
       <use xlink:href="#DejaVuSans-2e" x="63.623047"/>
       <use xlink:href="#DejaVuSans-35" x="95.410156"/>
       <use xlink:href="#DejaVuSans-30" x="159.033203"/>
      </g>
     </g>
    </g>
    <g id="xtick_6">
     <g id="line2d_11">
      <path d="M 280.853343 242.918125 
L 280.853343 22.318125 
" clip-path="url(#p6eb910826b)" style="fill: none; stroke: #b0b0b0; stroke-width: 0.8; stroke-linecap: square"/>
     </g>
     <g id="line2d_12">
      <g>
       <use xlink:href="#mabb6eee88b" x="280.853343" y="242.918125" style="stroke: #000000; stroke-width: 0.8"/>
      </g>
     </g>
     <g id="text_6">
      <!-- 2.55 -->
      <g transform="translate(269.720531 257.516563) scale(0.1 -0.1)">
       <use xlink:href="#DejaVuSans-32"/>
       <use xlink:href="#DejaVuSans-2e" x="63.623047"/>
       <use xlink:href="#DejaVuSans-35" x="95.410156"/>
       <use xlink:href="#DejaVuSans-35" x="159.033203"/>
      </g>
     </g>
    </g>
    <g id="xtick_7">
     <g id="line2d_13">
      <path d="M 321.026588 242.918125 
L 321.026588 22.318125 
" clip-path="url(#p6eb910826b)" style="fill: none; stroke: #b0b0b0; stroke-width: 0.8; stroke-linecap: square"/>
     </g>
     <g id="line2d_14">
      <g>
       <use xlink:href="#mabb6eee88b" x="321.026588" y="242.918125" style="stroke: #000000; stroke-width: 0.8"/>
      </g>
     </g>
     <g id="text_7">
      <!-- 2.60 -->
      <g transform="translate(309.893776 257.516563) scale(0.1 -0.1)">
       <defs>
        <path id="DejaVuSans-36" d="M 2113 2584 
Q 1688 2584 1439 2293 
Q 1191 2003 1191 1497 
Q 1191 994 1439 701 
Q 1688 409 2113 409 
Q 2538 409 2786 701 
Q 3034 994 3034 1497 
Q 3034 2003 2786 2293 
Q 2538 2584 2113 2584 
z
M 3366 4563 
L 3366 3988 
Q 3128 4100 2886 4159 
Q 2644 4219 2406 4219 
Q 1781 4219 1451 3797 
Q 1122 3375 1075 2522 
Q 1259 2794 1537 2939 
Q 1816 3084 2150 3084 
Q 2853 3084 3261 2657 
Q 3669 2231 3669 1497 
Q 3669 778 3244 343 
Q 2819 -91 2113 -91 
Q 1303 -91 875 529 
Q 447 1150 447 2328 
Q 447 3434 972 4092 
Q 1497 4750 2381 4750 
Q 2619 4750 2861 4703 
Q 3103 4656 3366 4563 
z
" transform="scale(0.015625)"/>
       </defs>
       <use xlink:href="#DejaVuSans-32"/>
       <use xlink:href="#DejaVuSans-2e" x="63.623047"/>
       <use xlink:href="#DejaVuSans-36" x="95.410156"/>
       <use xlink:href="#DejaVuSans-30" x="159.033203"/>
      </g>
     </g>
    </g>
    <g id="xtick_8">
     <g id="line2d_15">
      <path d="M 361.199834 242.918125 
L 361.199834 22.318125 
" clip-path="url(#p6eb910826b)" style="fill: none; stroke: #b0b0b0; stroke-width: 0.8; stroke-linecap: square"/>
     </g>
     <g id="line2d_16">
      <g>
       <use xlink:href="#mabb6eee88b" x="361.199834" y="242.918125" style="stroke: #000000; stroke-width: 0.8"/>
      </g>
     </g>
     <g id="text_8">
      <!-- 2.65 -->
      <g transform="translate(350.067021 257.516563) scale(0.1 -0.1)">
       <use xlink:href="#DejaVuSans-32"/>
       <use xlink:href="#DejaVuSans-2e" x="63.623047"/>
       <use xlink:href="#DejaVuSans-36" x="95.410156"/>
       <use xlink:href="#DejaVuSans-35" x="159.033203"/>
      </g>
     </g>
    </g>
    <g id="xtick_9">
     <g id="line2d_17">
      <path d="M 401.373079 242.918125 
L 401.373079 22.318125 
" clip-path="url(#p6eb910826b)" style="fill: none; stroke: #b0b0b0; stroke-width: 0.8; stroke-linecap: square"/>
     </g>
     <g id="line2d_18">
      <g>
       <use xlink:href="#mabb6eee88b" x="401.373079" y="242.918125" style="stroke: #000000; stroke-width: 0.8"/>
      </g>
     </g>
     <g id="text_9">
      <!-- 2.70 -->
      <g transform="translate(390.240266 257.516563) scale(0.1 -0.1)">
       <defs>
        <path id="DejaVuSans-37" d="M 525 4666 
L 3525 4666 
L 3525 4397 
L 1831 0 
L 1172 0 
L 2766 4134 
L 525 4134 
L 525 4666 
z
" transform="scale(0.015625)"/>
       </defs>
       <use xlink:href="#DejaVuSans-32"/>
       <use xlink:href="#DejaVuSans-2e" x="63.623047"/>
       <use xlink:href="#DejaVuSans-37" x="95.410156"/>
       <use xlink:href="#DejaVuSans-30" x="159.033203"/>
      </g>
     </g>
    </g>
    <g id="text_10">
     <!-- Time [s] -->
     <g transform="translate(222.241406 271.194687) scale(0.1 -0.1)">
      <defs>
       <path id="DejaVuSans-54" d="M -19 4666 
L 3928 4666 
L 3928 4134 
L 2272 4134 
L 2272 0 
L 1638 0 
L 1638 4134 
L -19 4134 
L -19 4666 
z
" transform="scale(0.015625)"/>
       <path id="DejaVuSans-69" d="M 603 3500 
L 1178 3500 
L 1178 0 
L 603 0 
L 603 3500 
z
M 603 4863 
L 1178 4863 
L 1178 4134 
L 603 4134 
L 603 4863 
z
" transform="scale(0.015625)"/>
       <path id="DejaVuSans-6d" d="M 3328 2828 
Q 3544 3216 3844 3400 
Q 4144 3584 4550 3584 
Q 5097 3584 5394 3201 
Q 5691 2819 5691 2113 
L 5691 0 
L 5113 0 
L 5113 2094 
Q 5113 2597 4934 2840 
Q 4756 3084 4391 3084 
Q 3944 3084 3684 2787 
Q 3425 2491 3425 1978 
L 3425 0 
L 2847 0 
L 2847 2094 
Q 2847 2600 2669 2842 
Q 2491 3084 2119 3084 
Q 1678 3084 1418 2786 
Q 1159 2488 1159 1978 
L 1159 0 
L 581 0 
L 581 3500 
L 1159 3500 
L 1159 2956 
Q 1356 3278 1631 3431 
Q 1906 3584 2284 3584 
Q 2666 3584 2933 3390 
Q 3200 3197 3328 2828 
z
" transform="scale(0.015625)"/>
       <path id="DejaVuSans-65" d="M 3597 1894 
L 3597 1613 
L 953 1613 
Q 991 1019 1311 708 
Q 1631 397 2203 397 
Q 2534 397 2845 478 
Q 3156 559 3463 722 
L 3463 178 
Q 3153 47 2828 -22 
Q 2503 -91 2169 -91 
Q 1331 -91 842 396 
Q 353 884 353 1716 
Q 353 2575 817 3079 
Q 1281 3584 2069 3584 
Q 2775 3584 3186 3129 
Q 3597 2675 3597 1894 
z
M 3022 2063 
Q 3016 2534 2758 2815 
Q 2500 3097 2075 3097 
Q 1594 3097 1305 2825 
Q 1016 2553 972 2059 
L 3022 2063 
z
" transform="scale(0.015625)"/>
       <path id="DejaVuSans-20" transform="scale(0.015625)"/>
       <path id="DejaVuSans-5b" d="M 550 4863 
L 1875 4863 
L 1875 4416 
L 1125 4416 
L 1125 -397 
L 1875 -397 
L 1875 -844 
L 550 -844 
L 550 4863 
z
" transform="scale(0.015625)"/>
       <path id="DejaVuSans-73" d="M 2834 3397 
L 2834 2853 
Q 2591 2978 2328 3040 
Q 2066 3103 1784 3103 
Q 1356 3103 1142 2972 
Q 928 2841 928 2578 
Q 928 2378 1081 2264 
Q 1234 2150 1697 2047 
L 1894 2003 
Q 2506 1872 2764 1633 
Q 3022 1394 3022 966 
Q 3022 478 2636 193 
Q 2250 -91 1575 -91 
Q 1294 -91 989 -36 
Q 684 19 347 128 
L 347 722 
Q 666 556 975 473 
Q 1284 391 1588 391 
Q 1994 391 2212 530 
Q 2431 669 2431 922 
Q 2431 1156 2273 1281 
Q 2116 1406 1581 1522 
L 1381 1569 
Q 847 1681 609 1914 
Q 372 2147 372 2553 
Q 372 3047 722 3315 
Q 1072 3584 1716 3584 
Q 2034 3584 2315 3537 
Q 2597 3491 2834 3397 
z
" transform="scale(0.015625)"/>
       <path id="DejaVuSans-5d" d="M 1947 4863 
L 1947 -844 
L 622 -844 
L 622 -397 
L 1369 -397 
L 1369 4416 
L 622 4416 
L 622 4863 
L 1947 4863 
z
" transform="scale(0.015625)"/>
      </defs>
      <use xlink:href="#DejaVuSans-54"/>
      <use xlink:href="#DejaVuSans-69" x="57.958984"/>
      <use xlink:href="#DejaVuSans-6d" x="85.742188"/>
      <use xlink:href="#DejaVuSans-65" x="183.154297"/>
      <use xlink:href="#DejaVuSans-20" x="244.677734"/>
      <use xlink:href="#DejaVuSans-5b" x="276.464844"/>
      <use xlink:href="#DejaVuSans-73" x="315.478516"/>
      <use xlink:href="#DejaVuSans-5d" x="367.578125"/>
     </g>
    </g>
   </g>
   <g id="matplotlib.axis_2">
    <g id="ytick_1">
     <g id="line2d_19">
      <path d="M 68.070313 224.142165 
L 417.070312 224.142165 
" clip-path="url(#p6eb910826b)" style="fill: none; stroke: #b0b0b0; stroke-width: 0.8; stroke-linecap: square"/>
     </g>
     <g id="line2d_20">
      <defs>
       <path id="m4ebe9ae06c" d="M 0 0 
L -3.5 0 
" style="stroke: #000000; stroke-width: 0.8"/>
      </defs>
      <g>
       <use xlink:href="#m4ebe9ae06c" x="68.070313" y="224.142165" style="stroke: #000000; stroke-width: 0.8"/>
      </g>
     </g>
     <g id="text_11">
      <!-- −30000 -->
      <g transform="translate(20.878125 227.941384) scale(0.1 -0.1)">
       <defs>
        <path id="DejaVuSans-2212" d="M 678 2272 
L 4684 2272 
L 4684 1741 
L 678 1741 
L 678 2272 
z
" transform="scale(0.015625)"/>
       </defs>
       <use xlink:href="#DejaVuSans-2212"/>
       <use xlink:href="#DejaVuSans-33" x="83.789062"/>
       <use xlink:href="#DejaVuSans-30" x="147.412109"/>
       <use xlink:href="#DejaVuSans-30" x="211.035156"/>
       <use xlink:href="#DejaVuSans-30" x="274.658203"/>
       <use xlink:href="#DejaVuSans-30" x="338.28125"/>
      </g>
     </g>
    </g>
    <g id="ytick_2">
     <g id="line2d_21">
      <path d="M 68.070313 195.094963 
L 417.070312 195.094963 
" clip-path="url(#p6eb910826b)" style="fill: none; stroke: #b0b0b0; stroke-width: 0.8; stroke-linecap: square"/>
     </g>
     <g id="line2d_22">
      <g>
       <use xlink:href="#m4ebe9ae06c" x="68.070313" y="195.094963" style="stroke: #000000; stroke-width: 0.8"/>
      </g>
     </g>
     <g id="text_12">
      <!-- −20000 -->
      <g transform="translate(20.878125 198.894182) scale(0.1 -0.1)">
       <use xlink:href="#DejaVuSans-2212"/>
       <use xlink:href="#DejaVuSans-32" x="83.789062"/>
       <use xlink:href="#DejaVuSans-30" x="147.412109"/>
       <use xlink:href="#DejaVuSans-30" x="211.035156"/>
       <use xlink:href="#DejaVuSans-30" x="274.658203"/>
       <use xlink:href="#DejaVuSans-30" x="338.28125"/>
      </g>
     </g>
    </g>
    <g id="ytick_3">
     <g id="line2d_23">
      <path d="M 68.070313 166.047761 
L 417.070312 166.047761 
" clip-path="url(#p6eb910826b)" style="fill: none; stroke: #b0b0b0; stroke-width: 0.8; stroke-linecap: square"/>
     </g>
     <g id="line2d_24">
      <g>
       <use xlink:href="#m4ebe9ae06c" x="68.070313" y="166.047761" style="stroke: #000000; stroke-width: 0.8"/>
      </g>
     </g>
     <g id="text_13">
      <!-- −10000 -->
      <g transform="translate(20.878125 169.84698) scale(0.1 -0.1)">
       <defs>
        <path id="DejaVuSans-31" d="M 794 531 
L 1825 531 
L 1825 4091 
L 703 3866 
L 703 4441 
L 1819 4666 
L 2450 4666 
L 2450 531 
L 3481 531 
L 3481 0 
L 794 0 
L 794 531 
z
" transform="scale(0.015625)"/>
       </defs>
       <use xlink:href="#DejaVuSans-2212"/>
       <use xlink:href="#DejaVuSans-31" x="83.789062"/>
       <use xlink:href="#DejaVuSans-30" x="147.412109"/>
       <use xlink:href="#DejaVuSans-30" x="211.035156"/>
       <use xlink:href="#DejaVuSans-30" x="274.658203"/>
       <use xlink:href="#DejaVuSans-30" x="338.28125"/>
      </g>
     </g>
    </g>
    <g id="ytick_4">
     <g id="line2d_25">
      <path d="M 68.070313 137.000559 
L 417.070312 137.000559 
" clip-path="url(#p6eb910826b)" style="fill: none; stroke: #b0b0b0; stroke-width: 0.8; stroke-linecap: square"/>
     </g>
     <g id="line2d_26">
      <g>
       <use xlink:href="#m4ebe9ae06c" x="68.070313" y="137.000559" style="stroke: #000000; stroke-width: 0.8"/>
      </g>
     </g>
     <g id="text_14">
      <!-- 0 -->
      <g transform="translate(54.707813 140.799778) scale(0.1 -0.1)">
       <use xlink:href="#DejaVuSans-30"/>
      </g>
     </g>
    </g>
    <g id="ytick_5">
     <g id="line2d_27">
      <path d="M 68.070313 107.953357 
L 417.070312 107.953357 
" clip-path="url(#p6eb910826b)" style="fill: none; stroke: #b0b0b0; stroke-width: 0.8; stroke-linecap: square"/>
     </g>
     <g id="line2d_28">
      <g>
       <use xlink:href="#m4ebe9ae06c" x="68.070313" y="107.953357" style="stroke: #000000; stroke-width: 0.8"/>
      </g>
     </g>
     <g id="text_15">
      <!-- 10000 -->
      <g transform="translate(29.257813 111.752576) scale(0.1 -0.1)">
       <use xlink:href="#DejaVuSans-31"/>
       <use xlink:href="#DejaVuSans-30" x="63.623047"/>
       <use xlink:href="#DejaVuSans-30" x="127.246094"/>
       <use xlink:href="#DejaVuSans-30" x="190.869141"/>
       <use xlink:href="#DejaVuSans-30" x="254.492188"/>
      </g>
     </g>
    </g>
    <g id="ytick_6">
     <g id="line2d_29">
      <path d="M 68.070313 78.906155 
L 417.070312 78.906155 
" clip-path="url(#p6eb910826b)" style="fill: none; stroke: #b0b0b0; stroke-width: 0.8; stroke-linecap: square"/>
     </g>
     <g id="line2d_30">
      <g>
       <use xlink:href="#m4ebe9ae06c" x="68.070313" y="78.906155" style="stroke: #000000; stroke-width: 0.8"/>
      </g>
     </g>
     <g id="text_16">
      <!-- 20000 -->
      <g transform="translate(29.257813 82.705373) scale(0.1 -0.1)">
       <use xlink:href="#DejaVuSans-32"/>
       <use xlink:href="#DejaVuSans-30" x="63.623047"/>
       <use xlink:href="#DejaVuSans-30" x="127.246094"/>
       <use xlink:href="#DejaVuSans-30" x="190.869141"/>
       <use xlink:href="#DejaVuSans-30" x="254.492188"/>
      </g>
     </g>
    </g>
    <g id="ytick_7">
     <g id="line2d_31">
      <path d="M 68.070313 49.858952 
L 417.070312 49.858952 
" clip-path="url(#p6eb910826b)" style="fill: none; stroke: #b0b0b0; stroke-width: 0.8; stroke-linecap: square"/>
     </g>
     <g id="line2d_32">
      <g>
       <use xlink:href="#m4ebe9ae06c" x="68.070313" y="49.858952" style="stroke: #000000; stroke-width: 0.8"/>
      </g>
     </g>
     <g id="text_17">
      <!-- 30000 -->
      <g transform="translate(29.257813 53.658171) scale(0.1 -0.1)">
       <use xlink:href="#DejaVuSans-33"/>
       <use xlink:href="#DejaVuSans-30" x="63.623047"/>
       <use xlink:href="#DejaVuSans-30" x="127.246094"/>
       <use xlink:href="#DejaVuSans-30" x="190.869141"/>
       <use xlink:href="#DejaVuSans-30" x="254.492188"/>
      </g>
     </g>
    </g>
    <g id="text_18">
     <!-- Signal -->
     <g transform="translate(14.798438 147.9775) rotate(-90) scale(0.1 -0.1)">
      <defs>
       <path id="DejaVuSans-53" d="M 3425 4513 
L 3425 3897 
Q 3066 4069 2747 4153 
Q 2428 4238 2131 4238 
Q 1616 4238 1336 4038 
Q 1056 3838 1056 3469 
Q 1056 3159 1242 3001 
Q 1428 2844 1947 2747 
L 2328 2669 
Q 3034 2534 3370 2195 
Q 3706 1856 3706 1288 
Q 3706 609 3251 259 
Q 2797 -91 1919 -91 
Q 1588 -91 1214 -16 
Q 841 59 441 206 
L 441 856 
Q 825 641 1194 531 
Q 1563 422 1919 422 
Q 2459 422 2753 634 
Q 3047 847 3047 1241 
Q 3047 1584 2836 1778 
Q 2625 1972 2144 2069 
L 1759 2144 
Q 1053 2284 737 2584 
Q 422 2884 422 3419 
Q 422 4038 858 4394 
Q 1294 4750 2059 4750 
Q 2388 4750 2728 4690 
Q 3069 4631 3425 4513 
z
" transform="scale(0.015625)"/>
       <path id="DejaVuSans-67" d="M 2906 1791 
Q 2906 2416 2648 2759 
Q 2391 3103 1925 3103 
Q 1463 3103 1205 2759 
Q 947 2416 947 1791 
Q 947 1169 1205 825 
Q 1463 481 1925 481 
Q 2391 481 2648 825 
Q 2906 1169 2906 1791 
z
M 3481 434 
Q 3481 -459 3084 -895 
Q 2688 -1331 1869 -1331 
Q 1566 -1331 1297 -1286 
Q 1028 -1241 775 -1147 
L 775 -588 
Q 1028 -725 1275 -790 
Q 1522 -856 1778 -856 
Q 2344 -856 2625 -561 
Q 2906 -266 2906 331 
L 2906 616 
Q 2728 306 2450 153 
Q 2172 0 1784 0 
Q 1141 0 747 490 
Q 353 981 353 1791 
Q 353 2603 747 3093 
Q 1141 3584 1784 3584 
Q 2172 3584 2450 3431 
Q 2728 3278 2906 2969 
L 2906 3500 
L 3481 3500 
L 3481 434 
z
" transform="scale(0.015625)"/>
       <path id="DejaVuSans-6e" d="M 3513 2113 
L 3513 0 
L 2938 0 
L 2938 2094 
Q 2938 2591 2744 2837 
Q 2550 3084 2163 3084 
Q 1697 3084 1428 2787 
Q 1159 2491 1159 1978 
L 1159 0 
L 581 0 
L 581 3500 
L 1159 3500 
L 1159 2956 
Q 1366 3272 1645 3428 
Q 1925 3584 2291 3584 
Q 2894 3584 3203 3211 
Q 3513 2838 3513 2113 
z
" transform="scale(0.015625)"/>
       <path id="DejaVuSans-61" d="M 2194 1759 
Q 1497 1759 1228 1600 
Q 959 1441 959 1056 
Q 959 750 1161 570 
Q 1363 391 1709 391 
Q 2188 391 2477 730 
Q 2766 1069 2766 1631 
L 2766 1759 
L 2194 1759 
z
M 3341 1997 
L 3341 0 
L 2766 0 
L 2766 531 
Q 2569 213 2275 61 
Q 1981 -91 1556 -91 
Q 1019 -91 701 211 
Q 384 513 384 1019 
Q 384 1609 779 1909 
Q 1175 2209 1959 2209 
L 2766 2209 
L 2766 2266 
Q 2766 2663 2505 2880 
Q 2244 3097 1772 3097 
Q 1472 3097 1187 3025 
Q 903 2953 641 2809 
L 641 3341 
Q 956 3463 1253 3523 
Q 1550 3584 1831 3584 
Q 2591 3584 2966 3190 
Q 3341 2797 3341 1997 
z
" transform="scale(0.015625)"/>
       <path id="DejaVuSans-6c" d="M 603 4863 
L 1178 4863 
L 1178 0 
L 603 0 
L 603 4863 
z
" transform="scale(0.015625)"/>
      </defs>
      <use xlink:href="#DejaVuSans-53"/>
      <use xlink:href="#DejaVuSans-69" x="63.476562"/>
      <use xlink:href="#DejaVuSans-67" x="91.259766"/>
      <use xlink:href="#DejaVuSans-6e" x="154.736328"/>
      <use xlink:href="#DejaVuSans-61" x="218.115234"/>
      <use xlink:href="#DejaVuSans-6c" x="279.394531"/>
     </g>
    </g>
   </g>
   <g id="line2d_33">
    <path d="M 68.065534 228.635768 
L 68.113742 233.556364 
L 68.145881 229.248664 
L 68.258366 173.347323 
L 68.515475 40.572562 
L 68.547613 45.083592 
L 68.660099 101.562972 
L 68.901138 233.43727 
L 68.933277 231.761247 
L 69.029693 193.244657 
L 69.302871 40.433135 
L 69.351079 45.350827 
L 69.463564 102.713242 
L 69.704604 233.994976 
L 69.736743 231.897768 
L 69.833159 191.789392 
L 70.106337 39.675003 
L 70.154545 45.522205 
L 70.283099 116.496139 
L 70.50807 234.779251 
L 70.540208 232.03429 
L 70.636624 190.032036 
L 70.909803 38.861682 
L 70.958011 46.094435 
L 71.086565 120.321655 
L 71.311535 235.543192 
L 71.327605 234.395828 
L 71.407951 206.644131 
L 71.713268 38.245881 
L 71.777546 52.824672 
L 71.986447 195.138534 
L 72.098932 235.781379 
L 72.14714 230.802689 
L 72.259625 172.060532 
L 72.500665 38.260405 
L 72.532803 40.424421 
L 72.629219 81.206693 
L 72.902398 235.700047 
L 72.950605 229.408423 
L 73.07916 156.456375 
L 73.30413 38.41145 
L 73.336269 41.5805 
L 73.432685 84.695262 
L 73.705863 235.342767 
L 73.738002 231.903578 
L 73.850487 177.469121 
L 74.107596 39.047584 
L 74.139735 42.730769 
L 74.25222 97.891406 
L 74.509329 234.695014 
L 74.541468 230.561597 
L 74.653953 174.544068 
L 74.911062 39.904476 
L 74.9432 44.186034 
L 75.055686 99.965376 
L 75.312795 233.721933 
L 75.344933 229.475232 
L 75.457419 173.814983 
L 75.714528 40.64518 
L 75.746666 44.79312 
L 75.859151 99.918901 
L 76.11626 233.013181 
L 76.148399 229.016286 
L 76.260884 174.323309 
L 76.517993 41.403312 
L 76.550132 45.359541 
L 76.662617 99.712666 
L 76.919726 232.240525 
L 76.951865 228.322058 
L 77.06435 174.279738 
L 77.321459 42.199205 
L 77.353598 45.99277 
L 77.466083 99.387337 
L 77.723192 231.316824 
L 77.75533 227.549402 
L 77.867816 174.166454 
L 78.124925 43.424997 
L 78.157063 47.238895 
L 78.269548 100.39237 
L 78.526658 229.919654 
L 78.558796 225.899521 
L 78.671281 172.499145 
L 78.92839 44.947071 
L 78.960529 49.217009 
L 79.073014 103.04438 
L 79.314054 228.380152 
L 79.346193 226.669272 
L 79.442608 189.689279 
L 79.715787 46.358765 
L 79.763995 51.627927 
L 79.892549 117.512791 
L 80.11752 226.956839 
L 80.149658 224.339686 
L 80.246074 185.669146 
L 80.519252 47.927314 
L 80.56746 54.451315 
L 80.696015 121.120454 
L 80.920985 225.420242 
L 80.953124 222.207622 
L 81.065609 172.746046 
L 81.322718 49.144391 
L 81.354857 52.723007 
L 81.467342 102.727765 
L 81.724451 224.516874 
L 81.75659 220.671025 
L 81.869075 170.26832 
L 82.126184 49.925761 
L 82.158323 53.844229 
L 82.270808 104.339885 
L 82.527917 223.7326 
L 82.543986 222.347048 
L 82.640402 188.07135 
L 82.91358 50.646132 
L 82.961788 54.794072 
L 83.074273 105.283919 
L 83.315313 223.113894 
L 83.347452 221.641201 
L 83.443868 187.374217 
L 83.717046 51.433311 
L 83.765254 55.677107 
L 83.877739 105.766102 
L 84.118779 221.786437 
L 84.150917 220.424124 
L 84.247333 187.008222 
L 84.536581 53.013479 
L 84.584789 60.742939 
L 84.729413 136.445757 
L 84.938314 220.307935 
L 84.954383 219.015334 
L 85.050799 186.51442 
L 85.340047 54.529743 
L 85.388255 61.791543 
L 85.532878 135.408772 
L 85.74178 218.637721 
L 85.757849 217.533927 
L 85.838195 194.060883 
L 86.143512 56.443953 
L 86.20779 67.868218 
L 86.400621 173.193373 
L 86.545245 216.621845 
L 86.577384 213.478938 
L 86.689869 168.804341 
L 86.946978 58.210023 
L 86.979117 61.262884 
L 87.091602 105.440774 
L 87.348711 215.146247 
L 87.38085 212.174718 
L 87.493335 168.580677 
L 87.750444 59.563623 
L 87.782582 62.39282 
L 87.895068 105.429155 
L 88.152177 213.914646 
L 88.184315 211.004116 
L 88.296801 167.98521 
L 88.55391 60.641274 
L 88.586048 63.633136 
L 88.698533 106.463235 
L 88.955642 212.903803 
L 88.987781 209.885799 
L 89.100266 166.843654 
L 89.357375 61.800257 
L 89.389514 65.015783 
L 89.501999 108.116021 
L 89.759108 211.489204 
L 89.791247 208.183633 
L 89.903732 165.115346 
L 90.160841 63.240999 
L 90.19298 66.694711 
L 90.305465 109.757188 
L 90.546504 210.184985 
L 90.578643 208.843004 
L 90.675059 179.383332 
L 90.948237 64.519075 
L 90.996445 68.388163 
L 91.125 120.083468 
L 91.34997 208.880765 
L 91.382109 207.315121 
L 91.478525 177.765402 
L 91.751703 65.710011 
L 91.799911 69.994473 
L 91.928466 121.753683 
L 92.153436 207.643355 
L 92.185575 205.836619 
L 92.28199 176.368232 
L 92.555169 67.022944 
L 92.603377 71.269645 
L 92.731931 122.047059 
L 92.956902 206.583132 
L 92.98904 204.8403 
L 93.085456 175.755336 
L 93.358634 67.94955 
L 93.406842 72.1033 
L 93.535397 121.939585 
L 93.760367 205.61586 
L 93.792506 204.018264 
L 93.888922 175.621719 
L 94.1621 69.003963 
L 94.210308 72.809147 
L 94.338863 121.230833 
L 94.563833 204.349402 
L 94.595972 203.06842 
L 94.692388 176.167806 
L 94.965566 70.401134 
L 95.013774 73.61085 
L 95.126259 112.38015 
L 95.383368 202.775044 
L 95.399437 201.740963 
L 95.495853 176.069046 
L 95.785101 72.123633 
L 95.833309 77.831408 
L 95.977933 135.577246 
L 96.186834 201.040926 
L 96.202903 200.181128 
L 96.28325 181.811678 
L 96.588567 73.776419 
L 96.652844 82.737481 
L 96.845676 165.426151 
L 96.990299 199.460758 
L 97.022438 196.983031 
L 97.134923 161.873678 
L 97.392032 75.243302 
L 97.424171 77.715219 
L 97.536656 112.412102 
L 97.793765 198.014207 
L 97.825904 195.670098 
L 97.938389 161.475732 
L 98.195498 76.710186 
L 98.227637 78.941011 
L 98.340122 112.525386 
L 98.597231 196.892985 
L 98.62937 194.647636 
L 98.741855 161.330495 
L 98.998964 77.471223 
L 99.031102 79.646858 
L 99.143588 112.542815 
L 99.400697 196.181329 
L 99.432835 194.066692 
L 99.54532 161.295639 
L 99.802429 78.133499 
L 99.834568 80.262659 
L 99.947053 112.882667 
L 100.204162 195.580052 
L 100.236301 193.569985 
L 100.348786 161.403113 
L 100.605895 78.787061 
L 100.638034 80.675129 
L 100.750519 112.356913 
L 101.007628 194.862586 
L 101.039767 192.965803 
L 101.152252 161.289829 
L 101.409361 79.757238 
L 101.441499 81.642401 
L 101.537915 106.480664 
L 101.811094 193.674555 
L 101.859302 189.651518 
L 101.987856 147.791595 
L 102.212827 81.075981 
L 102.244965 82.754909 
L 102.341381 106.596852 
L 102.614559 192.152482 
L 102.662767 188.608723 
L 102.791322 148.604916 
L 103.016292 82.722957 
L 103.048431 84.050414 
L 103.144847 106.387713 
L 103.418025 190.456125 
L 103.466233 187.528167 
L 103.594788 149.670949 
L 103.819758 84.535502 
L 103.851897 85.406918 
L 103.948312 105.882291 
L 104.23756 188.719102 
L 104.285768 184.356213 
L 104.430392 138.798581 
L 104.639293 85.816484 
L 104.655362 86.359667 
L 104.735709 100.218087 
L 105.041026 187.728593 
L 105.105303 181.58511 
L 105.282066 122.314294 
L 105.442759 86.769232 
L 105.474897 88.009548 
L 105.571313 108.714394 
L 105.844492 186.857177 
L 105.8927 184.216786 
L 106.021254 148.883769 
L 106.262294 87.472175 
L 106.278363 88.24483 
L 106.374779 107.590267 
L 106.664027 186.325613 
L 106.712235 182.003389 
L 106.856858 138.066591 
L 107.065759 87.995024 
L 107.081829 88.605015 
L 107.162175 102.431484 
L 107.467492 185.645908 
L 107.53177 178.892434 
L 107.724601 115.093159 
L 107.869225 88.76187 
L 107.901364 90.658653 
L 108.013849 117.846834 
L 108.270958 184.809349 
L 108.303097 182.866091 
L 108.415582 155.840574 
L 108.672691 89.734952 
L 108.704829 91.681114 
L 108.817315 118.546871 
L 109.074424 183.630033 
L 109.106562 181.62868 
L 109.219048 154.916873 
L 109.476157 91.137931 
L 109.508295 93.127665 
L 109.62078 119.563524 
L 109.877889 182.244481 
L 109.910028 180.164701 
L 110.022513 154.077409 
L 110.279622 92.337581 
L 110.311761 94.298267 
L 110.424246 119.830758 
L 110.681355 181.100021 
L 110.713494 179.299095 
L 110.825979 154.353358 
L 111.083088 93.48785 
L 111.115227 95.190016 
L 111.227712 119.633237 
L 111.484821 180.048513 
L 111.516959 178.456726 
L 111.629445 154.600259 
L 111.886554 94.507407 
L 111.918692 95.907482 
L 112.031178 118.82282 
L 112.288287 178.985385 
L 112.320425 177.797354 
L 112.416841 160.165703 
L 112.690019 95.535678 
L 112.738227 97.946596 
L 112.866782 127.475981 
L 113.091752 177.928067 
L 113.123891 177.181554 
L 113.220307 160.886073 
L 113.493485 96.604615 
L 113.541693 98.437493 
L 113.654178 121.689779 
L 113.911287 176.931748 
L 113.943426 175.264438 
L 114.055911 152.802237 
L 114.31302 97.522507 
L 114.345159 98.942915 
L 114.457644 120.69346 
L 114.714753 176.039999 
L 114.746892 174.68059 
L 114.859377 153.296039 
L 115.116486 98.437493 
L 115.148624 99.680714 
L 115.26111 120.405892 
L 115.518219 174.985585 
L 115.550357 173.919553 
L 115.646773 157.90583 
L 115.919952 99.497716 
L 115.968159 101.838921 
L 116.096714 129.041626 
L 116.321684 174.064789 
L 116.353823 173.181754 
L 116.450239 157.940687 
L 116.723417 100.348799 
L 116.771625 102.329818 
L 116.88411 123.999031 
L 117.12515 173.239848 
L 117.157289 172.531097 
L 117.253705 157.934878 
L 117.526883 101.188263 
L 117.575091 102.925286 
L 117.687576 123.717273 
L 117.944685 172.438146 
L 117.976824 170.820216 
L 118.089309 150.437795 
L 118.346418 101.946395 
L 118.378557 103.517849 
L 118.491042 123.560419 
L 118.748151 171.613205 
L 118.780289 170.128893 
L 118.892775 150.734076 
L 119.149884 102.916572 
L 119.182022 104.148173 
L 119.294507 122.97076 
L 119.551617 170.715647 
L 119.583755 169.515997 
L 119.69624 150.949025 
L 119.953349 103.671799 
L 119.985488 104.729117 
L 120.097973 122.71805 
L 120.355082 169.90523 
L 120.387221 168.967005 
L 120.483637 155.195726 
L 120.756815 104.549025 
L 120.805023 106.448712 
L 120.933578 129.631284 
L 121.158548 169.007671 
L 121.190687 168.39187 
L 121.287102 155.657577 
L 121.57635 105.464012 
L 121.624558 108.284495 
L 121.769182 136.384758 
L 121.978083 168.165302 
L 121.994152 167.773165 
L 122.074499 159.021243 
L 122.379816 106.161144 
L 122.444093 110.099945 
L 122.620856 146.295664 
L 122.781549 167.473979 
L 122.813687 166.611277 
L 122.910103 153.717224 
L 123.183282 106.913467 
L 123.231489 108.667918 
L 123.360044 130.270322 
L 123.585014 166.759418 
L 123.617153 166.181378 
L 123.713569 154.257502 
L 124.002817 107.616409 
L 124.034955 108.940962 
L 124.14744 125.762196 
L 124.404549 166.021619 
L 124.436688 164.798731 
L 124.549173 148.538108 
L 124.806282 108.39197 
L 124.838421 109.405717 
L 124.950906 125.227728 
L 125.208015 165.257677 
L 125.240154 164.278787 
L 125.352639 148.860532 
L 125.609748 109.109435 
L 125.641887 109.989566 
L 125.738302 121.843729 
L 126.011481 164.490831 
L 126.059689 162.707333 
L 126.188243 142.664763 
L 126.413214 109.806568 
L 126.445352 110.544367 
L 126.541768 121.901823 
L 126.814947 163.866316 
L 126.863154 162.225149 
L 126.991709 142.888427 
L 127.216679 110.500796 
L 127.248818 111.102074 
L 127.345234 121.872776 
L 127.618412 163.180802 
L 127.66662 161.783632 
L 127.795175 143.315421 
L 128.020145 111.046884 
L 128.052284 111.485497 
L 128.1487 121.663636 
L 128.437947 162.756713 
L 128.486155 160.438746 
L 128.630779 137.40722 
L 128.83968 111.502925 
L 128.855749 111.831158 
L 128.936096 119.008722 
L 129.241413 162.254197 
L 129.30569 158.919578 
L 129.482453 129.096815 
L 129.643146 112.01706 
L 129.675284 112.807144 
L 129.7717 123.511038 
L 130.044879 161.693586 
L 130.093087 160.095989 
L 130.221641 142.258103 
L 130.446612 112.69386 
L 130.47875 113.193472 
L 130.575166 123.02595 
L 130.848344 160.961596 
L 130.896552 159.756137 
L 131.009038 145.889003 
L 131.266147 113.350327 
L 131.282216 113.675656 
L 131.362562 120.362322 
L 131.667879 160.305129 
L 131.732157 157.199983 
L 131.908919 129.732949 
L 132.069612 114.006794 
L 132.101751 114.747497 
L 132.198167 124.588689 
L 132.471345 159.613806 
L 132.519553 158.222445 
L 132.648108 142.02282 
L 132.889147 114.762021 
L 132.905217 115.128016 
L 133.001632 123.946746 
L 133.29088 158.94572 
L 133.323019 157.978448 
L 133.435504 145.552055 
L 133.692613 115.29068 
L 133.724752 116.054621 
L 133.837237 127.958165 
L 134.094346 158.472251 
L 134.126484 157.859355 
L 134.23897 146.359567 
L 134.496079 115.65958 
L 134.528217 116.205667 
L 134.624633 125.006969 
L 134.897812 158.085923 
L 134.946019 156.97051 
L 135.074574 142.191294 
L 135.315614 116.083669 
L 135.331683 116.406093 
L 135.41203 122.500196 
L 135.717347 157.717024 
L 135.781624 154.713543 
L 135.974456 127.571837 
L 136.119079 116.458378 
L 136.151218 117.306556 
L 136.263703 128.783105 
L 136.520812 157.263887 
L 136.552951 156.50285 
L 136.665436 145.194775 
L 136.922545 116.934752 
L 136.954684 117.652218 
L 137.067169 128.730821 
L 137.324278 156.807846 
L 137.356417 156.133951 
L 137.468902 145.360344 
L 137.726011 117.393698 
L 137.758149 118.012403 
L 137.854565 126.485472 
L 138.127744 156.345996 
L 138.175952 155.012729 
L 138.304506 140.817361 
L 138.529477 117.890405 
L 138.561615 118.40454 
L 138.658031 126.322807 
L 138.931209 155.83767 
L 138.979417 154.774542 
L 139.107972 141.441876 
L 139.332942 118.439397 
L 139.365081 118.735678 
L 139.461497 125.948099 
L 139.750744 155.375819 
L 139.798952 153.845031 
L 139.927507 140.05342 
L 140.152477 118.790868 
L 140.184616 119.400859 
L 140.297101 129.163624 
L 140.55421 154.974968 
L 140.586349 154.501498 
L 140.682765 147.16127 
L 140.972012 119.217862 
L 141.004151 120.01666 
L 141.116636 130.168657 
L 141.373745 154.58864 
L 141.405884 153.920554 
L 141.518369 144.178123 
L 141.775478 119.595475 
L 141.807617 120.097992 
L 141.904033 127.452744 
L 142.177211 154.123885 
L 142.225419 153.194374 
L 142.353973 141.017787 
L 142.578944 120.11542 
L 142.611082 120.417511 
L 142.707498 127.057702 
L 142.996746 153.586511 
L 143.044954 152.157389 
L 143.189578 137.596027 
L 143.398479 120.670222 
L 143.414548 120.84741 
L 143.494895 125.224823 
L 143.800212 153.104328 
L 143.864489 151.094261 
L 144.041251 132.1642 
L 144.201944 121.134977 
L 144.234083 121.588113 
L 144.346568 130.017612 
L 144.603677 152.665715 
L 144.635816 152.209674 
L 144.732232 145.700196 
L 145.00541 121.541638 
L 145.053618 122.439197 
L 145.182173 133.480038 
L 145.407143 152.261959 
L 145.439282 151.954059 
L 145.535698 145.830908 
L 145.824945 121.910537 
L 145.857084 122.60767 
L 145.969569 131.397354 
L 146.226678 151.948249 
L 146.258817 151.283068 
L 146.371302 142.685096 
L 146.612342 122.186486 
L 146.660549 122.802287 
L 146.773035 131.176595 
L 147.030144 151.686824 
L 147.062282 151.129118 
L 147.174768 142.972664 
L 147.431877 122.485672 
L 147.464015 122.964951 
L 147.5765 130.81641 
L 147.833609 151.31502 
L 147.865748 150.908359 
L 147.962164 144.854922 
L 148.235342 122.892333 
L 148.28355 123.766654 
L 148.412105 133.907032 
L 148.637075 150.890931 
L 148.669214 150.58884 
L 148.76563 144.974016 
L 149.038808 123.325136 
L 149.087016 123.958365 
L 149.199501 131.859204 
L 149.45661 150.507508 
L 149.488749 149.952706 
L 149.617303 140.701173 
L 149.858343 123.676607 
L 149.890482 124.144267 
L 150.002967 131.496114 
L 150.260076 150.100847 
L 150.292214 149.729043 
L 150.38863 144.215884 
L 150.661809 124.074554 
L 150.710017 124.78621 
L 150.838571 133.93027 
L 151.079611 149.781328 
L 151.09568 149.595426 
L 151.192096 144.683544 
L 151.481344 124.327265 
L 151.529552 125.297441 
L 151.674176 136.274379 
L 151.883077 149.470523 
L 151.915215 149.098719 
L 152.0277 142.516623 
L 152.284809 124.63226 
L 152.333017 125.320679 
L 152.461572 134.069696 
L 152.686542 149.206193 
L 152.718681 148.997053 
L 152.799027 145.406819 
L 153.104344 124.928542 
L 153.168622 126.665564 
L 153.377523 143.675606 
L 153.506077 148.904102 
L 153.538216 148.424824 
L 153.634632 143.234089 
L 153.90781 125.25968 
L 153.939949 125.675055 
L 154.036365 130.784458 
L 154.309543 148.581678 
L 154.341682 148.192446 
L 154.454167 141.895013 
L 154.711276 125.56758 
L 154.743415 125.898718 
L 154.83983 130.76122 
L 155.113009 148.273778 
L 155.161217 147.518551 
L 155.289771 139.245908 
L 155.514742 125.846433 
L 155.54688 126.157238 
L 155.643296 130.767029 
L 155.932544 148.003639 
L 155.964682 147.445933 
L 156.093237 139.713568 
L 156.318207 126.128191 
L 156.350346 126.29376 
L 156.446762 130.525938 
L 156.736009 147.721881 
L 156.784217 146.824323 
L 156.928841 137.398506 
L 157.137742 126.380902 
L 157.153812 126.473853 
L 157.234158 129.335002 
L 157.539475 147.477885 
L 157.603752 146.263712 
L 157.796584 132.846809 
L 157.941208 126.671374 
L 157.973347 126.924085 
L 158.069763 131.042978 
L 158.35901 147.196127 
L 158.391149 146.760419 
L 158.519703 139.699044 
L 158.760743 126.897942 
L 158.792882 127.287175 
L 158.905367 132.88457 
L 159.162476 146.966654 
L 159.194615 146.679087 
L 159.3071 141.377972 
L 159.564209 127.153557 
L 159.596347 127.380126 
L 159.692763 131.403163 
L 159.965942 146.690706 
L 160.01415 146.18238 
L 160.126635 140.558841 
L 160.383744 127.441125 
L 160.415882 127.8565 
L 160.528368 133.24766 
L 160.785477 146.423471 
L 160.817615 146.101047 
L 160.9301 140.936455 
L 161.187209 127.679312 
L 161.219348 127.952355 
L 161.331833 132.928141 
L 161.588942 146.162047 
L 161.621081 145.952907 
L 161.717497 142.23196 
L 161.990675 127.998831 
L 162.038883 128.440348 
L 162.151368 133.66594 
L 162.408477 145.894812 
L 162.440616 145.49977 
L 162.553101 140.451367 
L 162.81021 128.205066 
L 162.842349 128.518776 
L 162.938765 132.42272 
L 163.211943 145.729243 
L 163.244082 145.412629 
L 163.340498 141.685873 
L 163.613676 128.361921 
L 163.661884 128.931246 
L 163.790438 135.205442 
L 164.015409 145.528818 
L 164.047547 145.360344 
L 164.143963 141.903727 
L 164.417142 128.524585 
L 164.46535 128.93996 
L 164.593904 134.827828 
L 164.834944 145.331297 
L 164.851013 145.24125 
L 164.947429 142.121581 
L 165.236677 128.664012 
L 165.284885 129.337907 
L 165.429508 136.593898 
L 165.63841 145.244155 
L 165.670548 144.985635 
L 165.783033 140.518175 
L 166.040142 128.847009 
L 166.072281 129.079387 
L 166.168697 132.475005 
L 166.441875 145.046634 
L 166.490083 144.613831 
L 166.618638 138.926388 
L 166.859677 129.070673 
L 166.875747 129.183957 
L 166.972163 132.379149 
L 167.26141 144.834589 
L 167.309618 144.128742 
L 167.454242 137.157414 
L 167.663143 129.244956 
L 167.679212 129.378573 
L 167.759559 131.522257 
L 168.064876 144.567355 
L 168.129153 143.655273 
L 168.321985 133.87508 
L 168.466609 129.515095 
L 168.498747 129.72133 
L 168.595163 132.841 
L 168.868342 144.393072 
L 168.91655 143.951554 
L 169.045104 138.731772 
L 169.270075 129.715521 
L 169.302213 129.854947 
L 169.398629 132.68124 
L 169.687877 144.163599 
L 169.736085 143.588464 
L 169.880708 137.360744 
L 170.08961 129.933375 
L 170.121748 130.1338 
L 170.234233 133.918651 
L 170.491342 143.960269 
L 170.523481 143.803414 
L 170.619897 140.994549 
L 170.909145 130.075706 
L 170.957352 130.737982 
L 171.085907 135.99843 
L 171.310877 143.849889 
L 171.326947 143.759843 
L 171.407293 141.880489 
L 171.71261 130.223847 
L 171.776888 131.060406 
L 171.937581 138.200208 
L 172.114343 143.7337 
L 172.146482 143.565227 
L 172.258967 140.059229 
L 172.516076 130.325512 
L 172.548215 130.485272 
L 172.64463 133.175042 
L 172.933878 143.562322 
L 172.966017 143.239898 
L 173.078502 139.472476 
L 173.335611 130.514319 
L 173.36775 130.775744 
L 173.480235 134.415358 
L 173.737344 143.408372 
L 173.769482 143.126614 
L 173.865898 140.358416 
L 174.139077 130.682792 
L 174.171215 130.880313 
L 174.29977 135.057301 
L 174.54081 143.274755 
L 174.556879 143.242803 
L 174.653295 141.014882 
L 174.942542 130.804791 
L 175.00682 131.4874 
L 175.199651 139.457952 
L 175.344275 143.109186 
L 175.376414 142.972664 
L 175.488899 139.797805 
L 175.746008 130.941313 
L 175.794216 131.272451 
L 175.906701 134.845257 
L 176.16381 142.95814 
L 176.195949 142.647335 
L 176.292365 139.954659 
L 176.565543 131.144643 
L 176.597682 131.385735 
L 176.710167 134.624498 
L 176.967276 142.786762 
L 176.999415 142.60086 
L 177.1119 139.443429 
L 177.369009 131.272451 
L 177.401147 131.469972 
L 177.497563 133.877985 
L 177.770742 142.629907 
L 177.81895 142.284245 
L 177.947504 138.293159 
L 178.188544 131.467067 
L 178.204613 131.568732 
L 178.301029 133.744368 
L 178.590277 142.458528 
L 178.638485 141.979249 
L 178.815247 135.873528 
L 178.99201 131.667493 
L 179.024148 131.85049 
L 179.104495 133.639798 
L 179.393742 142.28134 
L 179.44195 141.892108 
L 179.570505 138.057877 
L 179.795475 131.815633 
L 179.827614 131.949251 
L 179.940099 134.618688 
L 180.197208 142.0722 
L 180.229347 141.976345 
L 180.309693 140.506556 
L 180.598941 131.998631 
L 180.663218 132.466291 
L 180.807842 136.881465 
L 181.016743 141.892108 
L 181.032812 141.822395 
L 181.113159 140.489128 
L 181.418476 132.140962 
L 181.498823 133.079187 
L 181.820209 141.741062 
L 181.916625 140.57627 
L 182.238011 132.379149 
L 182.302288 133.084996 
L 182.639744 141.575493 
L 182.73616 140.21318 
L 183.041477 132.480814 
L 183.105754 133.073377 
L 183.266447 137.863261 
L 183.44321 141.441876 
L 183.475348 141.314068 
L 183.571764 139.449238 
L 183.861012 132.643479 
L 183.89315 132.896189 
L 184.021705 136.021668 
L 184.246675 141.319878 
L 184.278814 141.19788 
L 184.343091 140.282893 
L 184.664477 132.742239 
L 184.728755 133.433563 
L 184.889448 138.008497 
L 185.06621 141.163023 
L 185.098349 140.991645 
L 185.226903 138.115972 
L 185.467943 132.899094 
L 185.484012 132.919427 
L 185.612567 135.341964 
L 185.869676 141.084596 
L 185.901815 140.959693 
L 186.046438 137.749977 
L 186.271409 132.98914 
L 186.303547 133.082091 
L 186.399963 134.787162 
L 186.673142 140.98874 
L 186.72135 140.738934 
L 186.849904 137.877784 
L 187.074875 133.04433 
L 187.107013 133.154709 
L 187.18736 134.328216 
L 187.492677 140.820266 
L 187.556954 140.268369 
L 187.89441 133.241851 
L 187.990825 134.307883 
L 188.296142 140.698268 
L 188.376489 140.059229 
L 188.713945 133.398706 
L 188.794291 134.226551 
L 189.115677 140.550127 
L 189.196024 139.803614 
L 189.51741 133.500371 
L 189.613826 134.458929 
L 189.903074 140.378749 
L 189.99949 139.800709 
L 190.320876 133.639798 
L 190.401223 134.18298 
L 190.738678 140.317749 
L 190.819025 139.582855 
L 191.140411 133.741463 
L 191.204688 134.212028 
L 191.445728 139.370811 
L 191.542144 140.21318 
L 191.590352 139.986611 
L 191.734976 137.195175 
L 191.943877 133.828604 
L 191.959946 133.860556 
L 192.040293 134.714544 
L 192.34561 140.163799 
L 192.425956 139.568332 
L 192.618788 135.414582 
L 192.763412 133.863461 
L 192.79555 134.060982 
L 192.908036 135.902575 
L 193.165145 140.096991 
L 193.181214 140.033087 
L 193.293699 138.473252 
L 193.550808 133.999983 
L 193.582947 134.043554 
L 193.663293 134.926589 
L 193.96861 139.951755 
L 194.016818 139.701949 
L 194.145373 137.485647 
L 194.370343 134.110362 
L 194.386413 134.153933 
L 194.43462 134.5025 
L 194.579244 137.19227 
L 194.772076 139.832661 
L 194.788145 139.829756 
L 194.868492 139.091958 
L 195.173809 134.217837 
L 195.254155 134.737782 
L 195.430918 138.081115 
L 195.575542 139.73971 
L 195.60768 139.63514 
L 195.671958 139.054196 
L 195.993344 134.334026 
L 196.057621 134.746496 
L 196.395077 139.63514 
L 196.491493 138.842152 
L 196.79681 134.418263 
L 196.861087 134.734877 
L 197.005711 137.119652 
L 197.198542 139.562522 
L 197.214612 139.559617 
L 197.311028 138.717249 
L 197.600275 134.424072 
L 197.680622 134.842352 
L 198.018078 139.562522 
L 198.114493 138.8102 
L 198.41981 134.487976 
L 198.484088 134.784257 
L 198.66085 137.761596 
L 198.821543 139.527666 
L 198.853682 139.466666 
L 198.966167 138.136305 
L 199.223276 134.49669 
L 199.255415 134.519928 
L 199.383969 136.082667 
L 199.641078 139.489904 
L 199.657148 139.43181 
L 199.737494 138.737582 
L 200.05888 134.540261 
L 200.107088 134.874304 
L 200.348128 138.75501 
L 200.444544 139.449238 
L 200.492752 139.266241 
L 200.653445 136.895989 
L 200.846277 134.618688 
L 200.878415 134.668069 
L 200.990901 135.928717 
L 201.24801 139.318526 
L 201.296218 139.202337 
L 201.424772 137.596027 
L 201.665812 134.70583 
L 201.681881 134.737782 
L 201.810436 136.076858 
L 202.067545 139.22267 
L 202.083614 139.213956 
L 202.147891 138.807295 
L 202.469278 134.792972 
L 202.533555 135.039873 
L 202.88708 139.158766 
L 202.967426 138.664964 
L 203.304882 134.86559 
L 203.35309 135.167681 
L 203.513783 137.381077 
L 203.690545 139.115195 
L 203.722684 139.028054 
L 203.770892 138.70563 
L 204.092278 134.90916 
L 204.188694 135.463962 
L 204.494011 139.065815 
L 204.590427 138.586536 
L 204.911813 134.926589 
L 204.976091 135.214156 
L 205.120714 137.122557 
L 205.313546 139.060006 
L 205.345685 138.993197 
L 205.442101 138.176971 
L 205.69921 134.987588 
L 205.747418 135.016635 
L 205.875972 136.222094 
L 206.133081 138.967055 
L 206.14915 138.923484 
L 206.261636 138.040449 
L 206.534814 135.080539 
L 206.566953 135.121205 
L 206.711576 136.564851 
L 206.952616 138.877008 
L 206.968685 138.85958 
L 207.113309 137.439172 
L 207.33828 135.17349 
L 207.386488 135.27225 
L 207.482904 136.097191 
L 207.740013 138.786962 
L 207.788221 138.696916 
L 207.884636 137.927165 
L 208.141745 135.234489 
L 208.189953 135.301298 
L 208.286369 136.047811 
L 208.575617 138.746296 
L 208.607756 138.633012 
L 208.720241 137.601836 
L 208.96128 135.266441 
L 209.025558 135.446534 
L 209.154112 136.756562 
L 209.379083 138.676583 
L 209.395152 138.664964 
L 209.491568 138.025925 
L 209.764746 135.356487 
L 209.812954 135.420391 
L 209.957578 136.715896 
L 210.182548 138.635916 
L 210.230756 138.560394 
L 210.359311 137.343316 
L 210.584281 135.359392 
L 210.61642 135.391344 
L 210.744974 136.437043 
L 210.986014 138.641726 
L 211.002083 138.627202 
L 211.066361 138.389015 
L 211.387747 135.368106 
L 211.484163 135.713768 
L 211.805549 138.621393 
L 211.853757 138.49068 
L 212.01445 136.875656 
L 212.207282 135.408772 
L 212.223351 135.429105 
L 212.271559 135.606293 
L 212.625084 138.569108 
L 212.673292 138.34254 
L 212.898262 135.989716 
L 213.010748 135.420391 
L 213.042886 135.501723 
L 213.123233 136.024573 
L 213.41248 138.542965 
L 213.460688 138.426777 
L 213.621382 136.913417 
L 213.830283 135.484295 
L 213.846352 135.522056 
L 213.958837 136.329569 
L 214.232015 138.484871 
L 214.280223 138.33673 
L 214.473055 136.451567 
L 214.617679 135.539485 
L 214.649818 135.571437 
L 214.810511 136.791419 
L 215.019412 138.432586 
L 215.051551 138.426777 
L 215.147966 137.901022 
L 215.437214 135.562722 
L 215.453283 135.565627 
L 215.517561 135.835766 
L 215.822878 138.406444 
L 215.903224 138.235065 
L 216.24068 135.600484 
L 216.337096 135.975193 
L 216.481719 137.395601 
L 216.642413 138.368682 
L 216.674551 138.328016 
L 216.754898 137.895213 
L 217.060215 135.64115 
L 217.092353 135.719577 
L 217.236977 136.803038 
L 217.445878 138.33673 
L 217.494086 138.284445 
L 217.654779 137.076082 
L 217.87975 135.705054 
L 217.976166 136.161095 
L 218.281483 138.293159 
L 218.313621 138.211827 
L 218.506453 136.666516 
L 218.667146 135.684721 
L 218.715354 135.748625 
L 218.876047 137.000559 
L 219.101018 138.278636 
L 219.261711 137.209699 
L 219.486681 135.722482 
L 219.599166 136.242427 
L 219.888414 138.325111 
L 219.936622 138.214732 
L 220.290147 135.734101 
L 220.370493 135.981002 
L 220.69188 138.229256 
L 220.756157 138.101448 
L 220.981127 136.283093 
L 221.093613 135.7951 
L 221.125751 135.806719 
L 221.254306 136.538708 
L 221.511415 138.185685 
L 221.607831 137.860356 
L 221.913148 135.803814 
L 221.961356 135.902575 
L 222.073841 136.614231 
L 222.33095 138.197304 
L 222.347019 138.150828 
L 222.459504 137.546646 
L 222.700544 135.821243 
L 222.732683 135.84448 
L 222.780891 135.943241 
L 223.118346 138.200208 
L 223.182623 138.07821 
L 223.520079 135.841576 
L 223.568287 135.905479 
L 223.680772 136.535804 
L 223.937881 138.124686 
L 224.002158 137.996878 
L 224.162852 136.855323 
L 224.355683 135.882242 
L 224.564584 137.128367 
L 224.757416 138.034639 
L 224.789555 137.993973 
L 224.869901 137.636693 
L 225.159149 135.95486 
L 225.207357 136.012954 
L 225.464466 137.738358 
L 225.560882 138.017211 
L 225.60909 137.956212 
L 225.753714 137.049939 
L 225.978684 135.963574 
L 226.010823 136.018764 
L 226.380417 138.034639 
L 226.460764 137.802262 
L 226.653595 136.445757 
L 226.78215 136.001335 
L 226.814288 136.036192 
L 226.974982 136.927941 
L 227.199952 137.996878 
L 227.296368 137.630883 
L 227.601685 136.027478 
L 227.649893 136.15819 
L 227.874863 137.529218 
L 228.019487 137.938784 
L 228.035556 137.903927 
L 228.18018 137.128367 
L 228.373012 136.068144 
L 228.405151 136.079763 
L 228.549774 136.622945 
L 228.806883 137.903927 
L 228.88723 137.72093 
L 228.983646 137.19808 
L 229.208616 136.088477 
L 229.224686 136.134952 
L 229.272894 136.184333 
L 229.610349 137.877784 
L 229.674626 137.773215 
L 229.83532 136.904703 
L 229.996013 136.152381 
L 230.06029 136.204666 
L 230.124567 136.410901 
L 230.429884 137.834214 
L 230.478092 137.761596 
L 230.542369 137.532123 
L 230.831617 136.149476 
L 230.863756 136.20757 
L 230.895894 136.265665 
L 231.056587 137.102224 
L 231.249419 137.8255 
L 231.329766 137.622169 
L 231.635083 136.187237 
L 231.69936 136.236618 
L 232.036816 137.81969 
L 232.068954 137.779024 
L 232.085024 137.805166 
L 232.117162 137.680263 
L 232.229647 137.102224 
L 232.470687 136.169809 
L 232.486756 136.190142 
L 232.663519 137.035416 
L 232.87242 137.828404 
L 233.033113 137.171937 
L 233.290222 136.184333 
L 233.418777 136.718801 
L 233.675886 137.802262 
L 233.740163 137.683168 
L 233.868717 137.029606 
L 234.077618 136.198856 
L 234.109757 136.227903 
L 234.206173 136.567756 
L 234.463282 137.781929 
L 234.51149 137.747072 
L 234.623975 137.325888 
L 234.897153 136.236618 
L 234.993569 136.489328 
L 235.154263 137.325888 
L 235.298886 137.77031 
L 235.331025 137.741263 
L 235.427441 137.415934 
L 235.700619 136.224999 
L 235.716689 136.251141 
L 235.748827 136.268569 
L 235.764896 136.306331 
L 236.118421 137.77031 
L 236.214837 137.537932 
L 236.520154 136.216285 
L 236.568362 136.31795 
L 236.712986 136.997654 
L 236.921887 137.779024 
L 236.937956 137.758691 
L 237.002234 137.622169 
L 237.32362 136.233713 
L 237.371828 136.291807 
L 237.725353 137.761596 
L 237.821769 137.558265 
L 238.143155 136.254046 
L 238.191363 136.335378 
L 238.271709 136.634564 
L 238.544888 137.7645 
L 238.625234 137.56117 
L 238.946621 136.285998 
L 239.010898 136.407996 
L 239.155522 137.09351 
L 239.348354 137.700597 
L 239.380492 137.642502 
L 239.4287 137.549551 
L 239.734017 136.332473 
L 239.782225 136.355711 
L 239.89471 136.733325 
L 240.119681 137.662835 
L 240.167889 137.645407 
L 240.296443 137.235841 
L 240.505344 136.344092 
L 240.521413 136.346997 
L 240.60176 136.431234 
L 240.794592 137.24746 
L 240.939216 137.657026 
L 240.971354 137.604741 
L 241.148117 137.006368 
L 241.357018 136.346997 
L 241.373087 136.36733 
L 241.469503 136.605517 
L 241.758751 137.668645 
L 241.77482 137.648312 
L 241.887305 137.340411 
L 242.160483 136.326664 
L 242.176553 136.373139 
L 242.305107 136.744944 
L 242.530078 137.639597 
L 242.578286 137.627979 
L 242.642563 137.549551 
L 242.963949 136.376044 
L 243.060365 136.559041 
L 243.237128 137.291031 
L 243.397821 137.61636 
L 243.462098 137.465314 
L 243.783484 136.387663 
L 243.944177 136.872751 
L 244.201286 137.564075 
L 244.442326 136.753658 
L 244.570881 136.439948 
L 244.603019 136.448662 
L 244.667296 136.547423 
L 245.004752 137.532123 
L 245.101168 137.383982 
L 245.390416 136.477709 
L 245.406485 136.492233 
L 245.583247 136.93375 
L 245.808218 137.508885 
L 245.968911 137.134176 
L 246.177812 136.509661 
L 246.306367 136.654897 
L 246.611683 137.529218 
L 246.627753 137.497266 
L 246.740238 137.25327 
L 247.013416 136.483519 
L 247.093763 136.57066 
L 247.39908 137.491457 
L 247.431219 137.471124 
L 247.62405 137.000559 
L 247.832951 136.532899 
L 247.849021 136.550327 
L 248.218615 137.459505 
L 248.266823 137.410125 
L 248.668556 136.588089 
L 248.732833 136.672326 
L 249.03815 137.413029 
L 249.054219 137.381077 
L 249.102427 137.389791 
L 249.134566 137.320078 
L 249.439883 136.605517 
L 249.713061 137.174842 
L 249.841616 137.381077 
L 249.873754 137.35203 
L 250.002309 137.160319 
L 250.243348 136.634564 
L 250.404042 136.791419 
L 250.645081 137.349125 
L 250.757567 137.285222 
L 250.950398 136.814657 
L 251.062884 136.611326 
L 251.095022 136.634564 
L 251.223577 136.837895 
L 251.528894 137.366554 
L 251.62531 137.200985 
L 251.914557 136.602612 
L 251.930626 136.637469 
L 252.027042 136.817562 
L 252.252013 137.381077 
L 252.284151 137.363649 
L 252.332359 137.35784 
L 252.364498 137.305555 
L 252.718023 136.614231 
L 252.766231 136.649088 
L 253.103686 137.413029 
L 253.184033 137.360744 
L 253.473281 136.593898 
L 253.794667 137.250365 
L 253.907152 137.436267 
L 253.939291 137.378173 
L 253.95536 137.389791 
L 254.003568 137.314269 
L 254.341024 136.588089 
L 254.405301 136.68104 
L 254.726687 137.413029 
L 254.839172 137.264889 
L 255.12842 136.611326 
L 255.192697 136.657802 
L 255.546222 137.383982 
L 255.690846 137.174842 
L 255.947955 136.646183 
L 255.964024 136.666516 
L 256.06044 136.721706 
L 256.333619 137.325888 
L 256.446104 137.299745 
L 256.799629 136.649088 
L 256.815698 136.686849 
L 256.879975 136.742039 
L 257.185292 137.354935 
L 257.345985 137.154509 
L 257.570956 136.631659 
L 257.587025 136.649088 
L 257.71558 136.765277 
L 257.972689 137.386887 
L 258.085174 137.337507 
L 258.390491 136.559041 
L 258.438699 136.579375 
L 258.840432 137.427553 
L 258.904709 137.299745 
L 259.177887 136.559041 
L 259.242164 136.599708 
L 259.418927 137.041225 
L 259.627828 137.430458 
L 259.643897 137.415934 
L 260.013491 136.556137 
L 260.077769 136.605517 
L 260.447363 137.40722 
L 260.463432 137.398506 
L 260.865165 136.608422 
L 260.929442 136.692659 
L 261.21869 137.366554 
L 261.315106 137.343316 
L 261.668631 136.643278 
L 261.732908 136.689754 
L 262.086433 137.369458 
L 262.134641 137.311364 
L 262.488166 136.614231 
L 262.520305 136.651993 
L 262.584582 136.753658 
L 262.905968 137.413029 
L 262.922037 137.383982 
L 263.034523 137.151604 
L 263.291632 136.559041 
L 263.307701 136.585184 
L 263.500533 137.061558 
L 263.661226 137.433362 
L 263.677295 137.418839 
L 263.773711 137.328792 
L 264.095097 136.590993 
L 264.127236 136.605517 
L 264.49683 137.427553 
L 264.545038 137.369458 
L 264.609315 137.259079 
L 264.882494 136.585184 
L 265.091395 136.971512 
L 265.300296 137.430458 
L 265.348504 137.395601 
L 265.509197 137.032511 
L 265.718098 136.585184 
L 265.943068 137.015083 
L 266.1359 137.462409 
L 266.15197 137.424648 
L 266.232316 137.346221 
L 266.553702 136.544518 
L 266.698326 136.808847 
L 266.939366 137.476933 
L 267.035782 137.398506 
L 267.389307 136.524185 
L 267.421445 136.550327 
L 267.807109 137.444981 
L 267.983871 136.997654 
L 268.192772 136.561946 
L 268.224911 136.590993 
L 268.594505 137.474028 
L 268.690921 137.337507 
L 269.012307 136.52709 
L 269.060515 136.602612 
L 269.156931 136.869847 
L 269.43011 137.494361 
L 269.799704 136.495138 
L 269.815773 136.532899 
L 269.847912 136.52128 
L 269.88005 136.599708 
L 270.056813 137.139986 
L 270.201437 137.497266 
L 270.233575 137.442076 
L 270.297853 137.360744 
L 270.410338 137.032511 
L 270.635308 136.538708 
L 270.908486 137.261984 
L 271.037041 137.436267 
L 271.06918 137.389791 
L 271.438774 136.582279 
L 271.486982 136.649088 
L 271.567328 136.837895 
L 271.824437 137.395601 
L 271.952992 137.232937 
L 272.258309 136.628755 
L 272.306517 136.689754 
L 272.579695 137.322983 
L 272.70825 137.325888 
L 272.997497 136.643278 
L 273.013567 136.651993 
L 273.206398 136.820466 
L 273.431369 137.381077 
L 273.575993 137.256174 
L 273.88131 136.617136 
L 273.897379 136.62585 
L 274.058072 136.916322 
L 274.218765 137.30265 
L 274.379458 137.270698 
L 274.57229 136.800133 
L 274.716914 136.622945 
L 274.749053 136.643278 
L 275.118647 137.360744 
L 275.198993 137.305555 
L 275.52038 136.608422 
L 275.536449 136.614231 
L 275.938182 137.378173 
L 276.034598 137.25327 
L 276.291707 136.640374 
L 276.484539 136.893084 
L 276.741648 137.343316 
L 276.757717 137.317173 
L 277.111242 136.660707 
L 277.255866 136.78561 
L 277.496905 137.346221 
L 277.545113 137.398506 
L 277.60939 137.317173 
L 277.689737 137.151604 
L 277.946846 136.602612 
L 277.978985 136.617136 
L 278.171816 137.041225 
L 278.348579 137.392696 
L 278.477133 137.250365 
L 278.79852 136.582279 
L 278.862797 136.678135 
L 279.152045 137.433362 
L 279.601985 136.611326 
L 279.794817 137.081891 
L 279.97158 137.430458 
L 280.035857 137.395601 
L 280.357243 136.550327 
L 280.823253 137.433362 
L 280.871461 137.328792 
L 281.14464 136.567756 
L 281.208917 136.593898 
L 281.321402 136.78561 
L 281.578511 137.444981 
L 281.755274 137.099319 
L 281.980244 136.579375 
L 282.028452 136.596803 
L 282.044521 136.643278 
L 282.430185 137.386887 
L 282.494462 137.25327 
L 282.590878 137.000559 
L 282.815848 136.602612 
L 282.928333 136.771086 
L 283.217581 137.410125 
L 283.23365 137.381077 
L 283.362205 137.186461 
L 283.651453 136.579375 
L 284.037116 137.436267 
L 284.085324 137.375268 
L 284.42278 136.567756 
L 284.535265 136.701373 
L 284.856651 137.436267 
L 285.049483 136.971512 
L 285.226245 136.561946 
L 285.676186 137.436267 
L 285.740463 137.288126 
L 286.029711 136.553232 
L 286.318959 137.270698 
L 286.431444 137.474028 
L 286.463583 137.433362 
L 286.576068 137.203889 
L 286.833177 136.524185 
L 286.913523 136.596803 
L 287.267048 137.453695 
L 287.315256 137.378173 
L 287.652712 136.573565 
L 287.733058 136.67523 
L 287.813405 136.881465 
L 288.054445 137.444981 
L 288.118722 137.386887 
L 288.472247 136.541613 
L 288.665079 136.991845 
L 288.841841 137.436267 
L 288.938257 137.349125 
L 289.275713 136.538708 
L 289.323921 136.573565 
L 289.468544 136.971512 
L 289.677445 137.468219 
L 289.773861 137.346221 
L 290.079178 136.500947 
L 290.159525 136.588089 
L 290.51305 137.474028 
L 290.641604 137.171937 
L 290.930852 136.567756 
L 290.946921 136.602612 
L 291.107614 137.055749 
L 291.284377 137.462409 
L 291.300446 137.444981 
L 291.348654 137.436267 
L 291.364723 137.392696 
L 291.702179 136.553232 
L 291.927149 137.113843 
L 292.13605 137.439172 
L 292.248536 137.224222 
L 292.489575 136.567756 
L 292.553853 136.547423 
L 292.569922 136.590993 
L 292.923447 137.453695 
L 292.955586 137.421743 
L 293.08414 137.139986 
L 293.293041 136.567756 
L 293.469804 136.803038 
L 293.710843 137.450791 
L 293.79119 137.424648 
L 294.128645 136.52709 
L 294.144715 136.538708 
L 294.160784 136.52709 
L 294.208992 136.617136 
L 294.562517 137.453695 
L 294.594656 137.433362 
L 294.932111 136.535804 
L 294.96425 136.515471 
L 295.012458 136.590993 
L 295.317775 137.485647 
L 295.333844 137.476933 
L 295.494537 137.163223 
L 295.783785 136.52128 
L 295.799854 136.564851 
L 296.169448 137.488552 
L 296.201587 137.4566 
L 296.36228 136.954083 
L 296.555112 136.515471 
L 296.587251 136.52709 
L 296.956845 137.468219 
L 296.988983 137.436267 
L 297.390716 136.52128 
L 297.454993 136.651993 
L 297.519271 136.820466 
L 297.712102 137.372363 
L 297.77638 137.453695 
L 297.840657 137.360744 
L 297.985281 136.945369 
L 298.178113 136.553232 
L 298.24239 136.605517 
L 298.419152 137.169033 
L 298.579845 137.474028 
L 298.740539 137.108034 
L 298.93337 136.57066 
L 298.94944 136.585184 
L 298.981578 136.550327 
L 299.029786 136.620041 
L 299.158341 136.977321 
L 299.383311 137.453695 
L 299.527935 137.157414 
L 299.768975 136.550327 
L 299.785044 136.532899 
L 299.849321 136.596803 
L 300.170708 137.488552 
L 300.218915 137.439172 
L 300.604579 136.561946 
L 300.652787 136.640374 
L 301.006312 137.442076 
L 301.086658 137.320078 
L 301.391975 136.541613 
L 301.424114 136.585184 
L 301.536599 136.811752 
L 301.793708 137.444981 
L 301.809778 137.436267 
L 301.970471 137.108034 
L 302.179372 136.535804 
L 302.195441 136.541613 
L 302.275788 136.620041 
L 302.581105 137.439172 
L 302.597174 137.413029 
L 302.645382 137.427553 
L 302.677521 137.35784 
L 302.822144 136.910513 
L 302.998907 136.532899 
L 303.014976 136.547423 
L 303.047115 136.556137 
L 303.079253 136.611326 
L 303.416709 137.479838 
L 303.513125 137.331697 
L 303.786303 136.532899 
L 303.818442 136.541613 
L 304.220175 137.418839 
L 304.316591 137.346221 
L 304.621908 136.532899 
L 304.670116 136.559041 
L 305.03971 137.418839 
L 305.103987 137.308459 
L 305.152195 137.221318 
L 305.393235 136.599708 
L 305.473581 136.608422 
L 305.827106 137.40722 
L 305.955661 137.224222 
L 306.228839 136.622945 
L 306.293116 136.654897 
L 306.309186 136.689754 
L 306.646641 137.378173 
L 306.67878 137.404315 
L 306.90375 136.826276 
L 307.048374 136.602612 
L 307.128721 136.663611 
L 307.482245 137.427553 
L 307.883978 136.57066 
L 307.900048 136.608422 
L 307.996464 136.791419 
L 308.237503 137.375268 
L 308.478543 137.017987 
L 308.671375 136.646183 
L 308.78386 136.753658 
L 309.121316 137.346221 
L 309.49091 136.651993 
L 309.603395 136.747848 
L 309.908712 137.311364 
L 310.005128 137.227127 
L 310.342583 136.683944 
L 310.776455 137.288126 
L 310.808594 137.203889 
L 311.065703 136.721706 
L 311.178188 136.707182 
L 311.210326 136.753658 
L 311.322812 136.951179 
L 311.515643 137.305555 
L 311.644198 137.250365 
L 311.869168 136.721706 
L 311.885238 136.733325 
L 311.949515 136.672326 
L 311.997723 136.724611 
L 312.062 136.788514 
L 312.206624 137.134176 
L 312.383386 137.314269 
L 312.76905 136.73042 
L 312.785119 136.742039 
L 312.913674 136.922132 
L 313.218991 137.256174 
L 313.23506 137.235841 
L 313.411822 136.910513 
L 313.540377 136.695563 
L 313.572516 136.710087 
L 313.974248 137.29684 
L 314.070664 137.195175 
L 314.295635 136.773991 
L 314.40812 136.736229 
L 314.424189 136.756562 
L 314.809853 137.331697 
L 314.858061 137.25327 
L 315.195516 136.686849 
L 315.291932 136.794324 
L 315.58118 137.305555 
L 315.677596 137.235841 
L 315.998982 136.718801 
L 316.079329 136.788514 
L 316.320368 137.256174 
L 316.464992 137.221318 
L 316.802448 136.689754 
L 316.947072 136.88437 
L 317.188111 137.322983 
L 317.204181 137.308459 
L 317.493428 136.782705 
L 317.589844 136.663611 
L 317.621983 136.695563 
L 317.830884 137.081891 
L 318.055854 137.311364 
L 318.280825 136.864037 
L 318.425448 136.68104 
L 318.778973 137.299745 
L 319.116429 136.852418 
L 319.277122 136.695563 
L 319.662786 137.291031 
L 319.919895 136.858228 
L 320.064518 136.698468 
L 320.466251 137.293936 
L 320.691222 136.968607 
L 320.867984 136.692659 
L 321.125093 137.131271 
L 321.269717 137.346221 
L 321.285786 137.334602 
L 321.301856 137.346221 
L 321.333994 137.267793 
L 321.703589 136.640374 
L 321.767866 136.747848 
L 322.008905 137.328792 
L 322.523124 136.692659 
L 322.571331 136.750753 
L 322.908787 137.308459 
L 323.262312 136.692659 
L 323.358728 136.756562 
L 323.55156 137.166128 
L 323.696183 137.320078 
L 323.728322 137.285222 
L 323.77653 137.256174 
L 323.792599 137.232937 
L 324.065778 136.718801 
L 324.306817 137.006368 
L 324.515718 137.273603 
L 324.804966 136.826276 
L 324.933521 136.739134 
L 325.046006 136.846609 
L 325.303115 137.305555 
L 325.447739 137.139986 
L 325.688778 136.678135 
L 326.12265 137.276507 
L 326.524383 136.715896 
L 326.540452 136.736229 
L 326.652937 136.88437 
L 326.893977 137.285222 
L 327.006462 137.227127 
L 327.29571 136.657802 
L 327.359987 136.698468 
L 327.504611 136.959893 
L 327.713512 137.360744 
L 327.76172 137.317173 
L 328.131314 136.657802 
L 328.195591 136.721706 
L 328.549116 137.343316 
L 328.597324 137.299745 
L 328.854433 136.689754 
L 328.950849 136.614231 
L 328.982988 136.643278 
L 329.143681 137.009273 
L 329.352582 137.413029 
L 329.368651 137.40141 
L 329.786454 136.614231 
L 329.850731 136.733325 
L 330.172117 137.415934 
L 330.204256 137.381077 
L 330.589919 136.605517 
L 331.007721 137.424648 
L 331.104137 137.270698 
L 331.409454 136.57066 
L 331.489801 136.628755 
L 331.827256 137.447886 
L 332.036158 136.910513 
L 332.245059 136.57647 
L 332.630722 137.433362 
L 332.694999 137.328792 
L 332.791415 137.064463 
L 333.016386 136.567756 
L 333.177079 136.893084 
L 333.418119 137.471124 
L 333.466326 137.436267 
L 333.819851 136.559041 
L 333.835921 136.57647 
L 333.964475 136.817562 
L 334.221584 137.491457 
L 334.269792 137.424648 
L 334.318 137.346221 
L 334.607248 136.52128 
L 334.687594 136.617136 
L 335.008981 137.471124 
L 335.105397 137.381077 
L 335.185743 137.186461 
L 335.442852 136.553232 
L 335.876724 137.410125 
L 335.924932 137.334602 
L 336.262387 136.614231 
L 336.278456 136.640374 
L 336.326664 136.649088 
L 336.342734 136.698468 
L 336.680189 137.381077 
L 336.728397 137.314269 
L 336.840882 137.116748 
L 337.049784 136.657802 
L 337.146199 136.678135 
L 337.403308 137.279412 
L 337.59614 137.227127 
L 337.869319 136.678135 
L 338.030012 136.826276 
L 338.30319 137.325888 
L 338.463883 137.078986 
L 338.720992 136.689754 
L 338.737062 136.710087 
L 338.897755 136.93375 
L 339.074517 137.322983 
L 339.283418 137.090605 
L 339.492319 136.683944 
L 339.556597 136.692659 
L 339.588735 136.733325 
L 339.653012 136.837895 
L 339.877983 137.273603 
L 339.958329 137.305555 
L 339.974399 137.261984 
L 340.376132 136.736229 
L 340.440409 136.826276 
L 340.745726 137.29684 
L 340.777864 137.267793 
L 340.842142 137.19808 
L 341.067112 136.771086 
L 341.211736 136.771086 
L 341.468845 137.241651 
L 341.677746 137.145795 
L 341.983063 136.704278 
L 342.015202 136.750753 
L 342.079479 136.872751 
L 342.416934 137.25327 
L 342.674043 136.7798 
L 342.770459 136.712992 
L 342.818667 136.756562 
L 343.107915 137.317173 
L 343.284677 137.110938 
L 343.557856 136.701373 
L 343.622133 136.765277 
L 343.975658 137.270698 
L 343.991727 137.259079 
L 344.264906 136.814657 
L 344.345252 136.698468 
L 344.409529 136.736229 
L 344.586292 137.017987 
L 344.763054 137.314269 
L 344.779124 137.308459 
L 345.196926 136.683944 
L 345.277272 136.820466 
L 345.582589 137.305555 
L 345.936114 136.727515 
L 345.952184 136.736229 
L 346.27357 137.166128 
L 346.418194 137.305555 
L 346.434263 137.285222 
L 346.51461 137.186461 
L 346.755649 136.695563 
L 347.173451 137.305555 
L 347.655531 136.73042 
L 347.703739 136.791419 
L 347.880501 137.145795 
L 347.992986 137.29684 
L 348.025125 137.276507 
L 348.105472 137.218413 
L 348.37865 136.756562 
L 348.491135 136.733325 
L 348.780383 137.256174 
L 348.989284 137.099319 
L 349.005353 137.110938 
L 349.021423 137.052844 
L 349.214254 136.721706 
L 349.423155 136.954083 
L 349.632057 137.299745 
L 349.664195 137.276507 
L 350.065928 136.715896 
L 350.146275 136.803038 
L 350.387314 137.200985 
L 350.515869 137.215508 
L 350.756908 136.843704 
L 350.94974 136.849514 
L 351.174711 137.227127 
L 351.206849 137.206794 
L 351.335404 137.186461 
L 351.608582 136.765277 
L 351.785345 136.895989 
L 351.801414 136.88437 
L 351.833553 136.974416 
L 352.074592 137.267793 
L 352.106731 137.241651 
L 352.508464 136.73042 
L 352.556672 136.83499 
L 352.637018 136.916322 
L 352.894127 137.241651 
L 353.05482 137.064463 
L 353.247652 136.773991 
L 353.810078 137.1487 
L 354.067187 136.747848 
L 354.388573 137.163223 
L 354.661752 137.102224 
L 354.950999 136.756562 
L 355.368802 137.238746 
L 355.40094 137.180652 
L 355.834812 136.843704 
L 355.86695 136.898894 
L 356.204406 137.200985 
L 356.493654 136.791419 
L 356.622208 136.803038 
L 356.975733 137.264889 
L 357.136426 137.03832 
L 357.345327 136.701373 
L 357.361397 136.739134 
L 357.457812 136.817562 
L 357.698852 137.227127 
L 357.843476 137.206794 
L 358.164862 136.742039 
L 358.180932 136.768181 
L 358.277348 136.820466 
L 358.534457 137.227127 
L 358.743358 137.096415 
L 359.032605 136.753658 
L 359.048675 136.771086 
L 359.450407 137.264889 
L 359.498615 137.200985 
L 359.884279 136.782705 
L 359.916418 136.846609 
L 360.269942 137.25327 
L 360.607398 136.73042 
L 360.623467 136.747848 
L 360.719883 136.808847 
L 361.0252 137.261984 
L 361.443002 136.736229 
L 361.651903 137.000559 
L 361.860805 137.285222 
L 362.246468 136.733325 
L 362.728548 137.235841 
L 362.760686 137.183556 
L 363.001726 136.765277 
L 363.14635 136.788514 
L 363.483805 137.244555 
L 363.8534 136.750753 
L 363.965885 136.782705 
L 364.222994 137.224222 
L 364.239063 137.203889 
L 364.415826 137.137081 
L 364.689004 136.797229 
L 364.76935 136.849514 
L 364.994321 137.174842 
L 365.106806 137.212604 
L 365.187153 137.186461 
L 365.203222 137.154509 
L 365.604955 136.794324 
L 365.653163 136.88437 
L 365.95848 137.227127 
L 365.990618 137.19808 
L 366.392351 136.756562 
L 366.42449 136.800133 
L 366.729807 137.273603 
L 366.938708 137.035416 
L 367.11547 136.742039 
L 367.485065 137.215508 
L 367.58148 137.259079 
L 367.613619 137.235841 
L 367.726104 137.052844 
L 367.999283 136.750753 
L 368.208184 137.076082 
L 368.417085 137.241651 
L 368.545639 137.087701 
L 368.722402 136.797229 
L 368.947372 136.962798 
L 369.140204 137.230032 
L 369.156273 137.221318 
L 369.23662 137.212604 
L 369.252689 137.180652 
L 369.574075 136.739134 
L 370.007947 137.250365 
L 370.152571 137.084796 
L 370.39361 136.776896 
L 370.490026 136.846609 
L 370.763205 137.285222 
L 371.164937 136.73042 
L 371.197076 136.753658 
L 371.58274 137.250365 
L 371.598809 137.203889 
L 371.711294 137.099319 
L 372.03268 136.791419 
L 372.418344 137.230032 
L 372.884354 136.814657 
L 372.900423 136.832085 
L 373.270018 137.235841 
L 373.655681 136.742039 
L 373.91279 137.174842 
L 374.057414 137.244555 
L 374.539493 136.811752 
L 374.555563 136.840799 
L 374.828741 137.244555 
L 374.86088 137.227127 
L 374.941226 137.174842 
L 375.134058 136.881465 
L 375.32689 136.788514 
L 375.471514 137.023797 
L 375.696484 137.203889 
L 376.146425 136.791419 
L 376.210702 136.881465 
L 376.48388 137.19227 
L 376.676712 137.03832 
L 376.869544 136.800133 
L 376.949891 136.814657 
L 376.96596 136.866942 
L 377.255208 137.24746 
L 377.608732 136.768181 
L 377.624802 136.78561 
L 377.769426 136.846609 
L 378.026535 137.230032 
L 378.187228 137.122557 
L 378.492545 136.750753 
L 378.508614 136.776896 
L 378.926416 137.209699 
L 378.942486 137.186461 
L 379.29601 136.768181 
L 379.31208 136.791419 
L 379.392426 136.846609 
L 379.762021 137.177747 
L 379.794159 137.131271 
L 380.01913 136.837895 
L 380.308377 137.017987 
L 380.436932 137.218413 
L 380.453001 137.189366 
L 380.95115 136.869847 
L 381.111843 137.047034 
L 381.17612 137.070272 
L 381.192189 137.096415 
L 381.352883 137.171937 
L 381.385021 137.131271 
L 381.690338 136.849514 
L 381.706408 136.861132 
L 381.786754 136.904703 
L 382.011725 137.131271 
L 382.461665 136.832085 
L 382.477735 136.855323 
L 382.879467 137.134176 
L 382.895537 137.108034 
L 383.29727 136.817562 
L 383.313339 136.837895 
L 383.586517 137.139986 
L 383.699002 137.206794 
L 383.731141 137.163223 
L 383.811488 137.076082 
L 384.084666 136.797229 
L 384.100735 136.826276 
L 384.277498 136.980226 
L 384.438191 137.171937 
L 384.647092 137.076082 
L 384.807785 136.826276 
L 385.032756 136.881465 
L 385.273795 137.261984 
L 385.691597 136.712992 
L 386.012984 137.232937 
L 386.125469 137.250365 
L 386.141538 137.212604 
L 386.366509 136.852418 
L 386.57541 136.820466 
L 386.784311 137.174842 
L 386.80038 137.157414 
L 387.009281 137.137081 
L 387.234252 136.840799 
L 387.411014 136.88437 
L 387.700262 137.206794 
L 387.716331 137.189366 
L 387.877024 137.087701 
L 388.085925 136.803038 
L 388.101995 136.817562 
L 388.19841 136.794324 
L 388.21448 136.83499 
L 388.455519 137.145795 
L 388.568005 137.235841 
L 388.584074 137.209699 
L 388.90546 136.788514 
L 388.92153 136.805943 
L 389.066153 136.881465 
L 389.403609 137.215508 
L 389.451817 137.137081 
L 389.596441 136.910513 
L 389.741065 136.803038 
L 389.757134 136.82918 
L 389.901758 136.910513 
L 390.062451 137.134176 
L 390.287421 137.099319 
L 390.496322 136.861132 
L 390.673085 136.843704 
L 391.02661 137.200985 
L 391.058748 137.160319 
L 391.25158 136.88437 
L 391.428343 136.788514 
L 391.71759 137.157414 
L 391.749729 137.195175 
L 391.846145 137.171937 
L 391.910422 137.145795 
L 391.926491 137.108034 
L 392.328224 136.872751 
L 392.344294 136.898894 
L 392.569264 137.189366 
L 392.729957 137.151604 
L 392.842442 136.997654 
L 393.051343 136.794324 
L 393.404868 137.160319 
L 393.549492 137.157414 
L 393.694116 136.99475 
L 393.854809 136.78561 
L 394.06371 136.959893 
L 394.320819 137.206794 
L 394.77076 136.837895 
L 394.786829 136.855323 
L 395.252839 137.145795 
L 395.526018 136.808847 
L 396.088444 137.116748 
L 396.345553 136.811752 
L 396.795494 137.183556 
L 396.811563 137.160319 
L 396.924048 137.058653 
L 397.165088 136.820466 
L 397.293642 136.878561 
L 397.438266 137.076082 
L 397.550751 137.128367 
L 397.679306 137.125462 
L 397.695375 137.09351 
L 397.904276 136.898894 
L 398.161385 136.959893 
L 398.498841 137.119652 
L 398.788088 136.89018 
L 399.077336 136.997654 
L 399.398722 137.099319 
L 399.591554 136.945369 
L 399.752247 136.826276 
L 400.057564 137.122557 
L 400.266465 137.105129 
L 400.443228 136.864037 
L 400.459297 136.88437 
L 401.134208 137.023797 
L 401.455595 136.826276 
L 401.857327 137.166128 
L 402.018021 137.000559 
L 402.226922 136.811752 
L 402.355476 136.904703 
L 402.548308 137.19227 
L 402.692932 137.169033 
L 402.773278 137.061558 
L 402.982179 136.83499 
L 403.608883 137.052844 
L 403.882061 136.837895 
L 403.978477 136.913417 
L 404.155239 137.174842 
L 404.556972 136.872751 
L 404.814081 136.997654 
L 404.958705 137.081891 
L 405.055121 137.125462 
L 405.08726 137.09351 
L 405.183676 137.04413 
L 405.344369 136.893084 
L 405.472923 136.869847 
L 405.890725 137.102224 
L 406.228181 136.89018 
L 406.469221 137.020892 
L 406.565637 137.049939 
L 406.678122 137.102224 
L 406.694191 137.084796 
L 407.240548 136.971512 
L 407.41731 137.116748 
L 407.578003 137.052844 
L 407.626211 137.052844 
L 407.65835 137.017987 
L 407.851182 136.878561 
L 408.188637 137.099319 
L 408.317192 137.1487 
L 408.477885 136.991845 
L 408.702855 136.846609 
L 408.83141 136.922132 
L 409.008172 137.102224 
L 409.217073 137.113843 
L 409.393836 136.89018 
L 409.9884 137.102224 
L 410.133024 136.991845 
L 410.245509 136.927941 
L 410.406203 136.942465 
L 410.615104 137.061558 
L 411.257876 136.942465 
L 411.756025 137.012178 
L 411.997065 136.878561 
L 412.10955 136.93956 
L 412.33452 137.122557 
L 412.993362 136.98894 
L 413.346887 137.070272 
L 413.732551 136.904703 
L 413.74862 136.954083 
L 414.021798 137.137081 
L 414.21463 136.997654 
L 414.471739 136.840799 
L 414.519947 136.907608 
L 414.616363 136.974416 
L 414.841333 137.180652 
L 415.050234 137.000559 
L 415.243066 136.83499 
L 415.355551 136.88437 
L 415.676938 137.195175 
L 415.789423 137.087701 
L 416.046532 136.782705 
L 416.062601 136.814657 
L 416.271502 137.029606 
L 416.464334 137.24746 
L 416.769651 136.794324 
L 416.946413 136.782705 
L 417.074968 137.012178 
L 417.074968 137.012178 
" clip-path="url(#p6eb910826b)" style="fill: none; stroke: #008000; stroke-width: 1.5; stroke-linecap: square"/>
   </g>
   <g id="patch_3">
    <path d="M 68.070313 242.918125 
L 68.070313 22.318125 
" style="fill: none; stroke: #000000; stroke-width: 0.8; stroke-linejoin: miter; stroke-linecap: square"/>
   </g>
   <g id="patch_4">
    <path d="M 417.070312 242.918125 
L 417.070312 22.318125 
" style="fill: none; stroke: #000000; stroke-width: 0.8; stroke-linejoin: miter; stroke-linecap: square"/>
   </g>
   <g id="patch_5">
    <path d="M 68.070312 242.918125 
L 417.070312 242.918125 
" style="fill: none; stroke: #000000; stroke-width: 0.8; stroke-linejoin: miter; stroke-linecap: square"/>
   </g>
   <g id="patch_6">
    <path d="M 68.070312 22.318125 
L 417.070312 22.318125 
" style="fill: none; stroke: #000000; stroke-width: 0.8; stroke-linejoin: miter; stroke-linecap: square"/>
   </g>
   <g id="text_19">
    <!-- Time Domain -->
    <g transform="translate(202.70125 16.318125) scale(0.12 -0.12)">
     <defs>
      <path id="DejaVuSans-44" d="M 1259 4147 
L 1259 519 
L 2022 519 
Q 2988 519 3436 956 
Q 3884 1394 3884 2338 
Q 3884 3275 3436 3711 
Q 2988 4147 2022 4147 
L 1259 4147 
z
M 628 4666 
L 1925 4666 
Q 3281 4666 3915 4102 
Q 4550 3538 4550 2338 
Q 4550 1131 3912 565 
Q 3275 0 1925 0 
L 628 0 
L 628 4666 
z
" transform="scale(0.015625)"/>
      <path id="DejaVuSans-6f" d="M 1959 3097 
Q 1497 3097 1228 2736 
Q 959 2375 959 1747 
Q 959 1119 1226 758 
Q 1494 397 1959 397 
Q 2419 397 2687 759 
Q 2956 1122 2956 1747 
Q 2956 2369 2687 2733 
Q 2419 3097 1959 3097 
z
M 1959 3584 
Q 2709 3584 3137 3096 
Q 3566 2609 3566 1747 
Q 3566 888 3137 398 
Q 2709 -91 1959 -91 
Q 1206 -91 779 398 
Q 353 888 353 1747 
Q 353 2609 779 3096 
Q 1206 3584 1959 3584 
z
" transform="scale(0.015625)"/>
     </defs>
     <use xlink:href="#DejaVuSans-54"/>
     <use xlink:href="#DejaVuSans-69" x="57.958984"/>
     <use xlink:href="#DejaVuSans-6d" x="85.742188"/>
     <use xlink:href="#DejaVuSans-65" x="183.154297"/>
     <use xlink:href="#DejaVuSans-20" x="244.677734"/>
     <use xlink:href="#DejaVuSans-44" x="276.464844"/>
     <use xlink:href="#DejaVuSans-6f" x="353.466797"/>
     <use xlink:href="#DejaVuSans-6d" x="414.648438"/>
     <use xlink:href="#DejaVuSans-61" x="512.060547"/>
     <use xlink:href="#DejaVuSans-69" x="573.339844"/>
     <use xlink:href="#DejaVuSans-6e" x="601.123047"/>
    </g>
   </g>
  </g>
 </g>
 <defs>
  <clipPath id="p6eb910826b">
   <rect x="68.070313" y="22.318125" width="349" height="220.6"/>
  </clipPath>
 </defs>
</svg>
