<?xml version="1.0" encoding="utf-8" standalone="no"?>
<!DOCTYPE svg PUBLIC "-//W3C//DTD SVG 1.1//EN"
  "http://www.w3.org/Graphics/SVG/1.1/DTD/svg11.dtd">
<svg xmlns:xlink="http://www.w3.org/1999/xlink" width="424.325938pt" height="280.474375pt" viewBox="0 0 424.325938 280.474375" xmlns="http://www.w3.org/2000/svg" version="1.1">
 <metadata>
  <rdf:RDF xmlns:dc="http://purl.org/dc/elements/1.1/" xmlns:cc="http://creativecommons.org/ns#" xmlns:rdf="http://www.w3.org/1999/02/22-rdf-syntax-ns#">
   <cc:Work>
    <dc:type rdf:resource="http://purl.org/dc/dcmitype/StillImage"/>
    <dc:date>2025-04-24T18:26:56.429499</dc:date>
    <dc:format>image/svg+xml</dc:format>
    <dc:creator>
     <cc:Agent>
      <dc:title>Matplotlib v3.9.2, https://matplotlib.org/</dc:title>
     </cc:Agent>
    </dc:creator>
   </cc:Work>
  </rdf:RDF>
 </metadata>
 <defs>
  <style type="text/css">*{stroke-linejoin: round; stroke-linecap: butt}</style>
 </defs>
 <g id="figure_1">
  <g id="patch_1">
   <path d="M 0 280.474375 
L 424.325938 280.474375 
L 424.325938 0 
L 0 0 
z
" style="fill: #ffffff"/>
  </g>
  <g id="axes_1">
   <g id="patch_2">
    <path d="M 64.885937 242.918125 
L 417.125937 242.918125 
L 417.125937 22.318125 
L 64.885937 22.318125 
z
" style="fill: #ffffff"/>
   </g>
   <g id="matplotlib.axis_1">
    <g id="xtick_1">
     <g id="line2d_1">
      <path d="M 109.765001 242.918125 
L 109.765001 22.318125 
" clip-path="url(#pa890f3b50c)" style="fill: none; stroke: #b0b0b0; stroke-width: 0.8; stroke-linecap: square"/>
     </g>
     <g id="line2d_2">
      <defs>
       <path id="md9cb52f441" d="M 0 0 
L 0 3.5 
" style="stroke: #000000; stroke-width: 0.8"/>
      </defs>
      <g>
       <use xlink:href="#md9cb52f441" x="109.765001" y="242.918125" style="stroke: #000000; stroke-width: 0.8"/>
      </g>
     </g>
     <g id="text_1">
      <!-- 1 -->
      <g transform="translate(106.583751 257.516563) scale(0.1 -0.1)">
       <defs>
        <path id="DejaVuSans-31" d="M 794 531 
L 1825 531 
L 1825 4091 
L 703 3866 
L 703 4441 
L 1819 4666 
L 2450 4666 
L 2450 531 
L 3481 531 
L 3481 0 
L 794 0 
L 794 531 
z
" transform="scale(0.015625)"/>
       </defs>
       <use xlink:href="#DejaVuSans-31"/>
      </g>
     </g>
    </g>
    <g id="xtick_2">
     <g id="line2d_3">
      <path d="M 166.167067 242.918125 
L 166.167067 22.318125 
" clip-path="url(#pa890f3b50c)" style="fill: none; stroke: #b0b0b0; stroke-width: 0.8; stroke-linecap: square"/>
     </g>
     <g id="line2d_4">
      <g>
       <use xlink:href="#md9cb52f441" x="166.167067" y="242.918125" style="stroke: #000000; stroke-width: 0.8"/>
      </g>
     </g>
     <g id="text_2">
      <!-- 2 -->
      <g transform="translate(162.985817 257.516563) scale(0.1 -0.1)">
       <defs>
        <path id="DejaVuSans-32" d="M 1228 531 
L 3431 531 
L 3431 0 
L 469 0 
L 469 531 
Q 828 903 1448 1529 
Q 2069 2156 2228 2338 
Q 2531 2678 2651 2914 
Q 2772 3150 2772 3378 
Q 2772 3750 2511 3984 
Q 2250 4219 1831 4219 
Q 1534 4219 1204 4116 
Q 875 4013 500 3803 
L 500 4441 
Q 881 4594 1212 4672 
Q 1544 4750 1819 4750 
Q 2544 4750 2975 4387 
Q 3406 4025 3406 3419 
Q 3406 3131 3298 2873 
Q 3191 2616 2906 2266 
Q 2828 2175 2409 1742 
Q 1991 1309 1228 531 
z
" transform="scale(0.015625)"/>
       </defs>
       <use xlink:href="#DejaVuSans-32"/>
      </g>
     </g>
    </g>
    <g id="xtick_3">
     <g id="line2d_5">
      <path d="M 222.569133 242.918125 
L 222.569133 22.318125 
" clip-path="url(#pa890f3b50c)" style="fill: none; stroke: #b0b0b0; stroke-width: 0.8; stroke-linecap: square"/>
     </g>
     <g id="line2d_6">
      <g>
       <use xlink:href="#md9cb52f441" x="222.569133" y="242.918125" style="stroke: #000000; stroke-width: 0.8"/>
      </g>
     </g>
     <g id="text_3">
      <!-- 3 -->
      <g transform="translate(219.387883 257.516563) scale(0.1 -0.1)">
       <defs>
        <path id="DejaVuSans-33" d="M 2597 2516 
Q 3050 2419 3304 2112 
Q 3559 1806 3559 1356 
Q 3559 666 3084 287 
Q 2609 -91 1734 -91 
Q 1441 -91 1130 -33 
Q 819 25 488 141 
L 488 750 
Q 750 597 1062 519 
Q 1375 441 1716 441 
Q 2309 441 2620 675 
Q 2931 909 2931 1356 
Q 2931 1769 2642 2001 
Q 2353 2234 1838 2234 
L 1294 2234 
L 1294 2753 
L 1863 2753 
Q 2328 2753 2575 2939 
Q 2822 3125 2822 3475 
Q 2822 3834 2567 4026 
Q 2313 4219 1838 4219 
Q 1578 4219 1281 4162 
Q 984 4106 628 3988 
L 628 4550 
Q 988 4650 1302 4700 
Q 1616 4750 1894 4750 
Q 2613 4750 3031 4423 
Q 3450 4097 3450 3541 
Q 3450 3153 3228 2886 
Q 3006 2619 2597 2516 
z
" transform="scale(0.015625)"/>
       </defs>
       <use xlink:href="#DejaVuSans-33"/>
      </g>
     </g>
    </g>
    <g id="xtick_4">
     <g id="line2d_7">
      <path d="M 278.971199 242.918125 
L 278.971199 22.318125 
" clip-path="url(#pa890f3b50c)" style="fill: none; stroke: #b0b0b0; stroke-width: 0.8; stroke-linecap: square"/>
     </g>
     <g id="line2d_8">
      <g>
       <use xlink:href="#md9cb52f441" x="278.971199" y="242.918125" style="stroke: #000000; stroke-width: 0.8"/>
      </g>
     </g>
     <g id="text_4">
      <!-- 4 -->
      <g transform="translate(275.789949 257.516563) scale(0.1 -0.1)">
       <defs>
        <path id="DejaVuSans-34" d="M 2419 4116 
L 825 1625 
L 2419 1625 
L 2419 4116 
z
M 2253 4666 
L 3047 4666 
L 3047 1625 
L 3713 1625 
L 3713 1100 
L 3047 1100 
L 3047 0 
L 2419 0 
L 2419 1100 
L 313 1100 
L 313 1709 
L 2253 4666 
z
" transform="scale(0.015625)"/>
       </defs>
       <use xlink:href="#DejaVuSans-34"/>
      </g>
     </g>
    </g>
    <g id="xtick_5">
     <g id="line2d_9">
      <path d="M 335.373265 242.918125 
L 335.373265 22.318125 
" clip-path="url(#pa890f3b50c)" style="fill: none; stroke: #b0b0b0; stroke-width: 0.8; stroke-linecap: square"/>
     </g>
     <g id="line2d_10">
      <g>
       <use xlink:href="#md9cb52f441" x="335.373265" y="242.918125" style="stroke: #000000; stroke-width: 0.8"/>
      </g>
     </g>
     <g id="text_5">
      <!-- 5 -->
      <g transform="translate(332.192015 257.516563) scale(0.1 -0.1)">
       <defs>
        <path id="DejaVuSans-35" d="M 691 4666 
L 3169 4666 
L 3169 4134 
L 1269 4134 
L 1269 2991 
Q 1406 3038 1543 3061 
Q 1681 3084 1819 3084 
Q 2600 3084 3056 2656 
Q 3513 2228 3513 1497 
Q 3513 744 3044 326 
Q 2575 -91 1722 -91 
Q 1428 -91 1123 -41 
Q 819 9 494 109 
L 494 744 
Q 775 591 1075 516 
Q 1375 441 1709 441 
Q 2250 441 2565 725 
Q 2881 1009 2881 1497 
Q 2881 1984 2565 2268 
Q 2250 2553 1709 2553 
Q 1456 2553 1204 2497 
Q 953 2441 691 2322 
L 691 4666 
z
" transform="scale(0.015625)"/>
       </defs>
       <use xlink:href="#DejaVuSans-35"/>
      </g>
     </g>
    </g>
    <g id="xtick_6">
     <g id="line2d_11">
      <path d="M 391.775331 242.918125 
L 391.775331 22.318125 
" clip-path="url(#pa890f3b50c)" style="fill: none; stroke: #b0b0b0; stroke-width: 0.8; stroke-linecap: square"/>
     </g>
     <g id="line2d_12">
      <g>
       <use xlink:href="#md9cb52f441" x="391.775331" y="242.918125" style="stroke: #000000; stroke-width: 0.8"/>
      </g>
     </g>
     <g id="text_6">
      <!-- 6 -->
      <g transform="translate(388.594081 257.516563) scale(0.1 -0.1)">
       <defs>
        <path id="DejaVuSans-36" d="M 2113 2584 
Q 1688 2584 1439 2293 
Q 1191 2003 1191 1497 
Q 1191 994 1439 701 
Q 1688 409 2113 409 
Q 2538 409 2786 701 
Q 3034 994 3034 1497 
Q 3034 2003 2786 2293 
Q 2538 2584 2113 2584 
z
M 3366 4563 
L 3366 3988 
Q 3128 4100 2886 4159 
Q 2644 4219 2406 4219 
Q 1781 4219 1451 3797 
Q 1122 3375 1075 2522 
Q 1259 2794 1537 2939 
Q 1816 3084 2150 3084 
Q 2853 3084 3261 2657 
Q 3669 2231 3669 1497 
Q 3669 778 3244 343 
Q 2819 -91 2113 -91 
Q 1303 -91 875 529 
Q 447 1150 447 2328 
Q 447 3434 972 4092 
Q 1497 4750 2381 4750 
Q 2619 4750 2861 4703 
Q 3103 4656 3366 4563 
z
" transform="scale(0.015625)"/>
       </defs>
       <use xlink:href="#DejaVuSans-36"/>
      </g>
     </g>
    </g>
    <g id="text_7">
     <!-- Time [s] -->
     <g transform="translate(220.677031 271.194687) scale(0.1 -0.1)">
      <defs>
       <path id="DejaVuSans-54" d="M -19 4666 
L 3928 4666 
L 3928 4134 
L 2272 4134 
L 2272 0 
L 1638 0 
L 1638 4134 
L -19 4134 
L -19 4666 
z
" transform="scale(0.015625)"/>
       <path id="DejaVuSans-69" d="M 603 3500 
L 1178 3500 
L 1178 0 
L 603 0 
L 603 3500 
z
M 603 4863 
L 1178 4863 
L 1178 4134 
L 603 4134 
L 603 4863 
z
" transform="scale(0.015625)"/>
       <path id="DejaVuSans-6d" d="M 3328 2828 
Q 3544 3216 3844 3400 
Q 4144 3584 4550 3584 
Q 5097 3584 5394 3201 
Q 5691 2819 5691 2113 
L 5691 0 
L 5113 0 
L 5113 2094 
Q 5113 2597 4934 2840 
Q 4756 3084 4391 3084 
Q 3944 3084 3684 2787 
Q 3425 2491 3425 1978 
L 3425 0 
L 2847 0 
L 2847 2094 
Q 2847 2600 2669 2842 
Q 2491 3084 2119 3084 
Q 1678 3084 1418 2786 
Q 1159 2488 1159 1978 
L 1159 0 
L 581 0 
L 581 3500 
L 1159 3500 
L 1159 2956 
Q 1356 3278 1631 3431 
Q 1906 3584 2284 3584 
Q 2666 3584 2933 3390 
Q 3200 3197 3328 2828 
z
" transform="scale(0.015625)"/>
       <path id="DejaVuSans-65" d="M 3597 1894 
L 3597 1613 
L 953 1613 
Q 991 1019 1311 708 
Q 1631 397 2203 397 
Q 2534 397 2845 478 
Q 3156 559 3463 722 
L 3463 178 
Q 3153 47 2828 -22 
Q 2503 -91 2169 -91 
Q 1331 -91 842 396 
Q 353 884 353 1716 
Q 353 2575 817 3079 
Q 1281 3584 2069 3584 
Q 2775 3584 3186 3129 
Q 3597 2675 3597 1894 
z
M 3022 2063 
Q 3016 2534 2758 2815 
Q 2500 3097 2075 3097 
Q 1594 3097 1305 2825 
Q 1016 2553 972 2059 
L 3022 2063 
z
" transform="scale(0.015625)"/>
       <path id="DejaVuSans-20" transform="scale(0.015625)"/>
       <path id="DejaVuSans-5b" d="M 550 4863 
L 1875 4863 
L 1875 4416 
L 1125 4416 
L 1125 -397 
L 1875 -397 
L 1875 -844 
L 550 -844 
L 550 4863 
z
" transform="scale(0.015625)"/>
       <path id="DejaVuSans-73" d="M 2834 3397 
L 2834 2853 
Q 2591 2978 2328 3040 
Q 2066 3103 1784 3103 
Q 1356 3103 1142 2972 
Q 928 2841 928 2578 
Q 928 2378 1081 2264 
Q 1234 2150 1697 2047 
L 1894 2003 
Q 2506 1872 2764 1633 
Q 3022 1394 3022 966 
Q 3022 478 2636 193 
Q 2250 -91 1575 -91 
Q 1294 -91 989 -36 
Q 684 19 347 128 
L 347 722 
Q 666 556 975 473 
Q 1284 391 1588 391 
Q 1994 391 2212 530 
Q 2431 669 2431 922 
Q 2431 1156 2273 1281 
Q 2116 1406 1581 1522 
L 1381 1569 
Q 847 1681 609 1914 
Q 372 2147 372 2553 
Q 372 3047 722 3315 
Q 1072 3584 1716 3584 
Q 2034 3584 2315 3537 
Q 2597 3491 2834 3397 
z
" transform="scale(0.015625)"/>
       <path id="DejaVuSans-5d" d="M 1947 4863 
L 1947 -844 
L 622 -844 
L 622 -397 
L 1369 -397 
L 1369 4416 
L 622 4416 
L 622 4863 
L 1947 4863 
z
" transform="scale(0.015625)"/>
      </defs>
      <use xlink:href="#DejaVuSans-54"/>
      <use xlink:href="#DejaVuSans-69" x="57.958984"/>
      <use xlink:href="#DejaVuSans-6d" x="85.742188"/>
      <use xlink:href="#DejaVuSans-65" x="183.154297"/>
      <use xlink:href="#DejaVuSans-20" x="244.677734"/>
      <use xlink:href="#DejaVuSans-5b" x="276.464844"/>
      <use xlink:href="#DejaVuSans-73" x="315.478516"/>
      <use xlink:href="#DejaVuSans-5d" x="367.578125"/>
     </g>
    </g>
   </g>
   <g id="matplotlib.axis_2">
    <g id="ytick_1">
     <g id="line2d_13">
      <path d="M 64.885937 219.744448 
L 417.125937 219.744448 
" clip-path="url(#pa890f3b50c)" style="fill: none; stroke: #b0b0b0; stroke-width: 0.8; stroke-linecap: square"/>
     </g>
     <g id="line2d_14">
      <defs>
       <path id="meea72be4f8" d="M 0 0 
L -3.5 0 
" style="stroke: #000000; stroke-width: 0.8"/>
      </defs>
      <g>
       <use xlink:href="#meea72be4f8" x="64.885937" y="219.744448" style="stroke: #000000; stroke-width: 0.8"/>
      </g>
     </g>
     <g id="text_8">
      <!-- −0.075 -->
      <g transform="translate(20.878125 223.543666) scale(0.1 -0.1)">
       <defs>
        <path id="DejaVuSans-2212" d="M 678 2272 
L 4684 2272 
L 4684 1741 
L 678 1741 
L 678 2272 
z
" transform="scale(0.015625)"/>
        <path id="DejaVuSans-30" d="M 2034 4250 
Q 1547 4250 1301 3770 
Q 1056 3291 1056 2328 
Q 1056 1369 1301 889 
Q 1547 409 2034 409 
Q 2525 409 2770 889 
Q 3016 1369 3016 2328 
Q 3016 3291 2770 3770 
Q 2525 4250 2034 4250 
z
M 2034 4750 
Q 2819 4750 3233 4129 
Q 3647 3509 3647 2328 
Q 3647 1150 3233 529 
Q 2819 -91 2034 -91 
Q 1250 -91 836 529 
Q 422 1150 422 2328 
Q 422 3509 836 4129 
Q 1250 4750 2034 4750 
z
" transform="scale(0.015625)"/>
        <path id="DejaVuSans-2e" d="M 684 794 
L 1344 794 
L 1344 0 
L 684 0 
L 684 794 
z
" transform="scale(0.015625)"/>
        <path id="DejaVuSans-37" d="M 525 4666 
L 3525 4666 
L 3525 4397 
L 1831 0 
L 1172 0 
L 2766 4134 
L 525 4134 
L 525 4666 
z
" transform="scale(0.015625)"/>
       </defs>
       <use xlink:href="#DejaVuSans-2212"/>
       <use xlink:href="#DejaVuSans-30" x="83.789062"/>
       <use xlink:href="#DejaVuSans-2e" x="147.412109"/>
       <use xlink:href="#DejaVuSans-30" x="179.199219"/>
       <use xlink:href="#DejaVuSans-37" x="242.822266"/>
       <use xlink:href="#DejaVuSans-35" x="306.445312"/>
      </g>
     </g>
    </g>
    <g id="ytick_2">
     <g id="line2d_15">
      <path d="M 64.885937 191.784763 
L 417.125937 191.784763 
" clip-path="url(#pa890f3b50c)" style="fill: none; stroke: #b0b0b0; stroke-width: 0.8; stroke-linecap: square"/>
     </g>
     <g id="line2d_16">
      <g>
       <use xlink:href="#meea72be4f8" x="64.885937" y="191.784763" style="stroke: #000000; stroke-width: 0.8"/>
      </g>
     </g>
     <g id="text_9">
      <!-- −0.050 -->
      <g transform="translate(20.878125 195.583981) scale(0.1 -0.1)">
       <use xlink:href="#DejaVuSans-2212"/>
       <use xlink:href="#DejaVuSans-30" x="83.789062"/>
       <use xlink:href="#DejaVuSans-2e" x="147.412109"/>
       <use xlink:href="#DejaVuSans-30" x="179.199219"/>
       <use xlink:href="#DejaVuSans-35" x="242.822266"/>
       <use xlink:href="#DejaVuSans-30" x="306.445312"/>
      </g>
     </g>
    </g>
    <g id="ytick_3">
     <g id="line2d_17">
      <path d="M 64.885937 163.825077 
L 417.125937 163.825077 
" clip-path="url(#pa890f3b50c)" style="fill: none; stroke: #b0b0b0; stroke-width: 0.8; stroke-linecap: square"/>
     </g>
     <g id="line2d_18">
      <g>
       <use xlink:href="#meea72be4f8" x="64.885937" y="163.825077" style="stroke: #000000; stroke-width: 0.8"/>
      </g>
     </g>
     <g id="text_10">
      <!-- −0.025 -->
      <g transform="translate(20.878125 167.624296) scale(0.1 -0.1)">
       <use xlink:href="#DejaVuSans-2212"/>
       <use xlink:href="#DejaVuSans-30" x="83.789062"/>
       <use xlink:href="#DejaVuSans-2e" x="147.412109"/>
       <use xlink:href="#DejaVuSans-30" x="179.199219"/>
       <use xlink:href="#DejaVuSans-32" x="242.822266"/>
       <use xlink:href="#DejaVuSans-35" x="306.445312"/>
      </g>
     </g>
    </g>
    <g id="ytick_4">
     <g id="line2d_19">
      <path d="M 64.885937 135.865392 
L 417.125937 135.865392 
" clip-path="url(#pa890f3b50c)" style="fill: none; stroke: #b0b0b0; stroke-width: 0.8; stroke-linecap: square"/>
     </g>
     <g id="line2d_20">
      <g>
       <use xlink:href="#meea72be4f8" x="64.885937" y="135.865392" style="stroke: #000000; stroke-width: 0.8"/>
      </g>
     </g>
     <g id="text_11">
      <!-- 0.000 -->
      <g transform="translate(29.257812 139.664611) scale(0.1 -0.1)">
       <use xlink:href="#DejaVuSans-30"/>
       <use xlink:href="#DejaVuSans-2e" x="63.623047"/>
       <use xlink:href="#DejaVuSans-30" x="95.410156"/>
       <use xlink:href="#DejaVuSans-30" x="159.033203"/>
       <use xlink:href="#DejaVuSans-30" x="222.65625"/>
      </g>
     </g>
    </g>
    <g id="ytick_5">
     <g id="line2d_21">
      <path d="M 64.885937 107.905707 
L 417.125937 107.905707 
" clip-path="url(#pa890f3b50c)" style="fill: none; stroke: #b0b0b0; stroke-width: 0.8; stroke-linecap: square"/>
     </g>
     <g id="line2d_22">
      <g>
       <use xlink:href="#meea72be4f8" x="64.885937" y="107.905707" style="stroke: #000000; stroke-width: 0.8"/>
      </g>
     </g>
     <g id="text_12">
      <!-- 0.025 -->
      <g transform="translate(29.257812 111.704926) scale(0.1 -0.1)">
       <use xlink:href="#DejaVuSans-30"/>
       <use xlink:href="#DejaVuSans-2e" x="63.623047"/>
       <use xlink:href="#DejaVuSans-30" x="95.410156"/>
       <use xlink:href="#DejaVuSans-32" x="159.033203"/>
       <use xlink:href="#DejaVuSans-35" x="222.65625"/>
      </g>
     </g>
    </g>
    <g id="ytick_6">
     <g id="line2d_23">
      <path d="M 64.885937 79.946022 
L 417.125937 79.946022 
" clip-path="url(#pa890f3b50c)" style="fill: none; stroke: #b0b0b0; stroke-width: 0.8; stroke-linecap: square"/>
     </g>
     <g id="line2d_24">
      <g>
       <use xlink:href="#meea72be4f8" x="64.885937" y="79.946022" style="stroke: #000000; stroke-width: 0.8"/>
      </g>
     </g>
     <g id="text_13">
      <!-- 0.050 -->
      <g transform="translate(29.257812 83.745241) scale(0.1 -0.1)">
       <use xlink:href="#DejaVuSans-30"/>
       <use xlink:href="#DejaVuSans-2e" x="63.623047"/>
       <use xlink:href="#DejaVuSans-30" x="95.410156"/>
       <use xlink:href="#DejaVuSans-35" x="159.033203"/>
       <use xlink:href="#DejaVuSans-30" x="222.65625"/>
      </g>
     </g>
    </g>
    <g id="ytick_7">
     <g id="line2d_25">
      <path d="M 64.885937 51.986337 
L 417.125937 51.986337 
" clip-path="url(#pa890f3b50c)" style="fill: none; stroke: #b0b0b0; stroke-width: 0.8; stroke-linecap: square"/>
     </g>
     <g id="line2d_26">
      <g>
       <use xlink:href="#meea72be4f8" x="64.885937" y="51.986337" style="stroke: #000000; stroke-width: 0.8"/>
      </g>
     </g>
     <g id="text_14">
      <!-- 0.075 -->
      <g transform="translate(29.257812 55.785556) scale(0.1 -0.1)">
       <use xlink:href="#DejaVuSans-30"/>
       <use xlink:href="#DejaVuSans-2e" x="63.623047"/>
       <use xlink:href="#DejaVuSans-30" x="95.410156"/>
       <use xlink:href="#DejaVuSans-37" x="159.033203"/>
       <use xlink:href="#DejaVuSans-35" x="222.65625"/>
      </g>
     </g>
    </g>
    <g id="ytick_8">
     <g id="line2d_27">
      <path d="M 64.885937 24.026652 
L 417.125937 24.026652 
" clip-path="url(#pa890f3b50c)" style="fill: none; stroke: #b0b0b0; stroke-width: 0.8; stroke-linecap: square"/>
     </g>
     <g id="line2d_28">
      <g>
       <use xlink:href="#meea72be4f8" x="64.885937" y="24.026652" style="stroke: #000000; stroke-width: 0.8"/>
      </g>
     </g>
     <g id="text_15">
      <!-- 0.100 -->
      <g transform="translate(29.257812 27.825871) scale(0.1 -0.1)">
       <use xlink:href="#DejaVuSans-30"/>
       <use xlink:href="#DejaVuSans-2e" x="63.623047"/>
       <use xlink:href="#DejaVuSans-31" x="95.410156"/>
       <use xlink:href="#DejaVuSans-30" x="159.033203"/>
       <use xlink:href="#DejaVuSans-30" x="222.65625"/>
      </g>
     </g>
    </g>
    <g id="text_16">
     <!-- Signal -->
     <g transform="translate(14.798437 147.9775) rotate(-90) scale(0.1 -0.1)">
      <defs>
       <path id="DejaVuSans-53" d="M 3425 4513 
L 3425 3897 
Q 3066 4069 2747 4153 
Q 2428 4238 2131 4238 
Q 1616 4238 1336 4038 
Q 1056 3838 1056 3469 
Q 1056 3159 1242 3001 
Q 1428 2844 1947 2747 
L 2328 2669 
Q 3034 2534 3370 2195 
Q 3706 1856 3706 1288 
Q 3706 609 3251 259 
Q 2797 -91 1919 -91 
Q 1588 -91 1214 -16 
Q 841 59 441 206 
L 441 856 
Q 825 641 1194 531 
Q 1563 422 1919 422 
Q 2459 422 2753 634 
Q 3047 847 3047 1241 
Q 3047 1584 2836 1778 
Q 2625 1972 2144 2069 
L 1759 2144 
Q 1053 2284 737 2584 
Q 422 2884 422 3419 
Q 422 4038 858 4394 
Q 1294 4750 2059 4750 
Q 2388 4750 2728 4690 
Q 3069 4631 3425 4513 
z
" transform="scale(0.015625)"/>
       <path id="DejaVuSans-67" d="M 2906 1791 
Q 2906 2416 2648 2759 
Q 2391 3103 1925 3103 
Q 1463 3103 1205 2759 
Q 947 2416 947 1791 
Q 947 1169 1205 825 
Q 1463 481 1925 481 
Q 2391 481 2648 825 
Q 2906 1169 2906 1791 
z
M 3481 434 
Q 3481 -459 3084 -895 
Q 2688 -1331 1869 -1331 
Q 1566 -1331 1297 -1286 
Q 1028 -1241 775 -1147 
L 775 -588 
Q 1028 -725 1275 -790 
Q 1522 -856 1778 -856 
Q 2344 -856 2625 -561 
Q 2906 -266 2906 331 
L 2906 616 
Q 2728 306 2450 153 
Q 2172 0 1784 0 
Q 1141 0 747 490 
Q 353 981 353 1791 
Q 353 2603 747 3093 
Q 1141 3584 1784 3584 
Q 2172 3584 2450 3431 
Q 2728 3278 2906 2969 
L 2906 3500 
L 3481 3500 
L 3481 434 
z
" transform="scale(0.015625)"/>
       <path id="DejaVuSans-6e" d="M 3513 2113 
L 3513 0 
L 2938 0 
L 2938 2094 
Q 2938 2591 2744 2837 
Q 2550 3084 2163 3084 
Q 1697 3084 1428 2787 
Q 1159 2491 1159 1978 
L 1159 0 
L 581 0 
L 581 3500 
L 1159 3500 
L 1159 2956 
Q 1366 3272 1645 3428 
Q 1925 3584 2291 3584 
Q 2894 3584 3203 3211 
Q 3513 2838 3513 2113 
z
" transform="scale(0.015625)"/>
       <path id="DejaVuSans-61" d="M 2194 1759 
Q 1497 1759 1228 1600 
Q 959 1441 959 1056 
Q 959 750 1161 570 
Q 1363 391 1709 391 
Q 2188 391 2477 730 
Q 2766 1069 2766 1631 
L 2766 1759 
L 2194 1759 
z
M 3341 1997 
L 3341 0 
L 2766 0 
L 2766 531 
Q 2569 213 2275 61 
Q 1981 -91 1556 -91 
Q 1019 -91 701 211 
Q 384 513 384 1019 
Q 384 1609 779 1909 
Q 1175 2209 1959 2209 
L 2766 2209 
L 2766 2266 
Q 2766 2663 2505 2880 
Q 2244 3097 1772 3097 
Q 1472 3097 1187 3025 
Q 903 2953 641 2809 
L 641 3341 
Q 956 3463 1253 3523 
Q 1550 3584 1831 3584 
Q 2591 3584 2966 3190 
Q 3341 2797 3341 1997 
z
" transform="scale(0.015625)"/>
       <path id="DejaVuSans-6c" d="M 603 4863 
L 1178 4863 
L 1178 0 
L 603 0 
L 603 4863 
z
" transform="scale(0.015625)"/>
      </defs>
      <use xlink:href="#DejaVuSans-53"/>
      <use xlink:href="#DejaVuSans-69" x="63.476562"/>
      <use xlink:href="#DejaVuSans-67" x="91.259766"/>
      <use xlink:href="#DejaVuSans-6e" x="154.736328"/>
      <use xlink:href="#DejaVuSans-61" x="218.115234"/>
      <use xlink:href="#DejaVuSans-6c" x="279.394531"/>
     </g>
    </g>
   </g>
   <g id="line2d_29">
    <path d="M 64.885888 135.877266 
L 69.488302 135.884149 
L 76.420122 135.875031 
L 80.210345 135.888412 
L 82.534113 135.852023 
L 84.86352 135.860412 
L 87.559542 135.871666 
L 89.945351 135.839081 
L 92.923383 135.875175 
L 95.241511 135.820271 
L 98.321067 135.883152 
L 100.633554 135.806668 
L 102.93476 135.958204 
L 104.863713 135.756096 
L 105.907152 135.780968 
L 108.529851 135.987645 
L 111.366878 135.747813 
L 114.153142 135.974242 
L 116.48819 135.650527 
L 117.339862 135.868271 
L 118.783757 136.142756 
L 119.748233 135.976833 
L 121.434656 135.532758 
L 122.05508 135.625686 
L 123.307207 136.086681 
L 124.017874 136.231738 
L 124.734181 136.167204 
L 125.676096 135.769547 
L 126.736456 135.426624 
L 127.390721 135.510302 
L 128.073186 135.809714 
L 129.184308 136.320552 
L 129.76525 136.366172 
L 130.363112 136.160509 
L 131.423472 135.529735 
L 132.055176 135.302583 
L 132.630478 135.3245 
L 133.171938 135.581166 
L 134.858362 136.5367 
L 135.36034 136.469589 
L 135.930002 136.162323 
L 137.560023 135.098609 
L 138.0056 135.141565 
L 138.513219 135.437113 
L 139.517177 136.346565 
L 140.098119 136.700075 
L 140.566256 136.728732 
L 141.011833 136.529958 
L 141.581495 135.994802 
L 142.681336 134.964853 
L 143.109992 134.851069 
L 143.516087 134.982831 
L 144.023706 135.403239 
L 145.676289 137.002144 
L 146.054183 136.972287 
L 146.437717 136.701326 
L 147.075061 135.917579 
L 148.11286 134.674996 
L 148.502035 134.564932 
L 148.879929 134.688115 
L 149.280384 135.067976 
L 149.940289 136.086285 
L 150.724279 137.133756 
L 151.124734 137.360034 
L 151.440586 137.29042 
L 151.82976 136.945413 
L 152.35994 136.15202 
L 153.471062 134.386757 
L 153.877157 134.180768 
L 154.181729 134.258053 
L 154.508861 134.598833 
L 155.061602 135.570655 
L 156.234766 137.631695 
L 156.567539 137.766495 
L 156.88339 137.655839 
L 157.227443 137.280434 
L 157.66174 136.428144 
L 158.823623 134.00925 
L 159.195877 133.689544 
L 159.455327 133.73093 
L 159.759899 134.040418 
L 160.205475 134.852556 
L 160.882301 136.627781 
L 161.468883 137.89333 
L 161.869338 138.285939 
L 162.145708 138.290266 
L 162.405158 138.046777 
L 162.754851 137.358516 
L 163.51064 135.234997 
L 164.238227 133.414718 
L 164.56536 133.112859 
L 164.824809 133.146975 
L 165.10682 133.432261 
L 165.445233 134.126397 
L 165.975413 135.829504 
L 166.810164 138.350681 
L 167.210619 138.978649 
L 167.447508 139.021557 
L 167.678757 138.80855 
L 168.011529 138.141219 
L 168.502228 136.596432 
L 169.664111 132.703613 
L 170.002524 132.326887 
L 170.228133 132.352848 
L 170.453741 132.637909 
L 170.769593 133.45949 
L 171.356175 135.755811 
L 172.320651 139.402482 
L 172.642143 139.851199 
L 172.862112 139.843098 
L 173.09336 139.577482 
L 173.392292 138.850746 
L 173.809667 137.164162 
L 175.039234 131.844658 
L 175.366366 131.315059 
L 175.558133 131.32653 
L 175.766821 131.614972 
L 176.077033 132.499491 
L 176.54517 134.600646 
L 177.780377 140.517288 
L 178.090588 140.976624 
L 178.282356 140.951046 
L 178.479763 140.651135 
L 178.761774 139.743357 
L 179.218631 137.376481 
L 180.476398 130.572059 
L 180.764049 130.099561 
L 180.944536 130.127385 
L 181.141943 130.433418 
L 181.423954 131.350497 
L 181.824409 133.533461 
L 183.228822 141.971587 
L 183.505192 142.411755 
L 183.663118 142.347511 
L 183.854885 141.959039 
L 184.148176 140.775001 
L 184.599393 137.895112 
L 185.885362 129.130035 
L 186.178653 128.55044 
L 186.342219 128.576801 
L 186.517066 128.898605 
L 186.776515 129.935332 
L 187.17133 132.599523 
L 188.677267 143.785751 
L 188.914156 144.118715 
L 189.055161 144.020082 
L 189.246928 143.541166 
L 189.534579 142.122706 
L 189.957595 138.733717 
L 191.266124 127.405657 
L 191.559415 126.612741 
L 191.711701 126.626113 
L 191.869627 126.960701 
L 192.117796 128.117164 
L 192.495691 131.107085 
L 193.228918 139.123648 
L 193.838061 144.685512 
L 194.170834 146.072937 
L 194.356961 146.218388 
L 194.362601 146.215467 
L 194.497966 146.014217 
L 194.706654 145.208948 
L 195.011225 143.002424 
L 195.507564 137.468896 
L 196.534083 125.987719 
L 196.866855 124.394221 
L 197.036061 124.244482 
L 197.047342 124.250879 
L 197.177067 124.469781 
L 197.385755 125.363482 
L 197.701606 127.866768 
L 198.181025 133.733818 
L 199.230104 146.883212 
L 199.568517 148.669454 
L 199.737723 148.853906 
L 199.754644 148.844238 
L 199.878728 148.613717 
L 200.076136 147.671496 
L 200.380707 144.949649 
L 200.882686 138.103792 
L 201.954327 123.255039 
L 202.270178 121.571985 
L 202.422464 121.421865 
L 202.445025 121.436855 
L 202.56911 121.691419 
L 202.772157 122.734562 
L 203.071089 125.637226 
L 203.539226 132.75804 
L 204.627787 149.703267 
L 204.954919 151.831506 
L 205.101565 152.029629 
L 205.129766 152.011688 
L 205.24821 151.740706 
L 205.445618 150.612252 
L 205.750189 147.381838 
L 206.212687 139.769164 
L 207.35201 120.176767 
L 207.673502 118.082658 
L 207.808867 117.905715 
L 207.842708 117.93156 
L 207.961153 118.24809 
L 208.15856 119.557987 
L 208.463131 123.350532 
L 208.970751 132.982886 
L 210.02547 153.181104 
L 210.341322 155.549847 
L 210.482327 155.774867 
L 210.516169 155.751632 
L 210.634613 155.435835 
L 210.832021 154.105925 
L 211.125312 150.335955 
L 211.570888 141.234944 
L 212.727132 116.577036 
L 213.048624 113.878503 
L 213.172709 113.667409 
L 213.21219 113.701738 
L 213.324994 114.067992 
L 213.522402 115.630295 
L 213.826973 120.093147 
L 214.295111 130.685152 
L 215.423153 157.283665 
L 215.744645 160.159752 
L 215.87437 160.413589 
L 215.913852 160.380142 
L 216.026656 159.992871 
L 216.218423 158.336757 
L 216.511714 153.521372 
L 216.991132 141.355395 
L 218.124815 111.873097 
L 218.435027 108.944471 
L 218.553471 108.731305 
L 218.592953 108.772165 
L 218.705757 109.195053 
L 218.897524 110.940465 
L 219.185175 115.887366 
L 219.619471 127.76899 
L 220.820837 162.406844 
L 221.131048 165.744761 
L 221.243852 165.986753 
L 221.283334 165.943386 
L 221.390498 165.491903 
L 221.582265 163.502902 
L 221.881196 157.684316 
L 222.343694 143.683188 
L 223.511218 106.575037 
L 223.82707 102.968112 
L 223.939874 102.699674 
L 223.984996 102.751233 
L 224.0978 103.285395 
L 224.289567 105.528376 
L 224.582858 112.024461 
L 225.062276 128.484775 
L 226.184678 167.95732 
L 226.49489 172.063402 
L 226.618975 172.404236 
L 226.658456 172.354688 
L 226.76562 171.838566 
L 226.951747 169.639249 
L 227.239398 163.143857 
L 227.668054 147.639618 
L 228.908901 99.890167 
L 229.213472 95.788486 
L 229.309356 95.539434 
L 229.354478 95.602534 
L 229.461642 96.215037 
L 229.653409 98.895994 
L 229.95234 106.746631 
L 230.420478 125.833228 
L 231.571081 174.751337 
L 231.886933 179.650436 
L 232.005377 180.034081 
L 232.044859 179.977429 
L 232.152023 179.351691 
L 232.33815 176.621744 
L 232.625801 168.497963 
L 233.082658 148.119139 
L 234.272743 92.805463 
L 234.577314 87.791705 
L 234.678838 87.451282 
L 234.72396 87.517167 
L 234.831124 88.205769 
L 235.017251 91.145074 
L 235.304902 99.779941 
L 235.739198 120.542054 
L 236.974404 183.180458 
L 237.278976 188.532571 
L 237.374859 188.861572 
L 237.419981 188.781526 
L 237.527145 187.986605 
L 237.718912 184.47889 
L 238.017844 174.138034 
L 238.485981 149.009435 
L 239.630944 85.219609 
L 239.946796 78.766865 
L 240.065241 78.259863 
L 240.104722 78.331271 
L 240.206246 79.071661 
L 240.386733 82.363568 
L 240.663103 92.094775 
L 241.0974 116.575382 
L 242.366447 192.50536 
L 242.659738 198.191934 
L 242.744342 198.483688 
L 242.795103 198.363557 
L 242.907908 197.309396 
L 243.105315 192.921099 
L 243.409887 180.306006 
L 243.878024 150.192539 
L 244.966585 77.962656 
L 245.299358 68.983388 
L 245.434723 68.119296 
L 245.474204 68.188987 
L 245.570088 68.969238 
L 245.744934 72.601264 
L 246.021305 83.796069 
L 246.455601 111.967162 
L 247.76413 202.634177 
L 248.046141 208.413011 
L 248.119464 208.665628 
L 248.170226 208.532724 
L 248.28303 207.334779 
L 248.480437 202.275433 
L 248.779369 187.856479 
L 249.253146 152.275219 
L 250.336067 69.103366 
L 250.6632 58.771044 
L 250.798565 57.749572 
L 250.838046 57.825154 
L 250.93393 58.709313 
L 251.108776 62.823324 
L 251.385147 75.446172 
L 251.808163 106.515398 
L 253.144893 212.335179 
L 253.426904 218.759852 
L 253.494586 218.997805 
L 253.545348 218.833624 
L 253.658152 217.410623 
L 253.85556 211.447601 
L 254.160131 194.270699 
L 254.65647 151.454449 
L 255.694269 61.053522 
L 256.027041 49.159043 
L 256.168047 47.97778 
L 256.201888 48.044821 
L 256.292131 48.885503 
L 256.461338 53.025153 
L 256.726428 65.934721 
L 257.126883 98.040643 
L 258.548216 222.543743 
L 258.807666 228.302157 
L 258.852788 228.429463 
L 258.90355 228.257494 
L 259.016354 226.686081 
L 259.213761 220.104766 
L 259.518333 201.337717 
L 260.003391 155.556964 
L 261.058111 53.989291 
L 261.390883 40.876094 
L 261.537529 39.467402 
L 261.57137 39.540198 
L 261.661613 40.471909 
L 261.83082 45.104783 
L 262.09591 59.602213 
L 262.507645 96.290277 
L 263.883857 228.46354 
L 264.154587 235.43275 
L 264.210989 235.635541 
L 264.261751 235.44843 
L 264.374556 233.790446 
L 264.571963 226.877597 
L 264.870894 207.419253 
L 265.339032 160.125776 
L 266.405032 49.724738 
L 266.743445 34.880469 
L 266.89573 33.27896 
L 266.923931 33.347702 
L 267.014175 34.337885 
L 267.183381 39.307249 
L 267.454111 55.085579 
L 267.877127 94.87963 
L 269.230778 232.013412 
L 269.507149 239.732891 
L 269.569191 240.01832 
L 269.625593 239.808028 
L 269.738397 238.041164 
L 269.935805 230.673131 
L 270.234736 209.856987 
L 270.725435 157.447108 
L 271.746313 47.973121 
L 272.084726 32.359188 
L 272.237011 30.640761 
L 272.265212 30.693984 
L 272.349816 31.543817 
L 272.513382 36.056 
L 272.772832 50.471543 
L 273.167646 86.735583 
L 274.634102 235.296373 
L 274.887911 241.138428 
L 274.921752 241.213489 
L 274.966874 241.05029 
L 275.074038 239.456258 
L 275.265805 232.450324 
L 275.564737 211.907225 
L 276.055435 160.176451 
L 277.110155 47.350748 
L 277.437287 33.142151 
L 277.589573 31.560927 
L 277.617774 31.626226 
L 277.702377 32.492801 
L 277.865943 36.994445 
L 278.125393 51.468466 
L 278.520208 88.029675 
L 279.941541 231.807343 
L 280.206631 238.675095 
L 280.257393 238.834932 
L 280.308155 238.621089 
L 280.420959 236.824255 
L 280.618367 229.467645 
L 280.928578 208.266792 
L 281.424917 156.544034 
L 282.406314 53.586365 
L 282.756007 37.365345 
L 282.930854 35.267729 
L 282.953415 35.305087 
L 283.032378 35.996278 
L 283.184663 39.781917 
L 283.432833 52.572499 
L 283.822007 86.192377 
L 285.322304 228.832966 
L 285.564833 233.516094 
L 285.593034 233.549363 
L 285.632515 233.417936 
L 285.734039 232.134877 
L 285.920166 226.336701 
L 286.207817 209.207078 
L 286.653394 167.206132 
L 287.792717 55.315114 
L 288.119849 42.470796 
L 288.260854 41.193488 
L 288.294696 41.285135 
L 288.390579 42.379282 
L 288.565426 47.468716 
L 288.847436 63.316528 
L 289.298653 103.399459 
L 290.500019 215.739975 
L 290.81023 225.903465 
L 290.928675 226.724634 
L 290.968156 226.613613 
L 291.06968 225.441921 
L 291.250167 220.235573 
L 291.532178 204.562787 
L 291.983394 164.971836 
L 293.128358 61.054291 
L 293.44985 49.690033 
L 293.579575 48.639421 
L 293.619056 48.728088 
L 293.71494 49.724216 
L 293.895426 54.49737 
L 294.177437 68.883922 
L 294.611733 104.187722 
L 295.824379 208.634413 
L 296.140231 218.463046 
L 296.258675 219.257488 
L 296.298157 219.15607 
L 296.399681 218.050963 
L 296.580167 213.138978 
L 296.867818 198.222211 
L 297.341596 160.094618 
L 298.458358 67.797768 
L 298.77985 57.66552 
L 298.915215 56.676534 
L 298.954697 56.756243 
L 299.05058 57.637262 
L 299.225427 61.713794 
L 299.496157 74.013501 
L 299.919173 105.081883 
L 301.16002 201.931505 
L 301.470231 210.655344 
L 301.583036 211.308777 
L 301.622517 211.213454 
L 301.724041 210.207826 
L 301.910168 205.634993 
L 302.203459 192.062459 
L 302.665956 158.815928 
L 303.782719 75.390416 
L 304.115491 65.645774 
L 304.262137 64.621009 
L 304.295978 64.682185 
L 304.391861 65.469036 
L 304.566708 69.228214 
L 304.843078 80.914653 
L 305.294295 111.206403 
L 306.48438 194.40416 
L 306.794592 202.287075 
L 306.918677 202.961795 
L 306.958158 202.882258 
L 307.059682 202.038654 
L 307.245809 198.17774 
L 307.53346 186.722283 
L 307.973396 158.772205 
L 309.118359 82.642937 
L 309.456772 73.503084 
L 309.597777 72.618088 
L 309.631619 72.675062 
L 309.727502 73.40054 
L 309.902349 76.802824 
L 310.184359 87.324915 
L 310.641217 113.963976 
L 311.842582 187.496325 
L 312.152793 194.102706 
L 312.276878 194.695369 
L 312.31636 194.632222 
L 312.417883 193.9062 
L 312.59837 190.607746 
L 312.874741 180.794899 
L 313.325958 155.462671 
L 314.470921 89.221669 
L 314.792413 81.790578 
L 314.933418 81.046251 
L 314.967259 81.094235 
L 315.063143 81.692192 
L 315.24363 84.583047 
L 315.52564 93.282611 
L 315.948656 114.232357 
L 317.189503 180.046387 
L 317.510995 186.221784 
L 317.62944 186.706098 
L 317.668921 186.639382 
L 317.770445 185.94034 
L 317.956572 182.734426 
L 318.255503 173.017505 
L 318.768762 147.814019 
L 319.806562 96.548553 
L 320.133694 90.179923 
L 320.29726 89.417033 
L 320.319821 89.437166 
L 320.404424 89.782699 
L 320.56235 91.569903 
L 320.810519 97.362654 
L 321.182773 112.102772 
L 322.637948 175.608051 
L 322.903038 178.622583 
L 322.9538 178.691762 
L 323.004562 178.600202 
L 323.123006 177.782825 
L 323.331694 174.456315 
L 323.664467 164.995698 
L 324.172086 143.267956 
L 325.057599 105.711373 
L 325.435493 98.125323 
L 325.655462 96.87979 
L 325.723144 97.023782 
L 325.852869 98.025239 
L 326.067197 101.735379 
L 326.41689 112.345789 
L 327.234721 146.127475 
L 327.826943 166.161767 
L 328.142795 170.67335 
L 328.283801 171.11352 
L 328.317642 171.08352 
L 328.419166 170.691339 
L 328.599652 168.911021 
L 328.870383 163.697558 
L 329.259557 151.283747 
L 330.511684 108.131231 
L 330.838817 103.721341 
L 330.957261 103.391807 
L 330.996743 103.441297 
L 331.103907 103.970242 
L 331.301314 106.345411 
L 331.634087 113.571951 
L 332.175547 130.82478 
L 333.083621 159.759512 
L 333.433314 164.396328 
L 333.636362 165.124275 
L 333.647642 165.120716 
L 333.732246 164.93833 
L 333.878891 163.942018 
L 334.11014 160.541078 
L 334.471113 151.340034 
L 335.926288 110.659344 
L 336.180098 108.839549 
L 336.2365 108.804473 
L 336.281622 108.866718 
L 336.405706 109.423231 
L 336.625674 111.62337 
L 336.958447 117.46781 
L 337.409664 129.809681 
L 338.300817 154.499531 
L 338.712553 160.180785 
L 338.938161 161.104968 
L 339.011484 160.981834 
L 339.146849 160.172311 
L 339.378098 157.138285 
L 339.795474 148.067436 
L 341.29577 113.439454 
L 341.521379 112.641271 
L 341.617262 112.725804 
L 341.763908 113.31188 
L 341.983876 115.281404 
L 342.282807 120.300895 
L 342.801707 133.754473 
L 343.568776 151.847257 
L 343.991792 157.720306 
L 344.189199 158.450771 
L 344.20048 158.446982 
L 344.285083 158.264855 
L 344.443009 157.249823 
L 344.730659 153.651498 
L 345.204437 144.580379 
L 346.552448 116.204631 
L 346.845739 114.671396 
L 346.930342 114.613329 
L 346.975464 114.665661 
L 347.099549 115.138612 
L 347.296956 116.966833 
L 347.612808 122.411229 
L 349.327432 156.054702 
L 349.479718 156.347981 
L 349.502279 156.334009 
L 349.615083 156.070825 
L 349.818131 154.906923 
L 350.117062 151.756572 
L 350.478036 145.279768 
L 351.797845 118.529513 
L 352.130618 115.875894 
L 352.232142 115.728745 
L 352.277263 115.779881 
L 352.395708 116.256687 
L 352.610036 118.260462 
L 353.027412 124.754443 
L 353.681676 138.364313 
L 354.335941 151.198665 
L 354.674354 153.961806 
L 354.922523 154.598635 
L 355.029687 154.527676 
L 355.170692 154.037545 
L 355.37374 152.366066 
L 355.678311 147.643651 
L 357.325253 118.254694 
L 357.528301 117.651794 
L 357.533941 117.65288 
L 357.629825 117.800351 
L 357.810312 118.628008 
L 358.131804 121.322606 
L 358.498418 126.369818 
L 359.056799 138.07664 
L 359.609539 147.449509 
L 360.117158 152.54401 
L 360.342767 153.262529 
L 360.42737 153.137192 
L 360.574016 152.381332 
L 360.839106 149.579784 
L 361.510291 139.338901 
L 362.643974 121.549739 
L 362.937265 120.512553 
L 363.123392 120.394685 
L 363.129032 120.398209 
L 363.253116 120.610366 
L 363.427963 121.457218 
L 363.670492 123.939675 
L 364.13863 131.703231 
L 365.080545 146.186614 
L 365.46972 150.005355 
L 365.650207 150.401014 
L 365.661487 150.397082 
L 365.768651 150.218333 
L 365.982979 149.296641 
L 366.389075 146.449947 
L 366.733127 142.361523 
L 367.951413 125.621203 
L 368.40263 122.7665 
L 368.515435 122.645062 
L 368.554916 122.684494 
L 368.679001 123.090132 
L 368.904609 124.769106 
L 369.694239 133.318398 
L 370.816641 145.931749 
L 371.138133 146.53333 
L 371.375022 146.645227 
L 371.504747 146.428929 
L 371.679594 145.601538 
L 371.950324 142.992774 
L 373.084006 130.691607 
L 373.585985 126.526549 
L 373.749551 126.273897 
L 373.766472 126.2827 
L 373.890557 126.507402 
L 374.212049 127.735534 
L 374.747869 130.361154 
L 375.080642 133.821603 
L 375.678504 139.868689 
L 376.35533 143.163813 
L 376.6317 143.934802 
L 376.727584 143.844913 
L 376.879869 143.269205 
L 377.223922 140.800147 
L 377.754102 137.629046 
L 378.098155 135.044397 
L 378.701658 130.416194 
L 378.893425 130.218896 
L 379.130314 130.404682 
L 379.361563 130.438229 
L 379.649214 130.440415 
L 379.795859 130.810453 
L 380.015827 132.132939 
L 380.777256 137.311759 
L 381.205912 138.911976 
L 381.724812 141.13199 
L 381.826335 141.046206 
L 381.995542 140.463037 
L 382.627246 138.033348 
L 382.903616 137.32282 
L 383.157426 135.793915 
L 383.710166 132.401693 
L 383.856812 132.333667 
L 383.873732 132.344939 
L 384.358791 132.591414 
L 384.731045 132.184751 
L 384.770526 132.228587 
L 384.911532 132.641827 
L 385.165341 134.272519 
L 385.627838 136.992125 
L 385.892928 137.363396 
L 386.090336 137.735161 
L 386.344145 138.843 
L 386.716399 140.233285 
L 386.817923 140.165338 
L 386.975849 139.628271 
L 387.618833 137.103518 
L 387.895204 136.652209 
L 388.103892 135.629596 
L 388.786357 131.789521 
L 388.910442 131.906242 
L 389.322178 132.437449 
L 389.339098 132.426332 
L 389.547786 132.127347 
L 389.733913 131.993748 
L 389.750834 132.007372 
L 389.869278 132.274482 
L 390.066686 133.414415 
L 390.737871 137.751692 
L 391.189088 138.847663 
L 391.78131 141.620704 
L 391.848993 141.549219 
L 392.001278 140.998402 
L 392.666823 138.182461 
L 392.898072 137.649415 
L 393.10676 136.401752 
L 393.885109 130.919949 
L 394.059956 130.972918 
L 394.246083 130.948586 
L 394.415289 130.586852 
L 394.787543 129.684064 
L 394.815744 129.703911 
L 394.928549 129.999215 
L 395.125956 131.315874 
L 395.791501 136.200824 
L 396.152475 137.73915 
L 396.502168 140.882664 
L 396.8293 142.956401 
L 396.919543 143.024001 
L 396.964665 142.978149 
L 397.122591 142.519972 
L 397.539967 141.346151 
L 397.917861 141.004536 
L 398.092708 139.997936 
L 398.408559 136.515071 
L 398.820295 132.797335 
L 399.192549 131.590254 
L 399.440718 130.16373 
L 399.908856 127.489387 
L 399.993459 127.56474 
L 400.134464 128.163091 
L 401.053819 133.052158 
L 401.285068 134.99157 
L 402.023936 142.050134 
L 402.238264 142.219736 
L 402.40183 142.422337 
L 402.604877 143.1472 
L 402.960211 144.324665 
L 402.971491 144.319628 
L 403.061735 144.131084 
L 403.225301 143.118425 
L 404.189777 135.760654 
L 404.449227 133.451111 
L 405.041449 127.8587 
L 405.137333 127.790612 
L 405.176814 127.829128 
L 405.357301 128.2743 
L 405.628031 128.718785 
L 405.769036 128.58225 
L 406.000285 128.363178 
L 406.022846 128.384504 
L 406.13565 128.698759 
L 406.316137 130.030658 
L 407.241132 138.349241 
L 407.489301 139.826316 
L 408.149206 144.881149 
L 408.199968 144.827488 
L 408.335333 144.322953 
L 408.927555 141.771588 
L 409.158804 141.406143 
L 409.32801 140.464454 
L 409.5931 137.39915 
L 410.089439 131.951054 
L 410.348889 131.241482 
L 410.557577 130.615761 
L 410.811386 128.90506 
L 411.17236 126.861419 
L 411.234402 126.885369 
L 411.256963 126.929215 
L 411.386688 127.519577 
L 412.266561 132.598148 
L 412.452688 133.65116 
L 412.729058 136.837695 
L 413.180275 141.528948 
L 413.366402 141.832117 
L 413.704815 141.848579 
L 413.879662 142.518166 
L 414.263196 144.068026 
L 414.285757 144.055336 
L 414.381641 143.795267 
L 414.562127 142.460875 
L 415.182551 137.394827 
L 415.560445 136.146562 
L 415.808614 133.717352 
L 416.282392 129.242694 
L 416.378276 129.133402 
L 416.423397 129.176441 
L 416.586964 129.639212 
L 416.857694 130.213101 
L 416.863334 130.211076 
L 416.970498 130.04778 
L 417.128424 129.509771 
L 417.128424 129.509771 
" clip-path="url(#pa890f3b50c)" style="fill: none; stroke: #008000; stroke-width: 1.5; stroke-linecap: square"/>
   </g>
   <g id="patch_3">
    <path d="M 64.885937 242.918125 
L 64.885937 22.318125 
" style="fill: none; stroke: #000000; stroke-width: 0.8; stroke-linejoin: miter; stroke-linecap: square"/>
   </g>
   <g id="patch_4">
    <path d="M 417.125937 242.918125 
L 417.125937 22.318125 
" style="fill: none; stroke: #000000; stroke-width: 0.8; stroke-linejoin: miter; stroke-linecap: square"/>
   </g>
   <g id="patch_5">
    <path d="M 64.885937 242.918125 
L 417.125937 242.918125 
" style="fill: none; stroke: #000000; stroke-width: 0.8; stroke-linejoin: miter; stroke-linecap: square"/>
   </g>
   <g id="patch_6">
    <path d="M 64.885937 22.318125 
L 417.125937 22.318125 
" style="fill: none; stroke: #000000; stroke-width: 0.8; stroke-linejoin: miter; stroke-linecap: square"/>
   </g>
   <g id="text_17">
    <!-- Time Domain -->
    <g transform="translate(201.136875 16.318125) scale(0.12 -0.12)">
     <defs>
      <path id="DejaVuSans-44" d="M 1259 4147 
L 1259 519 
L 2022 519 
Q 2988 519 3436 956 
Q 3884 1394 3884 2338 
Q 3884 3275 3436 3711 
Q 2988 4147 2022 4147 
L 1259 4147 
z
M 628 4666 
L 1925 4666 
Q 3281 4666 3915 4102 
Q 4550 3538 4550 2338 
Q 4550 1131 3912 565 
Q 3275 0 1925 0 
L 628 0 
L 628 4666 
z
" transform="scale(0.015625)"/>
      <path id="DejaVuSans-6f" d="M 1959 3097 
Q 1497 3097 1228 2736 
Q 959 2375 959 1747 
Q 959 1119 1226 758 
Q 1494 397 1959 397 
Q 2419 397 2687 759 
Q 2956 1122 2956 1747 
Q 2956 2369 2687 2733 
Q 2419 3097 1959 3097 
z
M 1959 3584 
Q 2709 3584 3137 3096 
Q 3566 2609 3566 1747 
Q 3566 888 3137 398 
Q 2709 -91 1959 -91 
Q 1206 -91 779 398 
Q 353 888 353 1747 
Q 353 2609 779 3096 
Q 1206 3584 1959 3584 
z
" transform="scale(0.015625)"/>
     </defs>
     <use xlink:href="#DejaVuSans-54"/>
     <use xlink:href="#DejaVuSans-69" x="57.958984"/>
     <use xlink:href="#DejaVuSans-6d" x="85.742188"/>
     <use xlink:href="#DejaVuSans-65" x="183.154297"/>
     <use xlink:href="#DejaVuSans-20" x="244.677734"/>
     <use xlink:href="#DejaVuSans-44" x="276.464844"/>
     <use xlink:href="#DejaVuSans-6f" x="353.466797"/>
     <use xlink:href="#DejaVuSans-6d" x="414.648438"/>
     <use xlink:href="#DejaVuSans-61" x="512.060547"/>
     <use xlink:href="#DejaVuSans-69" x="573.339844"/>
     <use xlink:href="#DejaVuSans-6e" x="601.123047"/>
    </g>
   </g>
  </g>
 </g>
 <defs>
  <clipPath id="pa890f3b50c">
   <rect x="64.885937" y="22.318125" width="352.24" height="220.6"/>
  </clipPath>
 </defs>
</svg>
